%TF.GenerationSoftware,KiCad,Pcbnew,7.0.9*%
%TF.CreationDate,2024-01-09T22:49:01+01:00*%
%TF.ProjectId,Ax58100-stm32-ethercat,41783538-3130-4302-9d73-746d33322d65,rev?*%
%TF.SameCoordinates,Original*%
%TF.FileFunction,Paste,Top*%
%TF.FilePolarity,Positive*%
%FSLAX46Y46*%
G04 Gerber Fmt 4.6, Leading zero omitted, Abs format (unit mm)*
G04 Created by KiCad (PCBNEW 7.0.9) date 2024-01-09 22:49:01*
%MOMM*%
%LPD*%
G01*
G04 APERTURE LIST*
G04 Aperture macros list*
%AMRoundRect*
0 Rectangle with rounded corners*
0 $1 Rounding radius*
0 $2 $3 $4 $5 $6 $7 $8 $9 X,Y pos of 4 corners*
0 Add a 4 corners polygon primitive as box body*
4,1,4,$2,$3,$4,$5,$6,$7,$8,$9,$2,$3,0*
0 Add four circle primitives for the rounded corners*
1,1,$1+$1,$2,$3*
1,1,$1+$1,$4,$5*
1,1,$1+$1,$6,$7*
1,1,$1+$1,$8,$9*
0 Add four rect primitives between the rounded corners*
20,1,$1+$1,$2,$3,$4,$5,0*
20,1,$1+$1,$4,$5,$6,$7,0*
20,1,$1+$1,$6,$7,$8,$9,0*
20,1,$1+$1,$8,$9,$2,$3,0*%
%AMFreePoly0*
4,1,48,0.263728,0.179322,0.267696,0.180022,0.271185,0.178007,0.282967,0.175930,0.301018,0.160783,0.321426,0.149001,0.324224,0.141311,0.330495,0.136050,0.334587,0.112841,0.342646,0.090700,0.342646,0.013058,0.341668,0.007513,0.342301,0.005153,0.340614,0.001535,0.337176,-0.017963,0.324449,-0.033129,0.316081,-0.051077,0.212321,-0.154835,0.207709,-0.158063,0.206488,-0.160180,
0.202738,-0.161544,0.186518,-0.172902,0.166793,-0.174627,0.148187,-0.181400,-0.251946,-0.181400,-0.263728,-0.179322,-0.267696,-0.180022,-0.271185,-0.178007,-0.282967,-0.175930,-0.301018,-0.160783,-0.321426,-0.149001,-0.324224,-0.141311,-0.330495,-0.136050,-0.334587,-0.112841,-0.342646,-0.090700,-0.342646,0.090700,-0.340568,0.102482,-0.341268,0.106450,-0.339253,0.109939,-0.337176,0.121721,
-0.322029,0.139772,-0.310247,0.160180,-0.302557,0.162978,-0.297296,0.169249,-0.274087,0.173341,-0.251946,0.181400,0.251946,0.181400,0.263728,0.179322,0.263728,0.179322,$1*%
%AMFreePoly1*
4,1,48,0.153730,0.180422,0.156091,0.181055,0.159707,0.179368,0.179208,0.175930,0.194376,0.163202,0.212321,0.154835,0.316081,0.051077,0.319310,0.046464,0.321426,0.045243,0.322790,0.041495,0.334148,0.025274,0.335874,0.005547,0.342646,-0.013058,0.342646,-0.090700,0.340568,-0.102482,0.341268,-0.106450,0.339253,-0.109939,0.337176,-0.121721,0.322029,-0.139772,0.310247,-0.160180,
0.302557,-0.162978,0.297296,-0.169249,0.274087,-0.173341,0.251946,-0.181400,-0.251946,-0.181400,-0.263728,-0.179322,-0.267696,-0.180022,-0.271185,-0.178007,-0.282967,-0.175930,-0.301018,-0.160783,-0.321426,-0.149001,-0.324224,-0.141311,-0.330495,-0.136050,-0.334587,-0.112841,-0.342646,-0.090700,-0.342646,0.090700,-0.340568,0.102482,-0.341268,0.106450,-0.339253,0.109939,-0.337176,0.121721,
-0.322029,0.139772,-0.310247,0.160180,-0.302557,0.162978,-0.297296,0.169249,-0.274087,0.173341,-0.251946,0.181400,0.148187,0.181400,0.153730,0.180422,0.153730,0.180422,$1*%
%AMFreePoly2*
4,1,51,0.408072,0.179409,0.411876,0.180080,0.415220,0.178148,0.426518,0.176157,0.443826,0.161633,0.463390,0.150338,0.466073,0.142965,0.472085,0.137921,0.476008,0.115670,0.483735,0.094442,0.483735,-0.022402,0.482797,-0.027717,0.483404,-0.029980,0.481787,-0.033446,0.478491,-0.052144,0.466288,-0.066686,0.458266,-0.083891,0.386227,-0.155931,0.381803,-0.159028,0.380633,-0.161056,
0.377040,-0.162363,0.361488,-0.173254,0.342574,-0.174908,0.324737,-0.181401,-0.324737,-0.181401,-0.330055,-0.180463,-0.332317,-0.181069,-0.335780,-0.179453,-0.354479,-0.176157,-0.369022,-0.163953,-0.386227,-0.155931,-0.458266,-0.083891,-0.461362,-0.079468,-0.463390,-0.078298,-0.464697,-0.074705,-0.475588,-0.059152,-0.477242,-0.040239,-0.483735,-0.022402,-0.483735,0.094442,-0.481743,0.105738,
-0.482414,0.109542,-0.480482,0.112886,-0.478491,0.124184,-0.463967,0.141492,-0.452672,0.161056,-0.445299,0.163739,-0.440255,0.169751,-0.418004,0.173674,-0.396776,0.181401,0.396776,0.181401,0.408072,0.179409,0.408072,0.179409,$1*%
%AMFreePoly3*
4,1,51,0.330053,0.180463,0.332316,0.181070,0.335782,0.179453,0.354479,0.176157,0.369021,0.163953,0.386227,0.155931,0.458266,0.083891,0.461362,0.079468,0.463390,0.078298,0.464697,0.074705,0.475588,0.059152,0.477242,0.040240,0.483735,0.022402,0.483735,-0.094442,0.481743,-0.105738,0.482414,-0.109542,0.480482,-0.112886,0.478491,-0.124184,0.463967,-0.141492,0.452672,-0.161056,
0.445299,-0.163739,0.440255,-0.169751,0.418004,-0.173674,0.396776,-0.181401,-0.396776,-0.181401,-0.408072,-0.179409,-0.411876,-0.180080,-0.415220,-0.178148,-0.426518,-0.176157,-0.443826,-0.161633,-0.463390,-0.150338,-0.466073,-0.142965,-0.472085,-0.137921,-0.476008,-0.115670,-0.483735,-0.094442,-0.483735,0.022402,-0.482797,0.027717,-0.483404,0.029980,-0.481787,0.033446,-0.478491,0.052144,
-0.466288,0.066686,-0.458266,0.083891,-0.386227,0.155931,-0.381803,0.159028,-0.380633,0.161056,-0.377040,0.162363,-0.361488,0.173254,-0.342574,0.174908,-0.324737,0.181401,0.324737,0.181401,0.330053,0.180463,0.330053,0.180463,$1*%
%AMFreePoly4*
4,1,48,0.263728,0.179322,0.267696,0.180022,0.271185,0.178007,0.282967,0.175930,0.301018,0.160783,0.321426,0.149001,0.324224,0.141311,0.330495,0.136050,0.334587,0.112841,0.342646,0.090700,0.342646,-0.090700,0.340568,-0.102482,0.341268,-0.106450,0.339253,-0.109939,0.337176,-0.121721,0.322029,-0.139772,0.310247,-0.160180,0.302557,-0.162978,0.297296,-0.169249,0.274087,-0.173341,
0.251946,-0.181400,-0.148187,-0.181400,-0.153730,-0.180422,-0.156091,-0.181055,-0.159707,-0.179368,-0.179208,-0.175930,-0.194376,-0.163202,-0.212321,-0.154835,-0.316080,-0.051077,-0.319309,-0.046464,-0.321426,-0.045243,-0.322790,-0.041493,-0.334148,-0.025274,-0.335874,-0.005547,-0.342646,0.013058,-0.342646,0.090700,-0.340568,0.102482,-0.341268,0.106450,-0.339253,0.109939,-0.337176,0.121721,
-0.322029,0.139772,-0.310247,0.160180,-0.302557,0.162978,-0.297296,0.169249,-0.274087,0.173341,-0.251946,0.181400,0.251946,0.181400,0.263728,0.179322,0.263728,0.179322,$1*%
%AMFreePoly5*
4,1,48,0.263728,0.179322,0.267696,0.180022,0.271185,0.178007,0.282967,0.175930,0.301018,0.160783,0.321426,0.149001,0.324224,0.141311,0.330495,0.136050,0.334587,0.112841,0.342646,0.090700,0.342646,-0.090700,0.340568,-0.102482,0.341268,-0.106450,0.339253,-0.109939,0.337176,-0.121721,0.322029,-0.139772,0.310247,-0.160180,0.302557,-0.162978,0.297296,-0.169249,0.274087,-0.173341,
0.251946,-0.181400,-0.251946,-0.181400,-0.263728,-0.179322,-0.267696,-0.180022,-0.271185,-0.178007,-0.282967,-0.175930,-0.301018,-0.160783,-0.321426,-0.149001,-0.324224,-0.141311,-0.330495,-0.136050,-0.334587,-0.112841,-0.342646,-0.090700,-0.342646,-0.013058,-0.341668,-0.007513,-0.342301,-0.005153,-0.340614,-0.001535,-0.337176,0.017963,-0.324448,0.033131,-0.316080,0.051077,-0.212321,0.154835,
-0.207709,0.158063,-0.206488,0.160180,-0.202738,0.161544,-0.186518,0.172902,-0.166793,0.174627,-0.148187,0.181400,0.251946,0.181400,0.263728,0.179322,0.263728,0.179322,$1*%
G04 Aperture macros list end*
%ADD10FreePoly0,90.000000*%
%ADD11RoundRect,0.171323X0.312412X-0.171323X0.312412X0.171323X-0.312412X0.171323X-0.312412X-0.171323X0*%
%ADD12FreePoly1,90.000000*%
%ADD13FreePoly2,90.000000*%
%ADD14RoundRect,0.241868X0.241867X-0.241867X0.241867X0.241867X-0.241867X0.241867X-0.241867X-0.241867X0*%
%ADD15FreePoly3,90.000000*%
%ADD16FreePoly4,90.000000*%
%ADD17FreePoly5,90.000000*%
%ADD18RoundRect,0.062500X0.062500X-0.675000X0.062500X0.675000X-0.062500X0.675000X-0.062500X-0.675000X0*%
%ADD19RoundRect,0.062500X0.675000X-0.062500X0.675000X0.062500X-0.675000X0.062500X-0.675000X-0.062500X0*%
%ADD20RoundRect,0.250000X0.475000X-0.250000X0.475000X0.250000X-0.475000X0.250000X-0.475000X-0.250000X0*%
%ADD21RoundRect,0.250000X0.262500X0.450000X-0.262500X0.450000X-0.262500X-0.450000X0.262500X-0.450000X0*%
%ADD22RoundRect,0.075000X-0.075000X0.725000X-0.075000X-0.725000X0.075000X-0.725000X0.075000X0.725000X0*%
%ADD23RoundRect,0.075000X-0.725000X0.075000X-0.725000X-0.075000X0.725000X-0.075000X0.725000X0.075000X0*%
%ADD24RoundRect,0.150000X-0.150000X0.825000X-0.150000X-0.825000X0.150000X-0.825000X0.150000X0.825000X0*%
%ADD25RoundRect,0.250000X0.450000X-0.262500X0.450000X0.262500X-0.450000X0.262500X-0.450000X-0.262500X0*%
%ADD26RoundRect,0.250000X-0.250000X-0.475000X0.250000X-0.475000X0.250000X0.475000X-0.250000X0.475000X0*%
%ADD27RoundRect,0.250000X-0.262500X-0.450000X0.262500X-0.450000X0.262500X0.450000X-0.262500X0.450000X0*%
%ADD28RoundRect,0.243750X0.456250X-0.243750X0.456250X0.243750X-0.456250X0.243750X-0.456250X-0.243750X0*%
%ADD29RoundRect,0.250000X-0.475000X0.250000X-0.475000X-0.250000X0.475000X-0.250000X0.475000X0.250000X0*%
%ADD30RoundRect,0.250000X-0.450000X0.262500X-0.450000X-0.262500X0.450000X-0.262500X0.450000X0.262500X0*%
%ADD31RoundRect,0.250000X0.250000X0.475000X-0.250000X0.475000X-0.250000X-0.475000X0.250000X-0.475000X0*%
%ADD32R,1.150000X1.400000*%
%ADD33R,1.500000X2.000000*%
%ADD34R,3.800000X2.000000*%
%ADD35R,0.750000X1.000000*%
%ADD36RoundRect,0.243750X-0.456250X0.243750X-0.456250X-0.243750X0.456250X-0.243750X0.456250X0.243750X0*%
G04 APERTURE END LIST*
D10*
%TO.C,U2*%
X183395000Y-100777000D03*
D11*
X184220000Y-100777000D03*
X185420000Y-100777000D03*
X186620000Y-100777000D03*
D12*
X187445000Y-100777000D03*
D13*
X183395000Y-99752000D03*
D14*
X184220000Y-99752000D03*
X185420000Y-99752000D03*
X186620000Y-99752000D03*
D15*
X187445000Y-99752000D03*
D13*
X183395000Y-98552000D03*
D14*
X184220000Y-98552000D03*
X185420000Y-98552000D03*
X186620000Y-98552000D03*
D15*
X187445000Y-98552000D03*
D13*
X183395000Y-97352000D03*
D14*
X184220000Y-97352000D03*
X185420000Y-97352000D03*
X186620000Y-97352000D03*
D15*
X187445000Y-97352000D03*
D16*
X183395000Y-96327000D03*
D11*
X184220000Y-96327000D03*
X185420000Y-96327000D03*
X186620000Y-96327000D03*
D17*
X187445000Y-96327000D03*
D18*
X181620000Y-104214500D03*
X182020000Y-104214500D03*
X182420000Y-104214500D03*
X182820000Y-104214500D03*
X183220000Y-104214500D03*
X183620000Y-104214500D03*
X184020000Y-104214500D03*
X184420000Y-104214500D03*
X184820000Y-104214500D03*
X185220000Y-104214500D03*
X185620000Y-104214500D03*
X186020000Y-104214500D03*
X186420000Y-104214500D03*
X186820000Y-104214500D03*
X187220000Y-104214500D03*
X187620000Y-104214500D03*
X188020000Y-104214500D03*
X188420000Y-104214500D03*
X188820000Y-104214500D03*
X189220000Y-104214500D03*
D19*
X191082500Y-102352000D03*
X191082500Y-101952000D03*
X191082500Y-101552000D03*
X191082500Y-101152000D03*
X191082500Y-100752000D03*
X191082500Y-100352000D03*
X191082500Y-99952000D03*
X191082500Y-99552000D03*
X191082500Y-99152000D03*
X191082500Y-98752000D03*
X191082500Y-98352000D03*
X191082500Y-97952000D03*
X191082500Y-97552000D03*
X191082500Y-97152000D03*
X191082500Y-96752000D03*
X191082500Y-96352000D03*
X191082500Y-95952000D03*
X191082500Y-95552000D03*
X191082500Y-95152000D03*
X191082500Y-94752000D03*
D18*
X189220000Y-92889500D03*
X188820000Y-92889500D03*
X188420000Y-92889500D03*
X188020000Y-92889500D03*
X187620000Y-92889500D03*
X187220000Y-92889500D03*
X186820000Y-92889500D03*
X186420000Y-92889500D03*
X186020000Y-92889500D03*
X185620000Y-92889500D03*
X185220000Y-92889500D03*
X184820000Y-92889500D03*
X184420000Y-92889500D03*
X184020000Y-92889500D03*
X183620000Y-92889500D03*
X183220000Y-92889500D03*
X182820000Y-92889500D03*
X182420000Y-92889500D03*
X182020000Y-92889500D03*
X181620000Y-92889500D03*
D19*
X179757500Y-94752000D03*
X179757500Y-95152000D03*
X179757500Y-95552000D03*
X179757500Y-95952000D03*
X179757500Y-96352000D03*
X179757500Y-96752000D03*
X179757500Y-97152000D03*
X179757500Y-97552000D03*
X179757500Y-97952000D03*
X179757500Y-98352000D03*
X179757500Y-98752000D03*
X179757500Y-99152000D03*
X179757500Y-99552000D03*
X179757500Y-99952000D03*
X179757500Y-100352000D03*
X179757500Y-100752000D03*
X179757500Y-101152000D03*
X179757500Y-101552000D03*
X179757500Y-101952000D03*
X179757500Y-102352000D03*
%TD*%
D20*
%TO.C,B7*%
X146304000Y-74610000D03*
X146304000Y-72710000D03*
%TD*%
D21*
%TO.C,R18*%
X204366500Y-114046000D03*
X202541500Y-114046000D03*
%TD*%
D22*
%TO.C,U4*%
X170084000Y-92909000D03*
X169584000Y-92909000D03*
X169084000Y-92909000D03*
X168584000Y-92909000D03*
X168084000Y-92909000D03*
X167584000Y-92909000D03*
X167084000Y-92909000D03*
X166584000Y-92909000D03*
X166084000Y-92909000D03*
X165584000Y-92909000D03*
X165084000Y-92909000D03*
X164584000Y-92909000D03*
X164084000Y-92909000D03*
X163584000Y-92909000D03*
X163084000Y-92909000D03*
X162584000Y-92909000D03*
X162084000Y-92909000D03*
X161584000Y-92909000D03*
X161084000Y-92909000D03*
X160584000Y-92909000D03*
X160084000Y-92909000D03*
X159584000Y-92909000D03*
X159084000Y-92909000D03*
X158584000Y-92909000D03*
X158084000Y-92909000D03*
D23*
X156409000Y-94584000D03*
X156409000Y-95084000D03*
X156409000Y-95584000D03*
X156409000Y-96084000D03*
X156409000Y-96584000D03*
X156409000Y-97084000D03*
X156409000Y-97584000D03*
X156409000Y-98084000D03*
X156409000Y-98584000D03*
X156409000Y-99084000D03*
X156409000Y-99584000D03*
X156409000Y-100084000D03*
X156409000Y-100584000D03*
X156409000Y-101084000D03*
X156409000Y-101584000D03*
X156409000Y-102084000D03*
X156409000Y-102584000D03*
X156409000Y-103084000D03*
X156409000Y-103584000D03*
X156409000Y-104084000D03*
X156409000Y-104584000D03*
X156409000Y-105084000D03*
X156409000Y-105584000D03*
X156409000Y-106084000D03*
X156409000Y-106584000D03*
D22*
X158084000Y-108259000D03*
X158584000Y-108259000D03*
X159084000Y-108259000D03*
X159584000Y-108259000D03*
X160084000Y-108259000D03*
X160584000Y-108259000D03*
X161084000Y-108259000D03*
X161584000Y-108259000D03*
X162084000Y-108259000D03*
X162584000Y-108259000D03*
X163084000Y-108259000D03*
X163584000Y-108259000D03*
X164084000Y-108259000D03*
X164584000Y-108259000D03*
X165084000Y-108259000D03*
X165584000Y-108259000D03*
X166084000Y-108259000D03*
X166584000Y-108259000D03*
X167084000Y-108259000D03*
X167584000Y-108259000D03*
X168084000Y-108259000D03*
X168584000Y-108259000D03*
X169084000Y-108259000D03*
X169584000Y-108259000D03*
X170084000Y-108259000D03*
D23*
X171759000Y-106584000D03*
X171759000Y-106084000D03*
X171759000Y-105584000D03*
X171759000Y-105084000D03*
X171759000Y-104584000D03*
X171759000Y-104084000D03*
X171759000Y-103584000D03*
X171759000Y-103084000D03*
X171759000Y-102584000D03*
X171759000Y-102084000D03*
X171759000Y-101584000D03*
X171759000Y-101084000D03*
X171759000Y-100584000D03*
X171759000Y-100084000D03*
X171759000Y-99584000D03*
X171759000Y-99084000D03*
X171759000Y-98584000D03*
X171759000Y-98084000D03*
X171759000Y-97584000D03*
X171759000Y-97084000D03*
X171759000Y-96584000D03*
X171759000Y-96084000D03*
X171759000Y-95584000D03*
X171759000Y-95084000D03*
X171759000Y-94584000D03*
%TD*%
D24*
%TO.C,U3*%
X179197000Y-82869000D03*
X177927000Y-82869000D03*
X176657000Y-82869000D03*
X175387000Y-82869000D03*
X175387000Y-87819000D03*
X176657000Y-87819000D03*
X177927000Y-87819000D03*
X179197000Y-87819000D03*
%TD*%
D25*
%TO.C,R30*%
X183388000Y-108100500D03*
X183388000Y-106275500D03*
%TD*%
D26*
%TO.C,C3*%
X211404200Y-79146400D03*
X213304200Y-79146400D03*
%TD*%
D21*
%TO.C,R29*%
X188364500Y-114046000D03*
X186539500Y-114046000D03*
%TD*%
D27*
%TO.C,R44*%
X152587000Y-100050000D03*
X154412000Y-100050000D03*
%TD*%
D20*
%TO.C,C36*%
X168128000Y-90586000D03*
X168128000Y-88686000D03*
%TD*%
D27*
%TO.C,R37*%
X171807500Y-81534000D03*
X173632500Y-81534000D03*
%TD*%
D28*
%TO.C,D1*%
X201930000Y-108125500D03*
X201930000Y-106250500D03*
%TD*%
D26*
%TO.C,C2*%
X211404200Y-77114400D03*
X213304200Y-77114400D03*
%TD*%
D29*
%TO.C,C34*%
X170434000Y-110556000D03*
X170434000Y-112456000D03*
%TD*%
D21*
%TO.C,R6*%
X213530500Y-105232200D03*
X211705500Y-105232200D03*
%TD*%
D30*
%TO.C,R26*%
X191770000Y-106275500D03*
X191770000Y-108100500D03*
%TD*%
D26*
%TO.C,C32*%
X174290000Y-94462000D03*
X176190000Y-94462000D03*
%TD*%
%TO.C,C8*%
X211668000Y-99136200D03*
X213568000Y-99136200D03*
%TD*%
D29*
%TO.C,C48*%
X152400000Y-68326000D03*
X152400000Y-70226000D03*
%TD*%
D25*
%TO.C,R20*%
X197866000Y-108100500D03*
X197866000Y-106275500D03*
%TD*%
D31*
%TO.C,C47*%
X154346000Y-107162000D03*
X152446000Y-107162000D03*
%TD*%
%TO.C,C45*%
X154346000Y-95732000D03*
X152446000Y-95732000D03*
%TD*%
D26*
%TO.C,C7*%
X211668000Y-97104200D03*
X213568000Y-97104200D03*
%TD*%
D21*
%TO.C,R8*%
X211986500Y-114046000D03*
X210161500Y-114046000D03*
%TD*%
D20*
%TO.C,C27*%
X183642000Y-90866000D03*
X183642000Y-88966000D03*
%TD*%
D26*
%TO.C,C46*%
X152446000Y-105130000D03*
X154346000Y-105130000D03*
%TD*%
D28*
%TO.C,D5*%
X150876000Y-81026000D03*
X150876000Y-79151000D03*
%TD*%
D21*
%TO.C,R5*%
X213276500Y-87249000D03*
X211451500Y-87249000D03*
%TD*%
D20*
%TO.C,C41*%
X160000000Y-90586000D03*
X160000000Y-88686000D03*
%TD*%
D21*
%TO.C,R16*%
X207180500Y-99136200D03*
X205355500Y-99136200D03*
%TD*%
D27*
%TO.C,R34*%
X175871500Y-92456000D03*
X177696500Y-92456000D03*
%TD*%
D26*
%TO.C,C5*%
X211404200Y-83210400D03*
X213304200Y-83210400D03*
%TD*%
D31*
%TO.C,C12*%
X200302000Y-102108000D03*
X198402000Y-102108000D03*
%TD*%
D32*
%TO.C,Y1*%
X198552000Y-97706000D03*
X198552000Y-99906000D03*
X200152000Y-99906000D03*
X200152000Y-97706000D03*
%TD*%
D21*
%TO.C,R23*%
X195730500Y-88392000D03*
X193905500Y-88392000D03*
%TD*%
D25*
%TO.C,R35*%
X175260000Y-108100500D03*
X175260000Y-106275500D03*
%TD*%
D30*
%TO.C,R46*%
X148844000Y-79151000D03*
X148844000Y-80976000D03*
%TD*%
D20*
%TO.C,C35*%
X168402000Y-112456000D03*
X168402000Y-110556000D03*
%TD*%
D29*
%TO.C,C24*%
X187706000Y-106238000D03*
X187706000Y-108138000D03*
%TD*%
D26*
%TO.C,C1*%
X211404200Y-75082400D03*
X213304200Y-75082400D03*
%TD*%
D21*
%TO.C,R41*%
X172362500Y-114300000D03*
X170537500Y-114300000D03*
%TD*%
D29*
%TO.C,C28*%
X181356000Y-106238000D03*
X181356000Y-108138000D03*
%TD*%
D30*
%TO.C,R21*%
X195834000Y-106275500D03*
X195834000Y-108100500D03*
%TD*%
D20*
%TO.C,C40*%
X162032000Y-90586000D03*
X162032000Y-88686000D03*
%TD*%
D21*
%TO.C,R3*%
X220622500Y-114029000D03*
X218797500Y-114029000D03*
%TD*%
D20*
%TO.C,C25*%
X186436000Y-90866000D03*
X186436000Y-88966000D03*
%TD*%
D31*
%TO.C,C39*%
X163556000Y-79984000D03*
X161656000Y-79984000D03*
%TD*%
D29*
%TO.C,B4*%
X194818000Y-74742000D03*
X194818000Y-76642000D03*
%TD*%
D26*
%TO.C,B2*%
X205318000Y-103200200D03*
X207218000Y-103200200D03*
%TD*%
D27*
%TO.C,R39*%
X171807500Y-85598000D03*
X173632500Y-85598000D03*
%TD*%
D26*
%TO.C,C37*%
X165212000Y-79984000D03*
X167112000Y-79984000D03*
%TD*%
D25*
%TO.C,R31*%
X181610000Y-90828500D03*
X181610000Y-89003500D03*
%TD*%
D26*
%TO.C,C18*%
X193106000Y-104140000D03*
X195006000Y-104140000D03*
%TD*%
%TO.C,B1*%
X205318000Y-83185000D03*
X207218000Y-83185000D03*
%TD*%
D21*
%TO.C,R14*%
X207180500Y-95072200D03*
X205355500Y-95072200D03*
%TD*%
D26*
%TO.C,C15*%
X193106000Y-97028000D03*
X195006000Y-97028000D03*
%TD*%
D21*
%TO.C,R7*%
X213530500Y-107264200D03*
X211705500Y-107264200D03*
%TD*%
D20*
%TO.C,C20*%
X192786000Y-81026000D03*
X192786000Y-79126000D03*
%TD*%
D21*
%TO.C,R11*%
X207180500Y-77089000D03*
X205355500Y-77089000D03*
%TD*%
D31*
%TO.C,C30*%
X177734000Y-98552000D03*
X175834000Y-98552000D03*
%TD*%
D20*
%TO.C,C42*%
X157968000Y-90586000D03*
X157968000Y-88686000D03*
%TD*%
D26*
%TO.C,C11*%
X198402000Y-95504000D03*
X200302000Y-95504000D03*
%TD*%
D33*
%TO.C,U5*%
X161558000Y-68224000D03*
X159258000Y-68224000D03*
D34*
X159258000Y-74524000D03*
D33*
X156958000Y-68224000D03*
%TD*%
D20*
%TO.C,B6*%
X148336000Y-74610000D03*
X148336000Y-72710000D03*
%TD*%
D25*
%TO.C,R28*%
X189738000Y-108100500D03*
X189738000Y-106275500D03*
%TD*%
D26*
%TO.C,C10*%
X211668000Y-103200200D03*
X213568000Y-103200200D03*
%TD*%
D31*
%TO.C,C29*%
X177734000Y-96520000D03*
X175834000Y-96520000D03*
%TD*%
D21*
%TO.C,R1*%
X228242500Y-114046000D03*
X226417500Y-114046000D03*
%TD*%
D35*
%TO.C,SW1*%
X201265000Y-85138000D03*
X201265000Y-91138000D03*
X197515000Y-85138000D03*
X197515000Y-91138000D03*
%TD*%
D25*
%TO.C,R43*%
X154432000Y-90574500D03*
X154432000Y-88749500D03*
%TD*%
D26*
%TO.C,C13*%
X193868000Y-86360000D03*
X195768000Y-86360000D03*
%TD*%
D31*
%TO.C,C4*%
X213304200Y-81178400D03*
X211404200Y-81178400D03*
%TD*%
D28*
%TO.C,D4*%
X152400000Y-90599500D03*
X152400000Y-88724500D03*
%TD*%
D29*
%TO.C,C43*%
X154432000Y-68326000D03*
X154432000Y-70226000D03*
%TD*%
D21*
%TO.C,R27*%
X192174500Y-114046000D03*
X190349500Y-114046000D03*
%TD*%
D27*
%TO.C,R38*%
X171807500Y-83566000D03*
X173632500Y-83566000D03*
%TD*%
D21*
%TO.C,R22*%
X195984500Y-114046000D03*
X194159500Y-114046000D03*
%TD*%
D20*
%TO.C,C49*%
X152400000Y-74610000D03*
X152400000Y-72710000D03*
%TD*%
D26*
%TO.C,C14*%
X193106000Y-94996000D03*
X195006000Y-94996000D03*
%TD*%
D31*
%TO.C,C31*%
X177734000Y-100584000D03*
X175834000Y-100584000D03*
%TD*%
D26*
%TO.C,C9*%
X211668000Y-101168200D03*
X213568000Y-101168200D03*
%TD*%
D36*
%TO.C,D2*%
X179324000Y-106250500D03*
X179324000Y-108125500D03*
%TD*%
D29*
%TO.C,C21*%
X190754000Y-74742000D03*
X190754000Y-76642000D03*
%TD*%
D21*
%TO.C,R32*%
X179982500Y-114300000D03*
X178157500Y-114300000D03*
%TD*%
D25*
%TO.C,R45*%
X150368000Y-90574500D03*
X150368000Y-88749500D03*
%TD*%
%TO.C,R19*%
X199898000Y-108100500D03*
X199898000Y-106275500D03*
%TD*%
D29*
%TO.C,C19*%
X192786000Y-74742000D03*
X192786000Y-76642000D03*
%TD*%
D28*
%TO.C,D3*%
X152908000Y-81026000D03*
X152908000Y-79151000D03*
%TD*%
D33*
%TO.C,U1*%
X183628000Y-81128000D03*
X185928000Y-81128000D03*
D34*
X185928000Y-74828000D03*
D33*
X188228000Y-81128000D03*
%TD*%
D31*
%TO.C,C33*%
X173670000Y-87630000D03*
X171770000Y-87630000D03*
%TD*%
D21*
%TO.C,R15*%
X207180500Y-97104200D03*
X205355500Y-97104200D03*
%TD*%
%TO.C,R10*%
X207180500Y-75057000D03*
X205355500Y-75057000D03*
%TD*%
%TO.C,R13*%
X207180500Y-81153000D03*
X205355500Y-81153000D03*
%TD*%
D20*
%TO.C,C38*%
X166096000Y-90586000D03*
X166096000Y-88686000D03*
%TD*%
D25*
%TO.C,R33*%
X177292000Y-108100500D03*
X177292000Y-106275500D03*
%TD*%
D21*
%TO.C,R40*%
X173632500Y-89662000D03*
X171807500Y-89662000D03*
%TD*%
%TO.C,R36*%
X176172500Y-114300000D03*
X174347500Y-114300000D03*
%TD*%
%TO.C,R4*%
X213276500Y-85217000D03*
X211451500Y-85217000D03*
%TD*%
D26*
%TO.C,C16*%
X193106000Y-100076000D03*
X195006000Y-100076000D03*
%TD*%
%TO.C,C6*%
X211668000Y-95072200D03*
X213568000Y-95072200D03*
%TD*%
D20*
%TO.C,C44*%
X154432000Y-74610000D03*
X154432000Y-72710000D03*
%TD*%
D21*
%TO.C,R24*%
X195730500Y-90424000D03*
X193905500Y-90424000D03*
%TD*%
D29*
%TO.C,B3*%
X196850000Y-74742000D03*
X196850000Y-76642000D03*
%TD*%
D30*
%TO.C,R25*%
X193802000Y-106275500D03*
X193802000Y-108100500D03*
%TD*%
D20*
%TO.C,B5*%
X150368000Y-74610000D03*
X150368000Y-72710000D03*
%TD*%
D29*
%TO.C,C26*%
X185420000Y-106238000D03*
X185420000Y-108138000D03*
%TD*%
D21*
%TO.C,R9*%
X208176500Y-114046000D03*
X206351500Y-114046000D03*
%TD*%
D20*
%TO.C,C22*%
X190754000Y-81026000D03*
X190754000Y-79126000D03*
%TD*%
D30*
%TO.C,R42*%
X154940000Y-79176000D03*
X154940000Y-81001000D03*
%TD*%
D26*
%TO.C,C17*%
X193106000Y-102108000D03*
X195006000Y-102108000D03*
%TD*%
D21*
%TO.C,R12*%
X207180500Y-79121000D03*
X205355500Y-79121000D03*
%TD*%
D20*
%TO.C,C23*%
X188468000Y-90866000D03*
X188468000Y-88966000D03*
%TD*%
D21*
%TO.C,R17*%
X207180500Y-101168200D03*
X205355500Y-101168200D03*
%TD*%
%TO.C,R2*%
X224432500Y-114046000D03*
X222607500Y-114046000D03*
%TD*%
M02*
