M48
; DRILL file {KiCad 7.0.9} date Tue Jan  9 22:49:10 2024
; FORMAT={-:-/ absolute / metric / decimal}
; #@! TF.CreationDate,2024-01-09T22:49:10+01:00
; #@! TF.GenerationSoftware,Kicad,Pcbnew,7.0.9
; #@! TF.FileFunction,MixedPlating,1,4
FMAT,2
METRIC
; #@! TA.AperFunction,Plated,PTH,ComponentDrill
T1C0.200
; #@! TA.AperFunction,Plated,PTH,ViaDrill
T2C0.400
; #@! TA.AperFunction,Plated,PTH,ComponentDrill
T3C0.800
; #@! TA.AperFunction,Plated,PTH,ComponentDrill
T4C0.890
; #@! TA.AperFunction,Plated,PTH,ComponentDrill
T5C0.900
; #@! TA.AperFunction,Plated,PTH,ComponentDrill
T6C0.950
; #@! TA.AperFunction,Plated,PTH,ComponentDrill
T7C1.000
; #@! TA.AperFunction,Plated,PTH,ComponentDrill
T8C1.600
; #@! TA.AperFunction,NonPlated,NPTH,ComponentDrill
T9C3.250
%
G90
G05
T1
X183.62Y-96.752
X183.62Y-97.952
X183.62Y-99.152
X183.62Y-100.352
X184.82Y-96.752
X184.82Y-97.952
X184.82Y-99.152
X184.82Y-100.352
X186.02Y-96.752
X186.02Y-97.952
X186.02Y-99.152
X186.02Y-100.352
X187.22Y-96.752
X187.22Y-97.952
X187.22Y-99.152
X187.22Y-100.352
T2
X143.539Y-102.397
X145.342Y-80.856
X148.844Y-76.708
X153.162Y-110.744
X153.912Y-97.02
X154.314Y-93.233
X154.668Y-98.796
X154.755Y-92.265
X155.039Y-97.45
X155.045Y-101.282
X155.424Y-91.463
X157.734Y-76.962
X157.734Y-77.978
X157.764Y-95.914
X157.772Y-105.524
X158.125Y-102.193
X158.75Y-76.962
X158.75Y-77.978
X159.004Y-105.952
X159.032Y-103.88
X159.077Y-101.748
X159.592Y-102.587
X159.766Y-76.962
X160.197Y-101.009
X160.782Y-76.962
X160.791Y-94.751
X161.26Y-98.913
X161.544Y-101.6
X161.738Y-99.837
X162.072Y-109.642
X162.306Y-100.846
X162.306Y-103.632
X163.166Y-110.392
X163.645Y-111.259
X163.824Y-98.504
X163.858Y-109.631
X164.032Y-113.823
X164.084Y-83.058
X164.153Y-101.337
X164.319Y-106.064
X164.338Y-94.488
X164.665Y-100.335
X164.736Y-110.201
X164.957Y-111.871
X165.374Y-103.168
X166.102Y-97.582
X166.624Y-117.856
X167.873Y-95.791
X168.402Y-100.076
X168.532Y-106.45
X168.613Y-96.977
X169.418Y-81.788
X169.888Y-97.654
X170.069Y-96.614
X170.434Y-83.058
X171.704Y-92.202
X171.958Y-113.03
X172.72Y-93.472
X173.482Y-111.252
X173.99Y-96.774
X173.99Y-104.14
X174.752Y-98.517
X174.896Y-99.484
X175.026Y-102.779
X176.273Y-89.347
X176.53Y-109.474
X176.975Y-102.194
X177.649Y-102.865
X177.812Y-91.199
X178.054Y-89.662
X178.054Y-104.648
X178.063Y-95.081
X178.562Y-85.344
X178.602Y-102.868
X180.192Y-81.837
X180.274Y-104.215
X180.907Y-92.26
X181.052Y-96.012
X181.193Y-102.725
X182.416Y-109.029
X182.424Y-102.857
X182.825Y-94.185
X183.642Y-84.582
X185.039Y-91.365
X185.22Y-102.546
X185.674Y-113.03
X187.232Y-101.765
X188.364Y-115.824
X189.23Y-111.252
X189.334Y-96.624
X189.44Y-97.937
X189.577Y-100.899
X189.759Y-101.851
X189.785Y-99.241
X190.136Y-105.21
X190.246Y-90.17
X190.5Y-71.628
X191.008Y-83.312
X191.146Y-103.513
X191.183Y-91.096
X192.627Y-88.392
X192.993Y-93.222
X194.056Y-94.085
X194.134Y-103.116
X194.411Y-80.592
X195.407Y-92.3
X196.067Y-103.575
X196.091Y-99.606
X196.57Y-73.662
X196.865Y-101.095
X198.628Y-81.788
X199.136Y-114.554
X199.361Y-92.727
X202.184Y-102.87
X202.438Y-112.776
X202.758Y-91.967
X202.946Y-76.708
X202.946Y-96.52
X203.2Y-86.614
X203.962Y-73.914
X203.962Y-98.552
X208.255Y-80.94
X208.581Y-98.272
X209.39Y-80.427
X209.55Y-103.378
X210.056Y-99.136
X210.152Y-100.155
X215.91Y-100.848
X218.694Y-112.522
T3
X161.68Y-84.302
X166.56Y-84.302
T4
X229.184Y-75.082
X229.184Y-85.192
X229.184Y-95.098
X229.184Y-105.207
X230.708Y-77.622
X230.708Y-87.732
X230.708Y-97.638
X230.708Y-107.747
T5
X216.916Y-76.962
X216.916Y-79.502
X216.916Y-82.042
X216.916Y-84.582
X216.916Y-96.977
X216.916Y-99.517
X216.916Y-102.057
X216.916Y-104.597
X219.456Y-78.232
X219.456Y-80.772
X219.456Y-83.312
X219.456Y-85.852
X219.456Y-98.247
X219.456Y-100.787
X219.456Y-103.327
X219.456Y-105.867
T6
X143.082Y-118.11
X144.526Y-103.886
X144.526Y-106.386
X144.526Y-108.886
X144.526Y-111.386
X144.543Y-90.29
X144.543Y-92.79
X144.543Y-95.29
X144.543Y-97.79
X145.582Y-118.11
X148.082Y-118.11
X150.582Y-118.11
X156.584Y-118.11
X159.084Y-118.11
X161.584Y-118.11
X164.084Y-118.11
X169.712Y-68.343
X170.3Y-118.11
X172.212Y-68.343
X172.8Y-118.11
X174.712Y-68.343
X175.3Y-118.11
X177.8Y-118.11
X180.3Y-118.11
X181.162Y-68.326
X183.662Y-68.326
X186.162Y-68.326
X186.302Y-118.11
X188.662Y-68.326
X188.802Y-118.11
X191.162Y-68.326
X191.302Y-118.11
X193.662Y-68.326
X193.802Y-118.11
X196.302Y-118.11
X199.684Y-68.326
X202.184Y-68.326
X202.264Y-118.11
X204.684Y-68.326
X204.764Y-118.11
X207.184Y-68.326
X207.264Y-118.11
X209.684Y-68.326
X209.764Y-118.11
X212.184Y-68.326
X212.264Y-118.11
X218.226Y-68.326
X218.52Y-118.093
X220.726Y-68.326
X221.02Y-118.093
X223.226Y-68.326
X223.52Y-118.093
X225.726Y-68.326
X226.02Y-118.093
X228.226Y-68.326
X228.52Y-118.093
X230.726Y-68.326
T7
X142.494Y-76.464
X142.494Y-79.004
X142.494Y-81.544
X142.494Y-84.084
X144.526Y-67.31
X147.026Y-67.31
T8
X222.758Y-73.533
X222.758Y-89.281
X222.758Y-93.548
X222.758Y-109.296
T9
X225.806Y-75.692
X225.806Y-87.122
X225.806Y-95.707
X225.806Y-107.137
T0
M30
