%TF.GenerationSoftware,KiCad,Pcbnew,8.0.5*%
%TF.CreationDate,2024-10-29T23:36:48+01:00*%
%TF.ProjectId,8In-8Out-LAN9252-only,38496e2d-384f-4757-942d-4c414e393235,rev?*%
%TF.SameCoordinates,Original*%
%TF.FileFunction,Legend,Bot*%
%TF.FilePolarity,Positive*%
%FSLAX46Y46*%
G04 Gerber Fmt 4.6, Leading zero omitted, Abs format (unit mm)*
G04 Created by KiCad (PCBNEW 8.0.5) date 2024-10-29 23:36:48*
%MOMM*%
%LPD*%
G01*
G04 APERTURE LIST*
%ADD10C,0.250000*%
%ADD11C,0.300000*%
%ADD12C,0.225000*%
%ADD13C,1.000000*%
G04 APERTURE END LIST*
D10*
X151743431Y-65018000D02*
X150981527Y-65018000D01*
X151362479Y-65589428D02*
X151362479Y-64446571D01*
X150552955Y-64232285D02*
X150505336Y-64160857D01*
X150505336Y-64160857D02*
X150410098Y-64089428D01*
X150410098Y-64089428D02*
X150172003Y-64089428D01*
X150172003Y-64089428D02*
X150076765Y-64160857D01*
X150076765Y-64160857D02*
X150029146Y-64232285D01*
X150029146Y-64232285D02*
X149981527Y-64375142D01*
X149981527Y-64375142D02*
X149981527Y-64518000D01*
X149981527Y-64518000D02*
X150029146Y-64732285D01*
X150029146Y-64732285D02*
X150600574Y-65589428D01*
X150600574Y-65589428D02*
X149981527Y-65589428D01*
X149124384Y-64589428D02*
X149124384Y-65589428D01*
X149362479Y-64018000D02*
X149600574Y-65089428D01*
X149600574Y-65089428D02*
X148981527Y-65089428D01*
X148743431Y-64089428D02*
X148410098Y-65589428D01*
X148410098Y-65589428D02*
X148076765Y-64089428D01*
X146457717Y-64160857D02*
X146552955Y-64089428D01*
X146552955Y-64089428D02*
X146695812Y-64089428D01*
X146695812Y-64089428D02*
X146838669Y-64160857D01*
X146838669Y-64160857D02*
X146933907Y-64303714D01*
X146933907Y-64303714D02*
X146981526Y-64446571D01*
X146981526Y-64446571D02*
X147029145Y-64732285D01*
X147029145Y-64732285D02*
X147029145Y-64946571D01*
X147029145Y-64946571D02*
X146981526Y-65232285D01*
X146981526Y-65232285D02*
X146933907Y-65375142D01*
X146933907Y-65375142D02*
X146838669Y-65518000D01*
X146838669Y-65518000D02*
X146695812Y-65589428D01*
X146695812Y-65589428D02*
X146600574Y-65589428D01*
X146600574Y-65589428D02*
X146457717Y-65518000D01*
X146457717Y-65518000D02*
X146410098Y-65446571D01*
X146410098Y-65446571D02*
X146410098Y-64946571D01*
X146410098Y-64946571D02*
X146600574Y-64946571D01*
X145981526Y-64589428D02*
X145981526Y-65589428D01*
X145981526Y-64732285D02*
X145933907Y-64660857D01*
X145933907Y-64660857D02*
X145838669Y-64589428D01*
X145838669Y-64589428D02*
X145695812Y-64589428D01*
X145695812Y-64589428D02*
X145600574Y-64660857D01*
X145600574Y-64660857D02*
X145552955Y-64803714D01*
X145552955Y-64803714D02*
X145552955Y-65589428D01*
X144648193Y-65589428D02*
X144648193Y-64089428D01*
X144648193Y-65518000D02*
X144743431Y-65589428D01*
X144743431Y-65589428D02*
X144933907Y-65589428D01*
X144933907Y-65589428D02*
X145029145Y-65518000D01*
X145029145Y-65518000D02*
X145076764Y-65446571D01*
X145076764Y-65446571D02*
X145124383Y-65303714D01*
X145124383Y-65303714D02*
X145124383Y-64875142D01*
X145124383Y-64875142D02*
X145076764Y-64732285D01*
X145076764Y-64732285D02*
X145029145Y-64660857D01*
X145029145Y-64660857D02*
X144933907Y-64589428D01*
X144933907Y-64589428D02*
X144743431Y-64589428D01*
X144743431Y-64589428D02*
X144648193Y-64660857D01*
D11*
X200240441Y-113582131D02*
X199740441Y-113582131D01*
X199657108Y-114629750D02*
X200371393Y-114629750D01*
X200371393Y-114629750D02*
X200121393Y-112629750D01*
X200121393Y-112629750D02*
X199407108Y-112629750D01*
X198371393Y-114629750D02*
X198240441Y-113582131D01*
X198240441Y-113582131D02*
X198288060Y-113391654D01*
X198288060Y-113391654D02*
X198419012Y-113296416D01*
X198419012Y-113296416D02*
X198704727Y-113296416D01*
X198704727Y-113296416D02*
X198859489Y-113391654D01*
X198359489Y-114534512D02*
X198514250Y-114629750D01*
X198514250Y-114629750D02*
X198871393Y-114629750D01*
X198871393Y-114629750D02*
X199002346Y-114534512D01*
X199002346Y-114534512D02*
X199049965Y-114344035D01*
X199049965Y-114344035D02*
X199026155Y-114153559D01*
X199026155Y-114153559D02*
X198930917Y-113963083D01*
X198930917Y-113963083D02*
X198776155Y-113867845D01*
X198776155Y-113867845D02*
X198419012Y-113867845D01*
X198419012Y-113867845D02*
X198264250Y-113772607D01*
X197716631Y-114534512D02*
X197585679Y-114629750D01*
X197585679Y-114629750D02*
X197299965Y-114629750D01*
X197299965Y-114629750D02*
X197145203Y-114534512D01*
X197145203Y-114534512D02*
X197049965Y-114344035D01*
X197049965Y-114344035D02*
X197038060Y-114248797D01*
X197038060Y-114248797D02*
X197085679Y-114058321D01*
X197085679Y-114058321D02*
X197216631Y-113963083D01*
X197216631Y-113963083D02*
X197430917Y-113963083D01*
X197430917Y-113963083D02*
X197561869Y-113867845D01*
X197561869Y-113867845D02*
X197609488Y-113677369D01*
X197609488Y-113677369D02*
X197597584Y-113582131D01*
X197597584Y-113582131D02*
X197502346Y-113391654D01*
X197502346Y-113391654D02*
X197347584Y-113296416D01*
X197347584Y-113296416D02*
X197133298Y-113296416D01*
X197133298Y-113296416D02*
X197002346Y-113391654D01*
X195859488Y-114534512D02*
X196014250Y-114629750D01*
X196014250Y-114629750D02*
X196299964Y-114629750D01*
X196299964Y-114629750D02*
X196430917Y-114534512D01*
X196430917Y-114534512D02*
X196478536Y-114344035D01*
X196478536Y-114344035D02*
X196383298Y-113582131D01*
X196383298Y-113582131D02*
X196288060Y-113391654D01*
X196288060Y-113391654D02*
X196133298Y-113296416D01*
X196133298Y-113296416D02*
X195847583Y-113296416D01*
X195847583Y-113296416D02*
X195716631Y-113391654D01*
X195716631Y-113391654D02*
X195669012Y-113582131D01*
X195669012Y-113582131D02*
X195692821Y-113772607D01*
X195692821Y-113772607D02*
X196430917Y-113963083D01*
X195157107Y-114629750D02*
X194990441Y-113296416D01*
X195038060Y-113677369D02*
X194942822Y-113486892D01*
X194942822Y-113486892D02*
X194859488Y-113391654D01*
X194859488Y-113391654D02*
X194704726Y-113296416D01*
X194704726Y-113296416D02*
X194561869Y-113296416D01*
X193347584Y-114439273D02*
X193430917Y-114534512D01*
X193430917Y-114534512D02*
X193657108Y-114629750D01*
X193657108Y-114629750D02*
X193799965Y-114629750D01*
X193799965Y-114629750D02*
X194002346Y-114534512D01*
X194002346Y-114534512D02*
X194121394Y-114344035D01*
X194121394Y-114344035D02*
X194169013Y-114153559D01*
X194169013Y-114153559D02*
X194192822Y-113772607D01*
X194192822Y-113772607D02*
X194157108Y-113486892D01*
X194157108Y-113486892D02*
X194038060Y-113105940D01*
X194038060Y-113105940D02*
X193942822Y-112915464D01*
X193942822Y-112915464D02*
X193776155Y-112724988D01*
X193776155Y-112724988D02*
X193549965Y-112629750D01*
X193549965Y-112629750D02*
X193407108Y-112629750D01*
X193407108Y-112629750D02*
X193204727Y-112724988D01*
X193204727Y-112724988D02*
X193145203Y-112820226D01*
X192728536Y-114058321D02*
X192014251Y-114058321D01*
X192942822Y-114629750D02*
X192192822Y-112629750D01*
X192192822Y-112629750D02*
X191942822Y-114629750D01*
X191407108Y-112629750D02*
X190549965Y-112629750D01*
X191228537Y-114629750D02*
X190978537Y-112629750D01*
X188799966Y-113486892D02*
X188930918Y-113391654D01*
X188930918Y-113391654D02*
X188990442Y-113296416D01*
X188990442Y-113296416D02*
X189038061Y-113105940D01*
X189038061Y-113105940D02*
X189026156Y-113010702D01*
X189026156Y-113010702D02*
X188930918Y-112820226D01*
X188930918Y-112820226D02*
X188847585Y-112724988D01*
X188847585Y-112724988D02*
X188692823Y-112629750D01*
X188692823Y-112629750D02*
X188407108Y-112629750D01*
X188407108Y-112629750D02*
X188276156Y-112724988D01*
X188276156Y-112724988D02*
X188216632Y-112820226D01*
X188216632Y-112820226D02*
X188169013Y-113010702D01*
X188169013Y-113010702D02*
X188180918Y-113105940D01*
X188180918Y-113105940D02*
X188276156Y-113296416D01*
X188276156Y-113296416D02*
X188359489Y-113391654D01*
X188359489Y-113391654D02*
X188514251Y-113486892D01*
X188514251Y-113486892D02*
X188799966Y-113486892D01*
X188799966Y-113486892D02*
X188954727Y-113582131D01*
X188954727Y-113582131D02*
X189038061Y-113677369D01*
X189038061Y-113677369D02*
X189133299Y-113867845D01*
X189133299Y-113867845D02*
X189180918Y-114248797D01*
X189180918Y-114248797D02*
X189133299Y-114439273D01*
X189133299Y-114439273D02*
X189073775Y-114534512D01*
X189073775Y-114534512D02*
X188942823Y-114629750D01*
X188942823Y-114629750D02*
X188657108Y-114629750D01*
X188657108Y-114629750D02*
X188502347Y-114534512D01*
X188502347Y-114534512D02*
X188419013Y-114439273D01*
X188419013Y-114439273D02*
X188323775Y-114248797D01*
X188323775Y-114248797D02*
X188276156Y-113867845D01*
X188276156Y-113867845D02*
X188323775Y-113677369D01*
X188323775Y-113677369D02*
X188383299Y-113582131D01*
X188383299Y-113582131D02*
X188514251Y-113486892D01*
X186585680Y-114629750D02*
X186335680Y-112629750D01*
X185704728Y-113296416D02*
X185871394Y-114629750D01*
X185728537Y-113486892D02*
X185645204Y-113391654D01*
X185645204Y-113391654D02*
X185490442Y-113296416D01*
X185490442Y-113296416D02*
X185276156Y-113296416D01*
X185276156Y-113296416D02*
X185145204Y-113391654D01*
X185145204Y-113391654D02*
X185097585Y-113582131D01*
X185097585Y-113582131D02*
X185228537Y-114629750D01*
X183276156Y-113867845D02*
X182133299Y-113867845D01*
X182799966Y-114629750D02*
X182609490Y-113105940D01*
X180014252Y-113486892D02*
X180145204Y-113391654D01*
X180145204Y-113391654D02*
X180204728Y-113296416D01*
X180204728Y-113296416D02*
X180252347Y-113105940D01*
X180252347Y-113105940D02*
X180240442Y-113010702D01*
X180240442Y-113010702D02*
X180145204Y-112820226D01*
X180145204Y-112820226D02*
X180061871Y-112724988D01*
X180061871Y-112724988D02*
X179907109Y-112629750D01*
X179907109Y-112629750D02*
X179621394Y-112629750D01*
X179621394Y-112629750D02*
X179490442Y-112724988D01*
X179490442Y-112724988D02*
X179430918Y-112820226D01*
X179430918Y-112820226D02*
X179383299Y-113010702D01*
X179383299Y-113010702D02*
X179395204Y-113105940D01*
X179395204Y-113105940D02*
X179490442Y-113296416D01*
X179490442Y-113296416D02*
X179573775Y-113391654D01*
X179573775Y-113391654D02*
X179728537Y-113486892D01*
X179728537Y-113486892D02*
X180014252Y-113486892D01*
X180014252Y-113486892D02*
X180169013Y-113582131D01*
X180169013Y-113582131D02*
X180252347Y-113677369D01*
X180252347Y-113677369D02*
X180347585Y-113867845D01*
X180347585Y-113867845D02*
X180395204Y-114248797D01*
X180395204Y-114248797D02*
X180347585Y-114439273D01*
X180347585Y-114439273D02*
X180288061Y-114534512D01*
X180288061Y-114534512D02*
X180157109Y-114629750D01*
X180157109Y-114629750D02*
X179871394Y-114629750D01*
X179871394Y-114629750D02*
X179716633Y-114534512D01*
X179716633Y-114534512D02*
X179633299Y-114439273D01*
X179633299Y-114439273D02*
X179538061Y-114248797D01*
X179538061Y-114248797D02*
X179490442Y-113867845D01*
X179490442Y-113867845D02*
X179538061Y-113677369D01*
X179538061Y-113677369D02*
X179597585Y-113582131D01*
X179597585Y-113582131D02*
X179728537Y-113486892D01*
X177264252Y-112629750D02*
X176978538Y-112629750D01*
X176978538Y-112629750D02*
X176847585Y-112724988D01*
X176847585Y-112724988D02*
X176728538Y-112915464D01*
X176728538Y-112915464D02*
X176704728Y-113296416D01*
X176704728Y-113296416D02*
X176788062Y-113963083D01*
X176788062Y-113963083D02*
X176907109Y-114344035D01*
X176907109Y-114344035D02*
X177073776Y-114534512D01*
X177073776Y-114534512D02*
X177228538Y-114629750D01*
X177228538Y-114629750D02*
X177514252Y-114629750D01*
X177514252Y-114629750D02*
X177645205Y-114534512D01*
X177645205Y-114534512D02*
X177764252Y-114344035D01*
X177764252Y-114344035D02*
X177788062Y-113963083D01*
X177788062Y-113963083D02*
X177704728Y-113296416D01*
X177704728Y-113296416D02*
X177585681Y-112915464D01*
X177585681Y-112915464D02*
X177419014Y-112724988D01*
X177419014Y-112724988D02*
X177264252Y-112629750D01*
X175419014Y-113296416D02*
X175585680Y-114629750D01*
X176061871Y-113296416D02*
X176192823Y-114344035D01*
X176192823Y-114344035D02*
X176145204Y-114534512D01*
X176145204Y-114534512D02*
X176014252Y-114629750D01*
X176014252Y-114629750D02*
X175799966Y-114629750D01*
X175799966Y-114629750D02*
X175645204Y-114534512D01*
X175645204Y-114534512D02*
X175561871Y-114439273D01*
X174919013Y-113296416D02*
X174347585Y-113296416D01*
X174621394Y-112629750D02*
X174835680Y-114344035D01*
X174835680Y-114344035D02*
X174788061Y-114534512D01*
X174788061Y-114534512D02*
X174657109Y-114629750D01*
X174657109Y-114629750D02*
X174514252Y-114629750D01*
X172871394Y-114629750D02*
X172621394Y-112629750D01*
X172621394Y-112629750D02*
X172264252Y-112629750D01*
X172264252Y-112629750D02*
X172061871Y-112724988D01*
X172061871Y-112724988D02*
X171942823Y-112915464D01*
X171942823Y-112915464D02*
X171895204Y-113105940D01*
X171895204Y-113105940D02*
X171871394Y-113486892D01*
X171871394Y-113486892D02*
X171907109Y-113772607D01*
X171907109Y-113772607D02*
X172026156Y-114153559D01*
X172026156Y-114153559D02*
X172121394Y-114344035D01*
X172121394Y-114344035D02*
X172288061Y-114534512D01*
X172288061Y-114534512D02*
X172514252Y-114629750D01*
X172514252Y-114629750D02*
X172871394Y-114629750D01*
X171371394Y-114629750D02*
X171204728Y-113296416D01*
X171121394Y-112629750D02*
X171204728Y-112724988D01*
X171204728Y-112724988D02*
X171145204Y-112820226D01*
X171145204Y-112820226D02*
X171061871Y-112724988D01*
X171061871Y-112724988D02*
X171121394Y-112629750D01*
X171121394Y-112629750D02*
X171145204Y-112820226D01*
X169847585Y-113296416D02*
X170049966Y-114915464D01*
X170049966Y-114915464D02*
X170145204Y-115105940D01*
X170145204Y-115105940D02*
X170228537Y-115201178D01*
X170228537Y-115201178D02*
X170383299Y-115296416D01*
X170383299Y-115296416D02*
X170597585Y-115296416D01*
X170597585Y-115296416D02*
X170728537Y-115201178D01*
X170002347Y-114534512D02*
X170157108Y-114629750D01*
X170157108Y-114629750D02*
X170442823Y-114629750D01*
X170442823Y-114629750D02*
X170573775Y-114534512D01*
X170573775Y-114534512D02*
X170633299Y-114439273D01*
X170633299Y-114439273D02*
X170680918Y-114248797D01*
X170680918Y-114248797D02*
X170609489Y-113677369D01*
X170609489Y-113677369D02*
X170514251Y-113486892D01*
X170514251Y-113486892D02*
X170430918Y-113391654D01*
X170430918Y-113391654D02*
X170276156Y-113296416D01*
X170276156Y-113296416D02*
X169990442Y-113296416D01*
X169990442Y-113296416D02*
X169859489Y-113391654D01*
X169299965Y-114629750D02*
X169133299Y-113296416D01*
X169049965Y-112629750D02*
X169133299Y-112724988D01*
X169133299Y-112724988D02*
X169073775Y-112820226D01*
X169073775Y-112820226D02*
X168990442Y-112724988D01*
X168990442Y-112724988D02*
X169049965Y-112629750D01*
X169049965Y-112629750D02*
X169073775Y-112820226D01*
X168633298Y-113296416D02*
X168061870Y-113296416D01*
X168335679Y-112629750D02*
X168549965Y-114344035D01*
X168549965Y-114344035D02*
X168502346Y-114534512D01*
X168502346Y-114534512D02*
X168371394Y-114629750D01*
X168371394Y-114629750D02*
X168228537Y-114629750D01*
X167085679Y-114629750D02*
X166954727Y-113582131D01*
X166954727Y-113582131D02*
X167002346Y-113391654D01*
X167002346Y-113391654D02*
X167133298Y-113296416D01*
X167133298Y-113296416D02*
X167419013Y-113296416D01*
X167419013Y-113296416D02*
X167573775Y-113391654D01*
X167073775Y-114534512D02*
X167228536Y-114629750D01*
X167228536Y-114629750D02*
X167585679Y-114629750D01*
X167585679Y-114629750D02*
X167716632Y-114534512D01*
X167716632Y-114534512D02*
X167764251Y-114344035D01*
X167764251Y-114344035D02*
X167740441Y-114153559D01*
X167740441Y-114153559D02*
X167645203Y-113963083D01*
X167645203Y-113963083D02*
X167490441Y-113867845D01*
X167490441Y-113867845D02*
X167133298Y-113867845D01*
X167133298Y-113867845D02*
X166978536Y-113772607D01*
X166157108Y-114629750D02*
X166288060Y-114534512D01*
X166288060Y-114534512D02*
X166335679Y-114344035D01*
X166335679Y-114344035D02*
X166121393Y-112629750D01*
X164442822Y-114629750D02*
X164192822Y-112629750D01*
X163192822Y-112629750D02*
X162907108Y-112629750D01*
X162907108Y-112629750D02*
X162776155Y-112724988D01*
X162776155Y-112724988D02*
X162657108Y-112915464D01*
X162657108Y-112915464D02*
X162633298Y-113296416D01*
X162633298Y-113296416D02*
X162716632Y-113963083D01*
X162716632Y-113963083D02*
X162835679Y-114344035D01*
X162835679Y-114344035D02*
X163002346Y-114534512D01*
X163002346Y-114534512D02*
X163157108Y-114629750D01*
X163157108Y-114629750D02*
X163442822Y-114629750D01*
X163442822Y-114629750D02*
X163573775Y-114534512D01*
X163573775Y-114534512D02*
X163692822Y-114344035D01*
X163692822Y-114344035D02*
X163716632Y-113963083D01*
X163716632Y-113963083D02*
X163633298Y-113296416D01*
X163633298Y-113296416D02*
X163514251Y-112915464D01*
X163514251Y-112915464D02*
X163347584Y-112724988D01*
X163347584Y-112724988D02*
X163192822Y-112629750D01*
X200371393Y-117849638D02*
X200121393Y-115849638D01*
X200121393Y-115849638D02*
X199799965Y-117278209D01*
X199799965Y-117278209D02*
X199121393Y-115849638D01*
X199121393Y-115849638D02*
X199371393Y-117849638D01*
X198073774Y-117754400D02*
X198228536Y-117849638D01*
X198228536Y-117849638D02*
X198514250Y-117849638D01*
X198514250Y-117849638D02*
X198645203Y-117754400D01*
X198645203Y-117754400D02*
X198692822Y-117563923D01*
X198692822Y-117563923D02*
X198597584Y-116802019D01*
X198597584Y-116802019D02*
X198502346Y-116611542D01*
X198502346Y-116611542D02*
X198347584Y-116516304D01*
X198347584Y-116516304D02*
X198061869Y-116516304D01*
X198061869Y-116516304D02*
X197930917Y-116611542D01*
X197930917Y-116611542D02*
X197883298Y-116802019D01*
X197883298Y-116802019D02*
X197907107Y-116992495D01*
X197907107Y-116992495D02*
X198645203Y-117182971D01*
X197419012Y-116516304D02*
X196847584Y-116516304D01*
X197121393Y-115849638D02*
X197335679Y-117563923D01*
X197335679Y-117563923D02*
X197288060Y-117754400D01*
X197288060Y-117754400D02*
X197157108Y-117849638D01*
X197157108Y-117849638D02*
X197014251Y-117849638D01*
X195871393Y-117849638D02*
X195740441Y-116802019D01*
X195740441Y-116802019D02*
X195788060Y-116611542D01*
X195788060Y-116611542D02*
X195919012Y-116516304D01*
X195919012Y-116516304D02*
X196204727Y-116516304D01*
X196204727Y-116516304D02*
X196359489Y-116611542D01*
X195859489Y-117754400D02*
X196014250Y-117849638D01*
X196014250Y-117849638D02*
X196371393Y-117849638D01*
X196371393Y-117849638D02*
X196502346Y-117754400D01*
X196502346Y-117754400D02*
X196549965Y-117563923D01*
X196549965Y-117563923D02*
X196526155Y-117373447D01*
X196526155Y-117373447D02*
X196430917Y-117182971D01*
X196430917Y-117182971D02*
X196276155Y-117087733D01*
X196276155Y-117087733D02*
X195919012Y-117087733D01*
X195919012Y-117087733D02*
X195764250Y-116992495D01*
X194942822Y-117849638D02*
X195073774Y-117754400D01*
X195073774Y-117754400D02*
X195121393Y-117563923D01*
X195121393Y-117563923D02*
X194907107Y-115849638D01*
X194371393Y-117849638D02*
X194121393Y-115849638D01*
X194121393Y-115849638D02*
X193799965Y-117278209D01*
X193799965Y-117278209D02*
X193121393Y-115849638D01*
X193121393Y-115849638D02*
X193371393Y-117849638D01*
X191847584Y-116516304D02*
X192014250Y-117849638D01*
X192490441Y-116516304D02*
X192621393Y-117563923D01*
X192621393Y-117563923D02*
X192573774Y-117754400D01*
X192573774Y-117754400D02*
X192442822Y-117849638D01*
X192442822Y-117849638D02*
X192228536Y-117849638D01*
X192228536Y-117849638D02*
X192073774Y-117754400D01*
X192073774Y-117754400D02*
X191990441Y-117659161D01*
X191359488Y-117754400D02*
X191228536Y-117849638D01*
X191228536Y-117849638D02*
X190942822Y-117849638D01*
X190942822Y-117849638D02*
X190788060Y-117754400D01*
X190788060Y-117754400D02*
X190692822Y-117563923D01*
X190692822Y-117563923D02*
X190680917Y-117468685D01*
X190680917Y-117468685D02*
X190728536Y-117278209D01*
X190728536Y-117278209D02*
X190859488Y-117182971D01*
X190859488Y-117182971D02*
X191073774Y-117182971D01*
X191073774Y-117182971D02*
X191204726Y-117087733D01*
X191204726Y-117087733D02*
X191252345Y-116897257D01*
X191252345Y-116897257D02*
X191240441Y-116802019D01*
X191240441Y-116802019D02*
X191145203Y-116611542D01*
X191145203Y-116611542D02*
X190990441Y-116516304D01*
X190990441Y-116516304D02*
X190776155Y-116516304D01*
X190776155Y-116516304D02*
X190645203Y-116611542D01*
X190085678Y-117849638D02*
X189919012Y-116516304D01*
X189835678Y-115849638D02*
X189919012Y-115944876D01*
X189919012Y-115944876D02*
X189859488Y-116040114D01*
X189859488Y-116040114D02*
X189776155Y-115944876D01*
X189776155Y-115944876D02*
X189835678Y-115849638D01*
X189835678Y-115849638D02*
X189859488Y-116040114D01*
X189204726Y-116516304D02*
X189371392Y-117849638D01*
X189228535Y-116706780D02*
X189145202Y-116611542D01*
X189145202Y-116611542D02*
X188990440Y-116516304D01*
X188990440Y-116516304D02*
X188776154Y-116516304D01*
X188776154Y-116516304D02*
X188645202Y-116611542D01*
X188645202Y-116611542D02*
X188597583Y-116802019D01*
X188597583Y-116802019D02*
X188728535Y-117849638D01*
X187204726Y-116516304D02*
X187407107Y-118135352D01*
X187407107Y-118135352D02*
X187502345Y-118325828D01*
X187502345Y-118325828D02*
X187585678Y-118421066D01*
X187585678Y-118421066D02*
X187740440Y-118516304D01*
X187740440Y-118516304D02*
X187954726Y-118516304D01*
X187954726Y-118516304D02*
X188085678Y-118421066D01*
X187359488Y-117754400D02*
X187514249Y-117849638D01*
X187514249Y-117849638D02*
X187799964Y-117849638D01*
X187799964Y-117849638D02*
X187930916Y-117754400D01*
X187930916Y-117754400D02*
X187990440Y-117659161D01*
X187990440Y-117659161D02*
X188038059Y-117468685D01*
X188038059Y-117468685D02*
X187966630Y-116897257D01*
X187966630Y-116897257D02*
X187871392Y-116706780D01*
X187871392Y-116706780D02*
X187788059Y-116611542D01*
X187788059Y-116611542D02*
X187633297Y-116516304D01*
X187633297Y-116516304D02*
X187347583Y-116516304D01*
X187347583Y-116516304D02*
X187216630Y-116611542D01*
X186716630Y-117754400D02*
X186585678Y-117849638D01*
X186585678Y-117849638D02*
X186299964Y-117849638D01*
X186299964Y-117849638D02*
X186145202Y-117754400D01*
X186145202Y-117754400D02*
X186049964Y-117563923D01*
X186049964Y-117563923D02*
X186038059Y-117468685D01*
X186038059Y-117468685D02*
X186085678Y-117278209D01*
X186085678Y-117278209D02*
X186216630Y-117182971D01*
X186216630Y-117182971D02*
X186430916Y-117182971D01*
X186430916Y-117182971D02*
X186561868Y-117087733D01*
X186561868Y-117087733D02*
X186609487Y-116897257D01*
X186609487Y-116897257D02*
X186597583Y-116802019D01*
X186597583Y-116802019D02*
X186502345Y-116611542D01*
X186502345Y-116611542D02*
X186347583Y-116516304D01*
X186347583Y-116516304D02*
X186133297Y-116516304D01*
X186133297Y-116516304D02*
X186002345Y-116611542D01*
X184299963Y-117849638D02*
X184049963Y-115849638D01*
X184049963Y-115849638D02*
X183442821Y-117849638D01*
X183442821Y-117849638D02*
X183192821Y-115849638D01*
X182514249Y-117849638D02*
X182645201Y-117754400D01*
X182645201Y-117754400D02*
X182704725Y-117659161D01*
X182704725Y-117659161D02*
X182752344Y-117468685D01*
X182752344Y-117468685D02*
X182680915Y-116897257D01*
X182680915Y-116897257D02*
X182585677Y-116706780D01*
X182585677Y-116706780D02*
X182502344Y-116611542D01*
X182502344Y-116611542D02*
X182347582Y-116516304D01*
X182347582Y-116516304D02*
X182133296Y-116516304D01*
X182133296Y-116516304D02*
X182002344Y-116611542D01*
X182002344Y-116611542D02*
X181942820Y-116706780D01*
X181942820Y-116706780D02*
X181895201Y-116897257D01*
X181895201Y-116897257D02*
X181966630Y-117468685D01*
X181966630Y-117468685D02*
X182061868Y-117659161D01*
X182061868Y-117659161D02*
X182145201Y-117754400D01*
X182145201Y-117754400D02*
X182299963Y-117849638D01*
X182299963Y-117849638D02*
X182514249Y-117849638D01*
X181347582Y-116516304D02*
X181157106Y-117849638D01*
X181157106Y-117849638D02*
X180633296Y-116516304D01*
X179645201Y-117754400D02*
X179799963Y-117849638D01*
X179799963Y-117849638D02*
X180085677Y-117849638D01*
X180085677Y-117849638D02*
X180216630Y-117754400D01*
X180216630Y-117754400D02*
X180264249Y-117563923D01*
X180264249Y-117563923D02*
X180169011Y-116802019D01*
X180169011Y-116802019D02*
X180073773Y-116611542D01*
X180073773Y-116611542D02*
X179919011Y-116516304D01*
X179919011Y-116516304D02*
X179633296Y-116516304D01*
X179633296Y-116516304D02*
X179502344Y-116611542D01*
X179502344Y-116611542D02*
X179454725Y-116802019D01*
X179454725Y-116802019D02*
X179478534Y-116992495D01*
X179478534Y-116992495D02*
X180216630Y-117182971D01*
X178942820Y-117849638D02*
X178776154Y-116516304D01*
X178799963Y-116706780D02*
X178716630Y-116611542D01*
X178716630Y-116611542D02*
X178561868Y-116516304D01*
X178561868Y-116516304D02*
X178347582Y-116516304D01*
X178347582Y-116516304D02*
X178216630Y-116611542D01*
X178216630Y-116611542D02*
X178169011Y-116802019D01*
X178169011Y-116802019D02*
X178299963Y-117849638D01*
X178169011Y-116802019D02*
X178073773Y-116611542D01*
X178073773Y-116611542D02*
X177919011Y-116516304D01*
X177919011Y-116516304D02*
X177704725Y-116516304D01*
X177704725Y-116516304D02*
X177573773Y-116611542D01*
X177573773Y-116611542D02*
X177526154Y-116802019D01*
X177526154Y-116802019D02*
X177657106Y-117849638D01*
X176942820Y-117849638D02*
X176692820Y-115849638D01*
X176788059Y-116611542D02*
X176633297Y-116516304D01*
X176633297Y-116516304D02*
X176347582Y-116516304D01*
X176347582Y-116516304D02*
X176216630Y-116611542D01*
X176216630Y-116611542D02*
X176157106Y-116706780D01*
X176157106Y-116706780D02*
X176109487Y-116897257D01*
X176109487Y-116897257D02*
X176180916Y-117468685D01*
X176180916Y-117468685D02*
X176276154Y-117659161D01*
X176276154Y-117659161D02*
X176359487Y-117754400D01*
X176359487Y-117754400D02*
X176514249Y-117849638D01*
X176514249Y-117849638D02*
X176799963Y-117849638D01*
X176799963Y-117849638D02*
X176930916Y-117754400D01*
X175002344Y-117754400D02*
X175157106Y-117849638D01*
X175157106Y-117849638D02*
X175442820Y-117849638D01*
X175442820Y-117849638D02*
X175573773Y-117754400D01*
X175573773Y-117754400D02*
X175621392Y-117563923D01*
X175621392Y-117563923D02*
X175526154Y-116802019D01*
X175526154Y-116802019D02*
X175430916Y-116611542D01*
X175430916Y-116611542D02*
X175276154Y-116516304D01*
X175276154Y-116516304D02*
X174990439Y-116516304D01*
X174990439Y-116516304D02*
X174859487Y-116611542D01*
X174859487Y-116611542D02*
X174811868Y-116802019D01*
X174811868Y-116802019D02*
X174835677Y-116992495D01*
X174835677Y-116992495D02*
X175573773Y-117182971D01*
X174299963Y-117849638D02*
X174133297Y-116516304D01*
X174180916Y-116897257D02*
X174085678Y-116706780D01*
X174085678Y-116706780D02*
X174002344Y-116611542D01*
X174002344Y-116611542D02*
X173847582Y-116516304D01*
X173847582Y-116516304D02*
X173704725Y-116516304D01*
X172073774Y-116040114D02*
X171990440Y-115944876D01*
X171990440Y-115944876D02*
X171835678Y-115849638D01*
X171835678Y-115849638D02*
X171478535Y-115849638D01*
X171478535Y-115849638D02*
X171347583Y-115944876D01*
X171347583Y-115944876D02*
X171288059Y-116040114D01*
X171288059Y-116040114D02*
X171240440Y-116230590D01*
X171240440Y-116230590D02*
X171264250Y-116421066D01*
X171264250Y-116421066D02*
X171371393Y-116706780D01*
X171371393Y-116706780D02*
X172371393Y-117849638D01*
X172371393Y-117849638D02*
X171442821Y-117849638D01*
X170264250Y-115849638D02*
X170121393Y-115849638D01*
X170121393Y-115849638D02*
X169990441Y-115944876D01*
X169990441Y-115944876D02*
X169930917Y-116040114D01*
X169930917Y-116040114D02*
X169883298Y-116230590D01*
X169883298Y-116230590D02*
X169859488Y-116611542D01*
X169859488Y-116611542D02*
X169919012Y-117087733D01*
X169919012Y-117087733D02*
X170038060Y-117468685D01*
X170038060Y-117468685D02*
X170133298Y-117659161D01*
X170133298Y-117659161D02*
X170216631Y-117754400D01*
X170216631Y-117754400D02*
X170371393Y-117849638D01*
X170371393Y-117849638D02*
X170514250Y-117849638D01*
X170514250Y-117849638D02*
X170645203Y-117754400D01*
X170645203Y-117754400D02*
X170704726Y-117659161D01*
X170704726Y-117659161D02*
X170752345Y-117468685D01*
X170752345Y-117468685D02*
X170776155Y-117087733D01*
X170776155Y-117087733D02*
X170716631Y-116611542D01*
X170716631Y-116611542D02*
X170597583Y-116230590D01*
X170597583Y-116230590D02*
X170502345Y-116040114D01*
X170502345Y-116040114D02*
X170419012Y-115944876D01*
X170419012Y-115944876D02*
X170264250Y-115849638D01*
X169216632Y-116040114D02*
X169133298Y-115944876D01*
X169133298Y-115944876D02*
X168978536Y-115849638D01*
X168978536Y-115849638D02*
X168621393Y-115849638D01*
X168621393Y-115849638D02*
X168490441Y-115944876D01*
X168490441Y-115944876D02*
X168430917Y-116040114D01*
X168430917Y-116040114D02*
X168383298Y-116230590D01*
X168383298Y-116230590D02*
X168407108Y-116421066D01*
X168407108Y-116421066D02*
X168514251Y-116706780D01*
X168514251Y-116706780D02*
X169514251Y-117849638D01*
X169514251Y-117849638D02*
X168585679Y-117849638D01*
X167133299Y-116516304D02*
X167299965Y-117849638D01*
X167395203Y-115754400D02*
X167930918Y-117182971D01*
X167930918Y-117182971D02*
X167002346Y-117182971D01*
D10*
X151219622Y-81305857D02*
X151314860Y-81234428D01*
X151314860Y-81234428D02*
X151457717Y-81234428D01*
X151457717Y-81234428D02*
X151600574Y-81305857D01*
X151600574Y-81305857D02*
X151695812Y-81448714D01*
X151695812Y-81448714D02*
X151743431Y-81591571D01*
X151743431Y-81591571D02*
X151791050Y-81877285D01*
X151791050Y-81877285D02*
X151791050Y-82091571D01*
X151791050Y-82091571D02*
X151743431Y-82377285D01*
X151743431Y-82377285D02*
X151695812Y-82520142D01*
X151695812Y-82520142D02*
X151600574Y-82663000D01*
X151600574Y-82663000D02*
X151457717Y-82734428D01*
X151457717Y-82734428D02*
X151362479Y-82734428D01*
X151362479Y-82734428D02*
X151219622Y-82663000D01*
X151219622Y-82663000D02*
X151172003Y-82591571D01*
X151172003Y-82591571D02*
X151172003Y-82091571D01*
X151172003Y-82091571D02*
X151362479Y-82091571D01*
X150743431Y-81734428D02*
X150743431Y-82734428D01*
X150743431Y-81877285D02*
X150695812Y-81805857D01*
X150695812Y-81805857D02*
X150600574Y-81734428D01*
X150600574Y-81734428D02*
X150457717Y-81734428D01*
X150457717Y-81734428D02*
X150362479Y-81805857D01*
X150362479Y-81805857D02*
X150314860Y-81948714D01*
X150314860Y-81948714D02*
X150314860Y-82734428D01*
X149410098Y-82734428D02*
X149410098Y-81234428D01*
X149410098Y-82663000D02*
X149505336Y-82734428D01*
X149505336Y-82734428D02*
X149695812Y-82734428D01*
X149695812Y-82734428D02*
X149791050Y-82663000D01*
X149791050Y-82663000D02*
X149838669Y-82591571D01*
X149838669Y-82591571D02*
X149886288Y-82448714D01*
X149886288Y-82448714D02*
X149886288Y-82020142D01*
X149886288Y-82020142D02*
X149838669Y-81877285D01*
X149838669Y-81877285D02*
X149791050Y-81805857D01*
X149791050Y-81805857D02*
X149695812Y-81734428D01*
X149695812Y-81734428D02*
X149505336Y-81734428D01*
X149505336Y-81734428D02*
X149410098Y-81805857D01*
X148172002Y-82163000D02*
X147410098Y-82163000D01*
X147791050Y-82734428D02*
X147791050Y-81591571D01*
X146457717Y-81234428D02*
X146933907Y-81234428D01*
X146933907Y-81234428D02*
X146981526Y-81948714D01*
X146981526Y-81948714D02*
X146933907Y-81877285D01*
X146933907Y-81877285D02*
X146838669Y-81805857D01*
X146838669Y-81805857D02*
X146600574Y-81805857D01*
X146600574Y-81805857D02*
X146505336Y-81877285D01*
X146505336Y-81877285D02*
X146457717Y-81948714D01*
X146457717Y-81948714D02*
X146410098Y-82091571D01*
X146410098Y-82091571D02*
X146410098Y-82448714D01*
X146410098Y-82448714D02*
X146457717Y-82591571D01*
X146457717Y-82591571D02*
X146505336Y-82663000D01*
X146505336Y-82663000D02*
X146600574Y-82734428D01*
X146600574Y-82734428D02*
X146838669Y-82734428D01*
X146838669Y-82734428D02*
X146933907Y-82663000D01*
X146933907Y-82663000D02*
X146981526Y-82591571D01*
X146124383Y-81234428D02*
X145791050Y-82734428D01*
X145791050Y-82734428D02*
X145457717Y-81234428D01*
D12*
X181457259Y-64090728D02*
X181285831Y-64090728D01*
X181285831Y-64090728D02*
X181200116Y-64162157D01*
X181200116Y-64162157D02*
X181114402Y-64305014D01*
X181114402Y-64305014D02*
X181071545Y-64590728D01*
X181071545Y-64590728D02*
X181071545Y-65090728D01*
X181071545Y-65090728D02*
X181114402Y-65376442D01*
X181114402Y-65376442D02*
X181200116Y-65519300D01*
X181200116Y-65519300D02*
X181285831Y-65590728D01*
X181285831Y-65590728D02*
X181457259Y-65590728D01*
X181457259Y-65590728D02*
X181542974Y-65519300D01*
X181542974Y-65519300D02*
X181628688Y-65376442D01*
X181628688Y-65376442D02*
X181671545Y-65090728D01*
X181671545Y-65090728D02*
X181671545Y-64590728D01*
X181671545Y-64590728D02*
X181628688Y-64305014D01*
X181628688Y-64305014D02*
X181542974Y-64162157D01*
X181542974Y-64162157D02*
X181457259Y-64090728D01*
X180300117Y-64590728D02*
X180300117Y-65590728D01*
X180514402Y-64019300D02*
X180728688Y-65090728D01*
X180728688Y-65090728D02*
X180171545Y-65090728D01*
X179828688Y-65019300D02*
X179142974Y-65019300D01*
X177857259Y-64090728D02*
X177685831Y-64090728D01*
X177685831Y-64090728D02*
X177600116Y-64162157D01*
X177600116Y-64162157D02*
X177514402Y-64305014D01*
X177514402Y-64305014D02*
X177471545Y-64590728D01*
X177471545Y-64590728D02*
X177471545Y-65090728D01*
X177471545Y-65090728D02*
X177514402Y-65376442D01*
X177514402Y-65376442D02*
X177600116Y-65519300D01*
X177600116Y-65519300D02*
X177685831Y-65590728D01*
X177685831Y-65590728D02*
X177857259Y-65590728D01*
X177857259Y-65590728D02*
X177942974Y-65519300D01*
X177942974Y-65519300D02*
X178028688Y-65376442D01*
X178028688Y-65376442D02*
X178071545Y-65090728D01*
X178071545Y-65090728D02*
X178071545Y-64590728D01*
X178071545Y-64590728D02*
X178028688Y-64305014D01*
X178028688Y-64305014D02*
X177942974Y-64162157D01*
X177942974Y-64162157D02*
X177857259Y-64090728D01*
X176700117Y-64590728D02*
X176700117Y-65590728D01*
X176914402Y-64019300D02*
X177128688Y-65090728D01*
X177128688Y-65090728D02*
X176571545Y-65090728D01*
X176228688Y-65019300D02*
X175542974Y-65019300D01*
X175885831Y-65590728D02*
X175885831Y-64447871D01*
X174257259Y-64090728D02*
X174085831Y-64090728D01*
X174085831Y-64090728D02*
X174000116Y-64162157D01*
X174000116Y-64162157D02*
X173914402Y-64305014D01*
X173914402Y-64305014D02*
X173871545Y-64590728D01*
X173871545Y-64590728D02*
X173871545Y-65090728D01*
X173871545Y-65090728D02*
X173914402Y-65376442D01*
X173914402Y-65376442D02*
X174000116Y-65519300D01*
X174000116Y-65519300D02*
X174085831Y-65590728D01*
X174085831Y-65590728D02*
X174257259Y-65590728D01*
X174257259Y-65590728D02*
X174342974Y-65519300D01*
X174342974Y-65519300D02*
X174428688Y-65376442D01*
X174428688Y-65376442D02*
X174471545Y-65090728D01*
X174471545Y-65090728D02*
X174471545Y-64590728D01*
X174471545Y-64590728D02*
X174428688Y-64305014D01*
X174428688Y-64305014D02*
X174342974Y-64162157D01*
X174342974Y-64162157D02*
X174257259Y-64090728D01*
X173571545Y-64090728D02*
X173014402Y-64090728D01*
X173014402Y-64090728D02*
X173314402Y-64662157D01*
X173314402Y-64662157D02*
X173185831Y-64662157D01*
X173185831Y-64662157D02*
X173100117Y-64733585D01*
X173100117Y-64733585D02*
X173057259Y-64805014D01*
X173057259Y-64805014D02*
X173014402Y-64947871D01*
X173014402Y-64947871D02*
X173014402Y-65305014D01*
X173014402Y-65305014D02*
X173057259Y-65447871D01*
X173057259Y-65447871D02*
X173100117Y-65519300D01*
X173100117Y-65519300D02*
X173185831Y-65590728D01*
X173185831Y-65590728D02*
X173442974Y-65590728D01*
X173442974Y-65590728D02*
X173528688Y-65519300D01*
X173528688Y-65519300D02*
X173571545Y-65447871D01*
X172628688Y-65019300D02*
X171942974Y-65019300D01*
X170657259Y-64090728D02*
X170485831Y-64090728D01*
X170485831Y-64090728D02*
X170400116Y-64162157D01*
X170400116Y-64162157D02*
X170314402Y-64305014D01*
X170314402Y-64305014D02*
X170271545Y-64590728D01*
X170271545Y-64590728D02*
X170271545Y-65090728D01*
X170271545Y-65090728D02*
X170314402Y-65376442D01*
X170314402Y-65376442D02*
X170400116Y-65519300D01*
X170400116Y-65519300D02*
X170485831Y-65590728D01*
X170485831Y-65590728D02*
X170657259Y-65590728D01*
X170657259Y-65590728D02*
X170742974Y-65519300D01*
X170742974Y-65519300D02*
X170828688Y-65376442D01*
X170828688Y-65376442D02*
X170871545Y-65090728D01*
X170871545Y-65090728D02*
X170871545Y-64590728D01*
X170871545Y-64590728D02*
X170828688Y-64305014D01*
X170828688Y-64305014D02*
X170742974Y-64162157D01*
X170742974Y-64162157D02*
X170657259Y-64090728D01*
X169971545Y-64090728D02*
X169414402Y-64090728D01*
X169414402Y-64090728D02*
X169714402Y-64662157D01*
X169714402Y-64662157D02*
X169585831Y-64662157D01*
X169585831Y-64662157D02*
X169500117Y-64733585D01*
X169500117Y-64733585D02*
X169457259Y-64805014D01*
X169457259Y-64805014D02*
X169414402Y-64947871D01*
X169414402Y-64947871D02*
X169414402Y-65305014D01*
X169414402Y-65305014D02*
X169457259Y-65447871D01*
X169457259Y-65447871D02*
X169500117Y-65519300D01*
X169500117Y-65519300D02*
X169585831Y-65590728D01*
X169585831Y-65590728D02*
X169842974Y-65590728D01*
X169842974Y-65590728D02*
X169928688Y-65519300D01*
X169928688Y-65519300D02*
X169971545Y-65447871D01*
X169028688Y-65019300D02*
X168342974Y-65019300D01*
X168685831Y-65590728D02*
X168685831Y-64447871D01*
X166371545Y-64090728D02*
X166200117Y-64090728D01*
X166200117Y-64090728D02*
X166114402Y-64162157D01*
X166114402Y-64162157D02*
X166028688Y-64305014D01*
X166028688Y-64305014D02*
X165985831Y-64590728D01*
X165985831Y-64590728D02*
X165985831Y-65090728D01*
X165985831Y-65090728D02*
X166028688Y-65376442D01*
X166028688Y-65376442D02*
X166114402Y-65519300D01*
X166114402Y-65519300D02*
X166200117Y-65590728D01*
X166200117Y-65590728D02*
X166371545Y-65590728D01*
X166371545Y-65590728D02*
X166457260Y-65519300D01*
X166457260Y-65519300D02*
X166542974Y-65376442D01*
X166542974Y-65376442D02*
X166585831Y-65090728D01*
X166585831Y-65090728D02*
X166585831Y-64590728D01*
X166585831Y-64590728D02*
X166542974Y-64305014D01*
X166542974Y-64305014D02*
X166457260Y-64162157D01*
X166457260Y-64162157D02*
X166371545Y-64090728D01*
X165642974Y-64233585D02*
X165600117Y-64162157D01*
X165600117Y-64162157D02*
X165514403Y-64090728D01*
X165514403Y-64090728D02*
X165300117Y-64090728D01*
X165300117Y-64090728D02*
X165214403Y-64162157D01*
X165214403Y-64162157D02*
X165171545Y-64233585D01*
X165171545Y-64233585D02*
X165128688Y-64376442D01*
X165128688Y-64376442D02*
X165128688Y-64519300D01*
X165128688Y-64519300D02*
X165171545Y-64733585D01*
X165171545Y-64733585D02*
X165685831Y-65590728D01*
X165685831Y-65590728D02*
X165128688Y-65590728D01*
X164742974Y-65019300D02*
X164057260Y-65019300D01*
X162771545Y-64090728D02*
X162600117Y-64090728D01*
X162600117Y-64090728D02*
X162514402Y-64162157D01*
X162514402Y-64162157D02*
X162428688Y-64305014D01*
X162428688Y-64305014D02*
X162385831Y-64590728D01*
X162385831Y-64590728D02*
X162385831Y-65090728D01*
X162385831Y-65090728D02*
X162428688Y-65376442D01*
X162428688Y-65376442D02*
X162514402Y-65519300D01*
X162514402Y-65519300D02*
X162600117Y-65590728D01*
X162600117Y-65590728D02*
X162771545Y-65590728D01*
X162771545Y-65590728D02*
X162857260Y-65519300D01*
X162857260Y-65519300D02*
X162942974Y-65376442D01*
X162942974Y-65376442D02*
X162985831Y-65090728D01*
X162985831Y-65090728D02*
X162985831Y-64590728D01*
X162985831Y-64590728D02*
X162942974Y-64305014D01*
X162942974Y-64305014D02*
X162857260Y-64162157D01*
X162857260Y-64162157D02*
X162771545Y-64090728D01*
X162042974Y-64233585D02*
X162000117Y-64162157D01*
X162000117Y-64162157D02*
X161914403Y-64090728D01*
X161914403Y-64090728D02*
X161700117Y-64090728D01*
X161700117Y-64090728D02*
X161614403Y-64162157D01*
X161614403Y-64162157D02*
X161571545Y-64233585D01*
X161571545Y-64233585D02*
X161528688Y-64376442D01*
X161528688Y-64376442D02*
X161528688Y-64519300D01*
X161528688Y-64519300D02*
X161571545Y-64733585D01*
X161571545Y-64733585D02*
X162085831Y-65590728D01*
X162085831Y-65590728D02*
X161528688Y-65590728D01*
X161142974Y-65019300D02*
X160457260Y-65019300D01*
X160800117Y-65590728D02*
X160800117Y-64447871D01*
X159171545Y-64090728D02*
X159000117Y-64090728D01*
X159000117Y-64090728D02*
X158914402Y-64162157D01*
X158914402Y-64162157D02*
X158828688Y-64305014D01*
X158828688Y-64305014D02*
X158785831Y-64590728D01*
X158785831Y-64590728D02*
X158785831Y-65090728D01*
X158785831Y-65090728D02*
X158828688Y-65376442D01*
X158828688Y-65376442D02*
X158914402Y-65519300D01*
X158914402Y-65519300D02*
X159000117Y-65590728D01*
X159000117Y-65590728D02*
X159171545Y-65590728D01*
X159171545Y-65590728D02*
X159257260Y-65519300D01*
X159257260Y-65519300D02*
X159342974Y-65376442D01*
X159342974Y-65376442D02*
X159385831Y-65090728D01*
X159385831Y-65090728D02*
X159385831Y-64590728D01*
X159385831Y-64590728D02*
X159342974Y-64305014D01*
X159342974Y-64305014D02*
X159257260Y-64162157D01*
X159257260Y-64162157D02*
X159171545Y-64090728D01*
X157928688Y-65590728D02*
X158442974Y-65590728D01*
X158185831Y-65590728D02*
X158185831Y-64090728D01*
X158185831Y-64090728D02*
X158271545Y-64305014D01*
X158271545Y-64305014D02*
X158357260Y-64447871D01*
X158357260Y-64447871D02*
X158442974Y-64519300D01*
X157542974Y-65019300D02*
X156857260Y-65019300D01*
X155571545Y-64090728D02*
X155400117Y-64090728D01*
X155400117Y-64090728D02*
X155314402Y-64162157D01*
X155314402Y-64162157D02*
X155228688Y-64305014D01*
X155228688Y-64305014D02*
X155185831Y-64590728D01*
X155185831Y-64590728D02*
X155185831Y-65090728D01*
X155185831Y-65090728D02*
X155228688Y-65376442D01*
X155228688Y-65376442D02*
X155314402Y-65519300D01*
X155314402Y-65519300D02*
X155400117Y-65590728D01*
X155400117Y-65590728D02*
X155571545Y-65590728D01*
X155571545Y-65590728D02*
X155657260Y-65519300D01*
X155657260Y-65519300D02*
X155742974Y-65376442D01*
X155742974Y-65376442D02*
X155785831Y-65090728D01*
X155785831Y-65090728D02*
X155785831Y-64590728D01*
X155785831Y-64590728D02*
X155742974Y-64305014D01*
X155742974Y-64305014D02*
X155657260Y-64162157D01*
X155657260Y-64162157D02*
X155571545Y-64090728D01*
X154328688Y-65590728D02*
X154842974Y-65590728D01*
X154585831Y-65590728D02*
X154585831Y-64090728D01*
X154585831Y-64090728D02*
X154671545Y-64305014D01*
X154671545Y-64305014D02*
X154757260Y-64447871D01*
X154757260Y-64447871D02*
X154842974Y-64519300D01*
X153942974Y-65019300D02*
X153257260Y-65019300D01*
X153600117Y-65590728D02*
X153600117Y-64447871D01*
D10*
X195860098Y-64676714D02*
X196193431Y-64676714D01*
X196193431Y-65462428D02*
X196193431Y-63962428D01*
X196193431Y-63962428D02*
X195717241Y-63962428D01*
X195336288Y-65462428D02*
X195336288Y-64462428D01*
X195336288Y-63962428D02*
X195383907Y-64033857D01*
X195383907Y-64033857D02*
X195336288Y-64105285D01*
X195336288Y-64105285D02*
X195288669Y-64033857D01*
X195288669Y-64033857D02*
X195336288Y-63962428D01*
X195336288Y-63962428D02*
X195336288Y-64105285D01*
X194479146Y-65391000D02*
X194574384Y-65462428D01*
X194574384Y-65462428D02*
X194764860Y-65462428D01*
X194764860Y-65462428D02*
X194860098Y-65391000D01*
X194860098Y-65391000D02*
X194907717Y-65248142D01*
X194907717Y-65248142D02*
X194907717Y-64676714D01*
X194907717Y-64676714D02*
X194860098Y-64533857D01*
X194860098Y-64533857D02*
X194764860Y-64462428D01*
X194764860Y-64462428D02*
X194574384Y-64462428D01*
X194574384Y-64462428D02*
X194479146Y-64533857D01*
X194479146Y-64533857D02*
X194431527Y-64676714D01*
X194431527Y-64676714D02*
X194431527Y-64819571D01*
X194431527Y-64819571D02*
X194907717Y-64962428D01*
X193860098Y-65462428D02*
X193955336Y-65391000D01*
X193955336Y-65391000D02*
X194002955Y-65248142D01*
X194002955Y-65248142D02*
X194002955Y-63962428D01*
X193050574Y-65462428D02*
X193050574Y-63962428D01*
X193050574Y-65391000D02*
X193145812Y-65462428D01*
X193145812Y-65462428D02*
X193336288Y-65462428D01*
X193336288Y-65462428D02*
X193431526Y-65391000D01*
X193431526Y-65391000D02*
X193479145Y-65319571D01*
X193479145Y-65319571D02*
X193526764Y-65176714D01*
X193526764Y-65176714D02*
X193526764Y-64748142D01*
X193526764Y-64748142D02*
X193479145Y-64605285D01*
X193479145Y-64605285D02*
X193431526Y-64533857D01*
X193431526Y-64533857D02*
X193336288Y-64462428D01*
X193336288Y-64462428D02*
X193145812Y-64462428D01*
X193145812Y-64462428D02*
X193050574Y-64533857D01*
X191383907Y-65391000D02*
X191479145Y-65462428D01*
X191479145Y-65462428D02*
X191669621Y-65462428D01*
X191669621Y-65462428D02*
X191764859Y-65391000D01*
X191764859Y-65391000D02*
X191812478Y-65319571D01*
X191812478Y-65319571D02*
X191860097Y-65176714D01*
X191860097Y-65176714D02*
X191860097Y-64748142D01*
X191860097Y-64748142D02*
X191812478Y-64605285D01*
X191812478Y-64605285D02*
X191764859Y-64533857D01*
X191764859Y-64533857D02*
X191669621Y-64462428D01*
X191669621Y-64462428D02*
X191479145Y-64462428D01*
X191479145Y-64462428D02*
X191383907Y-64533857D01*
X190812478Y-65462428D02*
X190907716Y-65391000D01*
X190907716Y-65391000D02*
X190955335Y-65319571D01*
X190955335Y-65319571D02*
X191002954Y-65176714D01*
X191002954Y-65176714D02*
X191002954Y-64748142D01*
X191002954Y-64748142D02*
X190955335Y-64605285D01*
X190955335Y-64605285D02*
X190907716Y-64533857D01*
X190907716Y-64533857D02*
X190812478Y-64462428D01*
X190812478Y-64462428D02*
X190669621Y-64462428D01*
X190669621Y-64462428D02*
X190574383Y-64533857D01*
X190574383Y-64533857D02*
X190526764Y-64605285D01*
X190526764Y-64605285D02*
X190479145Y-64748142D01*
X190479145Y-64748142D02*
X190479145Y-65176714D01*
X190479145Y-65176714D02*
X190526764Y-65319571D01*
X190526764Y-65319571D02*
X190574383Y-65391000D01*
X190574383Y-65391000D02*
X190669621Y-65462428D01*
X190669621Y-65462428D02*
X190812478Y-65462428D01*
X190050573Y-65462428D02*
X190050573Y-64462428D01*
X190050573Y-64605285D02*
X190002954Y-64533857D01*
X190002954Y-64533857D02*
X189907716Y-64462428D01*
X189907716Y-64462428D02*
X189764859Y-64462428D01*
X189764859Y-64462428D02*
X189669621Y-64533857D01*
X189669621Y-64533857D02*
X189622002Y-64676714D01*
X189622002Y-64676714D02*
X189622002Y-65462428D01*
X189622002Y-64676714D02*
X189574383Y-64533857D01*
X189574383Y-64533857D02*
X189479145Y-64462428D01*
X189479145Y-64462428D02*
X189336288Y-64462428D01*
X189336288Y-64462428D02*
X189241049Y-64533857D01*
X189241049Y-64533857D02*
X189193430Y-64676714D01*
X189193430Y-64676714D02*
X189193430Y-65462428D01*
X188717240Y-65462428D02*
X188717240Y-64462428D01*
X188717240Y-64605285D02*
X188669621Y-64533857D01*
X188669621Y-64533857D02*
X188574383Y-64462428D01*
X188574383Y-64462428D02*
X188431526Y-64462428D01*
X188431526Y-64462428D02*
X188336288Y-64533857D01*
X188336288Y-64533857D02*
X188288669Y-64676714D01*
X188288669Y-64676714D02*
X188288669Y-65462428D01*
X188288669Y-64676714D02*
X188241050Y-64533857D01*
X188241050Y-64533857D02*
X188145812Y-64462428D01*
X188145812Y-64462428D02*
X188002955Y-64462428D01*
X188002955Y-64462428D02*
X187907716Y-64533857D01*
X187907716Y-64533857D02*
X187860097Y-64676714D01*
X187860097Y-64676714D02*
X187860097Y-65462428D01*
X187241050Y-65462428D02*
X187336288Y-65391000D01*
X187336288Y-65391000D02*
X187383907Y-65319571D01*
X187383907Y-65319571D02*
X187431526Y-65176714D01*
X187431526Y-65176714D02*
X187431526Y-64748142D01*
X187431526Y-64748142D02*
X187383907Y-64605285D01*
X187383907Y-64605285D02*
X187336288Y-64533857D01*
X187336288Y-64533857D02*
X187241050Y-64462428D01*
X187241050Y-64462428D02*
X187098193Y-64462428D01*
X187098193Y-64462428D02*
X187002955Y-64533857D01*
X187002955Y-64533857D02*
X186955336Y-64605285D01*
X186955336Y-64605285D02*
X186907717Y-64748142D01*
X186907717Y-64748142D02*
X186907717Y-65176714D01*
X186907717Y-65176714D02*
X186955336Y-65319571D01*
X186955336Y-65319571D02*
X187002955Y-65391000D01*
X187002955Y-65391000D02*
X187098193Y-65462428D01*
X187098193Y-65462428D02*
X187241050Y-65462428D01*
X186479145Y-64462428D02*
X186479145Y-65462428D01*
X186479145Y-64605285D02*
X186431526Y-64533857D01*
X186431526Y-64533857D02*
X186336288Y-64462428D01*
X186336288Y-64462428D02*
X186193431Y-64462428D01*
X186193431Y-64462428D02*
X186098193Y-64533857D01*
X186098193Y-64533857D02*
X186050574Y-64676714D01*
X186050574Y-64676714D02*
X186050574Y-65462428D01*
D13*
X225719725Y-110456476D02*
X225719725Y-106456476D01*
X223814963Y-107789809D02*
X223814963Y-110456476D01*
X223814963Y-108170761D02*
X223624486Y-107980285D01*
X223624486Y-107980285D02*
X223243534Y-107789809D01*
X223243534Y-107789809D02*
X222672105Y-107789809D01*
X222672105Y-107789809D02*
X222291153Y-107980285D01*
X222291153Y-107980285D02*
X222100677Y-108361238D01*
X222100677Y-108361238D02*
X222100677Y-110456476D01*
D10*
X213465431Y-65462428D02*
X213465431Y-63962428D01*
X212989241Y-64462428D02*
X212989241Y-65462428D01*
X212989241Y-64605285D02*
X212941622Y-64533857D01*
X212941622Y-64533857D02*
X212846384Y-64462428D01*
X212846384Y-64462428D02*
X212703527Y-64462428D01*
X212703527Y-64462428D02*
X212608289Y-64533857D01*
X212608289Y-64533857D02*
X212560670Y-64676714D01*
X212560670Y-64676714D02*
X212560670Y-65462428D01*
X211608289Y-63962428D02*
X212084479Y-63962428D01*
X212084479Y-63962428D02*
X212132098Y-64676714D01*
X212132098Y-64676714D02*
X212084479Y-64605285D01*
X212084479Y-64605285D02*
X211989241Y-64533857D01*
X211989241Y-64533857D02*
X211751146Y-64533857D01*
X211751146Y-64533857D02*
X211655908Y-64605285D01*
X211655908Y-64605285D02*
X211608289Y-64676714D01*
X211608289Y-64676714D02*
X211560670Y-64819571D01*
X211560670Y-64819571D02*
X211560670Y-65176714D01*
X211560670Y-65176714D02*
X211608289Y-65319571D01*
X211608289Y-65319571D02*
X211655908Y-65391000D01*
X211655908Y-65391000D02*
X211751146Y-65462428D01*
X211751146Y-65462428D02*
X211989241Y-65462428D01*
X211989241Y-65462428D02*
X212084479Y-65391000D01*
X212084479Y-65391000D02*
X212132098Y-65319571D01*
X210370193Y-65462428D02*
X210370193Y-63962428D01*
X209894003Y-64462428D02*
X209894003Y-65462428D01*
X209894003Y-64605285D02*
X209846384Y-64533857D01*
X209846384Y-64533857D02*
X209751146Y-64462428D01*
X209751146Y-64462428D02*
X209608289Y-64462428D01*
X209608289Y-64462428D02*
X209513051Y-64533857D01*
X209513051Y-64533857D02*
X209465432Y-64676714D01*
X209465432Y-64676714D02*
X209465432Y-65462428D01*
X208560670Y-63962428D02*
X208751146Y-63962428D01*
X208751146Y-63962428D02*
X208846384Y-64033857D01*
X208846384Y-64033857D02*
X208894003Y-64105285D01*
X208894003Y-64105285D02*
X208989241Y-64319571D01*
X208989241Y-64319571D02*
X209036860Y-64605285D01*
X209036860Y-64605285D02*
X209036860Y-65176714D01*
X209036860Y-65176714D02*
X208989241Y-65319571D01*
X208989241Y-65319571D02*
X208941622Y-65391000D01*
X208941622Y-65391000D02*
X208846384Y-65462428D01*
X208846384Y-65462428D02*
X208655908Y-65462428D01*
X208655908Y-65462428D02*
X208560670Y-65391000D01*
X208560670Y-65391000D02*
X208513051Y-65319571D01*
X208513051Y-65319571D02*
X208465432Y-65176714D01*
X208465432Y-65176714D02*
X208465432Y-64819571D01*
X208465432Y-64819571D02*
X208513051Y-64676714D01*
X208513051Y-64676714D02*
X208560670Y-64605285D01*
X208560670Y-64605285D02*
X208655908Y-64533857D01*
X208655908Y-64533857D02*
X208846384Y-64533857D01*
X208846384Y-64533857D02*
X208941622Y-64605285D01*
X208941622Y-64605285D02*
X208989241Y-64676714D01*
X208989241Y-64676714D02*
X209036860Y-64819571D01*
X206513050Y-65462428D02*
X206513050Y-63962428D01*
X206036860Y-64462428D02*
X206036860Y-65462428D01*
X206036860Y-64605285D02*
X205989241Y-64533857D01*
X205989241Y-64533857D02*
X205894003Y-64462428D01*
X205894003Y-64462428D02*
X205751146Y-64462428D01*
X205751146Y-64462428D02*
X205655908Y-64533857D01*
X205655908Y-64533857D02*
X205608289Y-64676714D01*
X205608289Y-64676714D02*
X205608289Y-65462428D01*
X205227336Y-63962428D02*
X204560670Y-63962428D01*
X204560670Y-63962428D02*
X204989241Y-65462428D01*
X202655907Y-65462428D02*
X202655907Y-63962428D01*
X202179717Y-64462428D02*
X202179717Y-65462428D01*
X202179717Y-64605285D02*
X202132098Y-64533857D01*
X202132098Y-64533857D02*
X202036860Y-64462428D01*
X202036860Y-64462428D02*
X201894003Y-64462428D01*
X201894003Y-64462428D02*
X201798765Y-64533857D01*
X201798765Y-64533857D02*
X201751146Y-64676714D01*
X201751146Y-64676714D02*
X201751146Y-65462428D01*
X201132098Y-64605285D02*
X201227336Y-64533857D01*
X201227336Y-64533857D02*
X201274955Y-64462428D01*
X201274955Y-64462428D02*
X201322574Y-64319571D01*
X201322574Y-64319571D02*
X201322574Y-64248142D01*
X201322574Y-64248142D02*
X201274955Y-64105285D01*
X201274955Y-64105285D02*
X201227336Y-64033857D01*
X201227336Y-64033857D02*
X201132098Y-63962428D01*
X201132098Y-63962428D02*
X200941622Y-63962428D01*
X200941622Y-63962428D02*
X200846384Y-64033857D01*
X200846384Y-64033857D02*
X200798765Y-64105285D01*
X200798765Y-64105285D02*
X200751146Y-64248142D01*
X200751146Y-64248142D02*
X200751146Y-64319571D01*
X200751146Y-64319571D02*
X200798765Y-64462428D01*
X200798765Y-64462428D02*
X200846384Y-64533857D01*
X200846384Y-64533857D02*
X200941622Y-64605285D01*
X200941622Y-64605285D02*
X201132098Y-64605285D01*
X201132098Y-64605285D02*
X201227336Y-64676714D01*
X201227336Y-64676714D02*
X201274955Y-64748142D01*
X201274955Y-64748142D02*
X201322574Y-64891000D01*
X201322574Y-64891000D02*
X201322574Y-65176714D01*
X201322574Y-65176714D02*
X201274955Y-65319571D01*
X201274955Y-65319571D02*
X201227336Y-65391000D01*
X201227336Y-65391000D02*
X201132098Y-65462428D01*
X201132098Y-65462428D02*
X200941622Y-65462428D01*
X200941622Y-65462428D02*
X200846384Y-65391000D01*
X200846384Y-65391000D02*
X200798765Y-65319571D01*
X200798765Y-65319571D02*
X200751146Y-65176714D01*
X200751146Y-65176714D02*
X200751146Y-64891000D01*
X200751146Y-64891000D02*
X200798765Y-64748142D01*
X200798765Y-64748142D02*
X200846384Y-64676714D01*
X200846384Y-64676714D02*
X200941622Y-64605285D01*
D12*
X183870259Y-82505728D02*
X183698831Y-82505728D01*
X183698831Y-82505728D02*
X183613116Y-82577157D01*
X183613116Y-82577157D02*
X183527402Y-82720014D01*
X183527402Y-82720014D02*
X183484545Y-83005728D01*
X183484545Y-83005728D02*
X183484545Y-83505728D01*
X183484545Y-83505728D02*
X183527402Y-83791442D01*
X183527402Y-83791442D02*
X183613116Y-83934300D01*
X183613116Y-83934300D02*
X183698831Y-84005728D01*
X183698831Y-84005728D02*
X183870259Y-84005728D01*
X183870259Y-84005728D02*
X183955974Y-83934300D01*
X183955974Y-83934300D02*
X184041688Y-83791442D01*
X184041688Y-83791442D02*
X184084545Y-83505728D01*
X184084545Y-83505728D02*
X184084545Y-83005728D01*
X184084545Y-83005728D02*
X184041688Y-82720014D01*
X184041688Y-82720014D02*
X183955974Y-82577157D01*
X183955974Y-82577157D02*
X183870259Y-82505728D01*
X182970259Y-83148585D02*
X183055974Y-83077157D01*
X183055974Y-83077157D02*
X183098831Y-83005728D01*
X183098831Y-83005728D02*
X183141688Y-82862871D01*
X183141688Y-82862871D02*
X183141688Y-82791442D01*
X183141688Y-82791442D02*
X183098831Y-82648585D01*
X183098831Y-82648585D02*
X183055974Y-82577157D01*
X183055974Y-82577157D02*
X182970259Y-82505728D01*
X182970259Y-82505728D02*
X182798831Y-82505728D01*
X182798831Y-82505728D02*
X182713117Y-82577157D01*
X182713117Y-82577157D02*
X182670259Y-82648585D01*
X182670259Y-82648585D02*
X182627402Y-82791442D01*
X182627402Y-82791442D02*
X182627402Y-82862871D01*
X182627402Y-82862871D02*
X182670259Y-83005728D01*
X182670259Y-83005728D02*
X182713117Y-83077157D01*
X182713117Y-83077157D02*
X182798831Y-83148585D01*
X182798831Y-83148585D02*
X182970259Y-83148585D01*
X182970259Y-83148585D02*
X183055974Y-83220014D01*
X183055974Y-83220014D02*
X183098831Y-83291442D01*
X183098831Y-83291442D02*
X183141688Y-83434300D01*
X183141688Y-83434300D02*
X183141688Y-83720014D01*
X183141688Y-83720014D02*
X183098831Y-83862871D01*
X183098831Y-83862871D02*
X183055974Y-83934300D01*
X183055974Y-83934300D02*
X182970259Y-84005728D01*
X182970259Y-84005728D02*
X182798831Y-84005728D01*
X182798831Y-84005728D02*
X182713117Y-83934300D01*
X182713117Y-83934300D02*
X182670259Y-83862871D01*
X182670259Y-83862871D02*
X182627402Y-83720014D01*
X182627402Y-83720014D02*
X182627402Y-83434300D01*
X182627402Y-83434300D02*
X182670259Y-83291442D01*
X182670259Y-83291442D02*
X182713117Y-83220014D01*
X182713117Y-83220014D02*
X182798831Y-83148585D01*
X182241688Y-83434300D02*
X181555974Y-83434300D01*
X180270259Y-82505728D02*
X180098831Y-82505728D01*
X180098831Y-82505728D02*
X180013116Y-82577157D01*
X180013116Y-82577157D02*
X179927402Y-82720014D01*
X179927402Y-82720014D02*
X179884545Y-83005728D01*
X179884545Y-83005728D02*
X179884545Y-83505728D01*
X179884545Y-83505728D02*
X179927402Y-83791442D01*
X179927402Y-83791442D02*
X180013116Y-83934300D01*
X180013116Y-83934300D02*
X180098831Y-84005728D01*
X180098831Y-84005728D02*
X180270259Y-84005728D01*
X180270259Y-84005728D02*
X180355974Y-83934300D01*
X180355974Y-83934300D02*
X180441688Y-83791442D01*
X180441688Y-83791442D02*
X180484545Y-83505728D01*
X180484545Y-83505728D02*
X180484545Y-83005728D01*
X180484545Y-83005728D02*
X180441688Y-82720014D01*
X180441688Y-82720014D02*
X180355974Y-82577157D01*
X180355974Y-82577157D02*
X180270259Y-82505728D01*
X179370259Y-83148585D02*
X179455974Y-83077157D01*
X179455974Y-83077157D02*
X179498831Y-83005728D01*
X179498831Y-83005728D02*
X179541688Y-82862871D01*
X179541688Y-82862871D02*
X179541688Y-82791442D01*
X179541688Y-82791442D02*
X179498831Y-82648585D01*
X179498831Y-82648585D02*
X179455974Y-82577157D01*
X179455974Y-82577157D02*
X179370259Y-82505728D01*
X179370259Y-82505728D02*
X179198831Y-82505728D01*
X179198831Y-82505728D02*
X179113117Y-82577157D01*
X179113117Y-82577157D02*
X179070259Y-82648585D01*
X179070259Y-82648585D02*
X179027402Y-82791442D01*
X179027402Y-82791442D02*
X179027402Y-82862871D01*
X179027402Y-82862871D02*
X179070259Y-83005728D01*
X179070259Y-83005728D02*
X179113117Y-83077157D01*
X179113117Y-83077157D02*
X179198831Y-83148585D01*
X179198831Y-83148585D02*
X179370259Y-83148585D01*
X179370259Y-83148585D02*
X179455974Y-83220014D01*
X179455974Y-83220014D02*
X179498831Y-83291442D01*
X179498831Y-83291442D02*
X179541688Y-83434300D01*
X179541688Y-83434300D02*
X179541688Y-83720014D01*
X179541688Y-83720014D02*
X179498831Y-83862871D01*
X179498831Y-83862871D02*
X179455974Y-83934300D01*
X179455974Y-83934300D02*
X179370259Y-84005728D01*
X179370259Y-84005728D02*
X179198831Y-84005728D01*
X179198831Y-84005728D02*
X179113117Y-83934300D01*
X179113117Y-83934300D02*
X179070259Y-83862871D01*
X179070259Y-83862871D02*
X179027402Y-83720014D01*
X179027402Y-83720014D02*
X179027402Y-83434300D01*
X179027402Y-83434300D02*
X179070259Y-83291442D01*
X179070259Y-83291442D02*
X179113117Y-83220014D01*
X179113117Y-83220014D02*
X179198831Y-83148585D01*
X178641688Y-83434300D02*
X177955974Y-83434300D01*
X178298831Y-84005728D02*
X178298831Y-82862871D01*
X176670259Y-82505728D02*
X176498831Y-82505728D01*
X176498831Y-82505728D02*
X176413116Y-82577157D01*
X176413116Y-82577157D02*
X176327402Y-82720014D01*
X176327402Y-82720014D02*
X176284545Y-83005728D01*
X176284545Y-83005728D02*
X176284545Y-83505728D01*
X176284545Y-83505728D02*
X176327402Y-83791442D01*
X176327402Y-83791442D02*
X176413116Y-83934300D01*
X176413116Y-83934300D02*
X176498831Y-84005728D01*
X176498831Y-84005728D02*
X176670259Y-84005728D01*
X176670259Y-84005728D02*
X176755974Y-83934300D01*
X176755974Y-83934300D02*
X176841688Y-83791442D01*
X176841688Y-83791442D02*
X176884545Y-83505728D01*
X176884545Y-83505728D02*
X176884545Y-83005728D01*
X176884545Y-83005728D02*
X176841688Y-82720014D01*
X176841688Y-82720014D02*
X176755974Y-82577157D01*
X176755974Y-82577157D02*
X176670259Y-82505728D01*
X175984545Y-82505728D02*
X175384545Y-82505728D01*
X175384545Y-82505728D02*
X175770259Y-84005728D01*
X175041688Y-83434300D02*
X174355974Y-83434300D01*
X173070259Y-82505728D02*
X172898831Y-82505728D01*
X172898831Y-82505728D02*
X172813116Y-82577157D01*
X172813116Y-82577157D02*
X172727402Y-82720014D01*
X172727402Y-82720014D02*
X172684545Y-83005728D01*
X172684545Y-83005728D02*
X172684545Y-83505728D01*
X172684545Y-83505728D02*
X172727402Y-83791442D01*
X172727402Y-83791442D02*
X172813116Y-83934300D01*
X172813116Y-83934300D02*
X172898831Y-84005728D01*
X172898831Y-84005728D02*
X173070259Y-84005728D01*
X173070259Y-84005728D02*
X173155974Y-83934300D01*
X173155974Y-83934300D02*
X173241688Y-83791442D01*
X173241688Y-83791442D02*
X173284545Y-83505728D01*
X173284545Y-83505728D02*
X173284545Y-83005728D01*
X173284545Y-83005728D02*
X173241688Y-82720014D01*
X173241688Y-82720014D02*
X173155974Y-82577157D01*
X173155974Y-82577157D02*
X173070259Y-82505728D01*
X172384545Y-82505728D02*
X171784545Y-82505728D01*
X171784545Y-82505728D02*
X172170259Y-84005728D01*
X171441688Y-83434300D02*
X170755974Y-83434300D01*
X171098831Y-84005728D02*
X171098831Y-82862871D01*
X168098831Y-82505728D02*
X167927403Y-82505728D01*
X167927403Y-82505728D02*
X167841688Y-82577157D01*
X167841688Y-82577157D02*
X167755974Y-82720014D01*
X167755974Y-82720014D02*
X167713117Y-83005728D01*
X167713117Y-83005728D02*
X167713117Y-83505728D01*
X167713117Y-83505728D02*
X167755974Y-83791442D01*
X167755974Y-83791442D02*
X167841688Y-83934300D01*
X167841688Y-83934300D02*
X167927403Y-84005728D01*
X167927403Y-84005728D02*
X168098831Y-84005728D01*
X168098831Y-84005728D02*
X168184546Y-83934300D01*
X168184546Y-83934300D02*
X168270260Y-83791442D01*
X168270260Y-83791442D02*
X168313117Y-83505728D01*
X168313117Y-83505728D02*
X168313117Y-83005728D01*
X168313117Y-83005728D02*
X168270260Y-82720014D01*
X168270260Y-82720014D02*
X168184546Y-82577157D01*
X168184546Y-82577157D02*
X168098831Y-82505728D01*
X166941689Y-82505728D02*
X167113117Y-82505728D01*
X167113117Y-82505728D02*
X167198831Y-82577157D01*
X167198831Y-82577157D02*
X167241689Y-82648585D01*
X167241689Y-82648585D02*
X167327403Y-82862871D01*
X167327403Y-82862871D02*
X167370260Y-83148585D01*
X167370260Y-83148585D02*
X167370260Y-83720014D01*
X167370260Y-83720014D02*
X167327403Y-83862871D01*
X167327403Y-83862871D02*
X167284546Y-83934300D01*
X167284546Y-83934300D02*
X167198831Y-84005728D01*
X167198831Y-84005728D02*
X167027403Y-84005728D01*
X167027403Y-84005728D02*
X166941689Y-83934300D01*
X166941689Y-83934300D02*
X166898831Y-83862871D01*
X166898831Y-83862871D02*
X166855974Y-83720014D01*
X166855974Y-83720014D02*
X166855974Y-83362871D01*
X166855974Y-83362871D02*
X166898831Y-83220014D01*
X166898831Y-83220014D02*
X166941689Y-83148585D01*
X166941689Y-83148585D02*
X167027403Y-83077157D01*
X167027403Y-83077157D02*
X167198831Y-83077157D01*
X167198831Y-83077157D02*
X167284546Y-83148585D01*
X167284546Y-83148585D02*
X167327403Y-83220014D01*
X167327403Y-83220014D02*
X167370260Y-83362871D01*
X166470260Y-83434300D02*
X165784546Y-83434300D01*
X164498831Y-82505728D02*
X164327403Y-82505728D01*
X164327403Y-82505728D02*
X164241688Y-82577157D01*
X164241688Y-82577157D02*
X164155974Y-82720014D01*
X164155974Y-82720014D02*
X164113117Y-83005728D01*
X164113117Y-83005728D02*
X164113117Y-83505728D01*
X164113117Y-83505728D02*
X164155974Y-83791442D01*
X164155974Y-83791442D02*
X164241688Y-83934300D01*
X164241688Y-83934300D02*
X164327403Y-84005728D01*
X164327403Y-84005728D02*
X164498831Y-84005728D01*
X164498831Y-84005728D02*
X164584546Y-83934300D01*
X164584546Y-83934300D02*
X164670260Y-83791442D01*
X164670260Y-83791442D02*
X164713117Y-83505728D01*
X164713117Y-83505728D02*
X164713117Y-83005728D01*
X164713117Y-83005728D02*
X164670260Y-82720014D01*
X164670260Y-82720014D02*
X164584546Y-82577157D01*
X164584546Y-82577157D02*
X164498831Y-82505728D01*
X163341689Y-82505728D02*
X163513117Y-82505728D01*
X163513117Y-82505728D02*
X163598831Y-82577157D01*
X163598831Y-82577157D02*
X163641689Y-82648585D01*
X163641689Y-82648585D02*
X163727403Y-82862871D01*
X163727403Y-82862871D02*
X163770260Y-83148585D01*
X163770260Y-83148585D02*
X163770260Y-83720014D01*
X163770260Y-83720014D02*
X163727403Y-83862871D01*
X163727403Y-83862871D02*
X163684546Y-83934300D01*
X163684546Y-83934300D02*
X163598831Y-84005728D01*
X163598831Y-84005728D02*
X163427403Y-84005728D01*
X163427403Y-84005728D02*
X163341689Y-83934300D01*
X163341689Y-83934300D02*
X163298831Y-83862871D01*
X163298831Y-83862871D02*
X163255974Y-83720014D01*
X163255974Y-83720014D02*
X163255974Y-83362871D01*
X163255974Y-83362871D02*
X163298831Y-83220014D01*
X163298831Y-83220014D02*
X163341689Y-83148585D01*
X163341689Y-83148585D02*
X163427403Y-83077157D01*
X163427403Y-83077157D02*
X163598831Y-83077157D01*
X163598831Y-83077157D02*
X163684546Y-83148585D01*
X163684546Y-83148585D02*
X163727403Y-83220014D01*
X163727403Y-83220014D02*
X163770260Y-83362871D01*
X162870260Y-83434300D02*
X162184546Y-83434300D01*
X162527403Y-84005728D02*
X162527403Y-82862871D01*
X160898831Y-82505728D02*
X160727403Y-82505728D01*
X160727403Y-82505728D02*
X160641688Y-82577157D01*
X160641688Y-82577157D02*
X160555974Y-82720014D01*
X160555974Y-82720014D02*
X160513117Y-83005728D01*
X160513117Y-83005728D02*
X160513117Y-83505728D01*
X160513117Y-83505728D02*
X160555974Y-83791442D01*
X160555974Y-83791442D02*
X160641688Y-83934300D01*
X160641688Y-83934300D02*
X160727403Y-84005728D01*
X160727403Y-84005728D02*
X160898831Y-84005728D01*
X160898831Y-84005728D02*
X160984546Y-83934300D01*
X160984546Y-83934300D02*
X161070260Y-83791442D01*
X161070260Y-83791442D02*
X161113117Y-83505728D01*
X161113117Y-83505728D02*
X161113117Y-83005728D01*
X161113117Y-83005728D02*
X161070260Y-82720014D01*
X161070260Y-82720014D02*
X160984546Y-82577157D01*
X160984546Y-82577157D02*
X160898831Y-82505728D01*
X159698831Y-82505728D02*
X160127403Y-82505728D01*
X160127403Y-82505728D02*
X160170260Y-83220014D01*
X160170260Y-83220014D02*
X160127403Y-83148585D01*
X160127403Y-83148585D02*
X160041689Y-83077157D01*
X160041689Y-83077157D02*
X159827403Y-83077157D01*
X159827403Y-83077157D02*
X159741689Y-83148585D01*
X159741689Y-83148585D02*
X159698831Y-83220014D01*
X159698831Y-83220014D02*
X159655974Y-83362871D01*
X159655974Y-83362871D02*
X159655974Y-83720014D01*
X159655974Y-83720014D02*
X159698831Y-83862871D01*
X159698831Y-83862871D02*
X159741689Y-83934300D01*
X159741689Y-83934300D02*
X159827403Y-84005728D01*
X159827403Y-84005728D02*
X160041689Y-84005728D01*
X160041689Y-84005728D02*
X160127403Y-83934300D01*
X160127403Y-83934300D02*
X160170260Y-83862871D01*
X159270260Y-83434300D02*
X158584546Y-83434300D01*
X157298831Y-82505728D02*
X157127403Y-82505728D01*
X157127403Y-82505728D02*
X157041688Y-82577157D01*
X157041688Y-82577157D02*
X156955974Y-82720014D01*
X156955974Y-82720014D02*
X156913117Y-83005728D01*
X156913117Y-83005728D02*
X156913117Y-83505728D01*
X156913117Y-83505728D02*
X156955974Y-83791442D01*
X156955974Y-83791442D02*
X157041688Y-83934300D01*
X157041688Y-83934300D02*
X157127403Y-84005728D01*
X157127403Y-84005728D02*
X157298831Y-84005728D01*
X157298831Y-84005728D02*
X157384546Y-83934300D01*
X157384546Y-83934300D02*
X157470260Y-83791442D01*
X157470260Y-83791442D02*
X157513117Y-83505728D01*
X157513117Y-83505728D02*
X157513117Y-83005728D01*
X157513117Y-83005728D02*
X157470260Y-82720014D01*
X157470260Y-82720014D02*
X157384546Y-82577157D01*
X157384546Y-82577157D02*
X157298831Y-82505728D01*
X156098831Y-82505728D02*
X156527403Y-82505728D01*
X156527403Y-82505728D02*
X156570260Y-83220014D01*
X156570260Y-83220014D02*
X156527403Y-83148585D01*
X156527403Y-83148585D02*
X156441689Y-83077157D01*
X156441689Y-83077157D02*
X156227403Y-83077157D01*
X156227403Y-83077157D02*
X156141689Y-83148585D01*
X156141689Y-83148585D02*
X156098831Y-83220014D01*
X156098831Y-83220014D02*
X156055974Y-83362871D01*
X156055974Y-83362871D02*
X156055974Y-83720014D01*
X156055974Y-83720014D02*
X156098831Y-83862871D01*
X156098831Y-83862871D02*
X156141689Y-83934300D01*
X156141689Y-83934300D02*
X156227403Y-84005728D01*
X156227403Y-84005728D02*
X156441689Y-84005728D01*
X156441689Y-84005728D02*
X156527403Y-83934300D01*
X156527403Y-83934300D02*
X156570260Y-83862871D01*
X155670260Y-83434300D02*
X154984546Y-83434300D01*
X155327403Y-84005728D02*
X155327403Y-82862871D01*
D10*
X228578431Y-65462428D02*
X228578431Y-63962428D01*
X228102241Y-64462428D02*
X228102241Y-65462428D01*
X228102241Y-64605285D02*
X228054622Y-64533857D01*
X228054622Y-64533857D02*
X227959384Y-64462428D01*
X227959384Y-64462428D02*
X227816527Y-64462428D01*
X227816527Y-64462428D02*
X227721289Y-64533857D01*
X227721289Y-64533857D02*
X227673670Y-64676714D01*
X227673670Y-64676714D02*
X227673670Y-65462428D01*
X226673670Y-65462428D02*
X227245098Y-65462428D01*
X226959384Y-65462428D02*
X226959384Y-63962428D01*
X226959384Y-63962428D02*
X227054622Y-64176714D01*
X227054622Y-64176714D02*
X227149860Y-64319571D01*
X227149860Y-64319571D02*
X227245098Y-64391000D01*
X225483193Y-65462428D02*
X225483193Y-63962428D01*
X225007003Y-64462428D02*
X225007003Y-65462428D01*
X225007003Y-64605285D02*
X224959384Y-64533857D01*
X224959384Y-64533857D02*
X224864146Y-64462428D01*
X224864146Y-64462428D02*
X224721289Y-64462428D01*
X224721289Y-64462428D02*
X224626051Y-64533857D01*
X224626051Y-64533857D02*
X224578432Y-64676714D01*
X224578432Y-64676714D02*
X224578432Y-65462428D01*
X224149860Y-64105285D02*
X224102241Y-64033857D01*
X224102241Y-64033857D02*
X224007003Y-63962428D01*
X224007003Y-63962428D02*
X223768908Y-63962428D01*
X223768908Y-63962428D02*
X223673670Y-64033857D01*
X223673670Y-64033857D02*
X223626051Y-64105285D01*
X223626051Y-64105285D02*
X223578432Y-64248142D01*
X223578432Y-64248142D02*
X223578432Y-64391000D01*
X223578432Y-64391000D02*
X223626051Y-64605285D01*
X223626051Y-64605285D02*
X224197479Y-65462428D01*
X224197479Y-65462428D02*
X223578432Y-65462428D01*
X221626050Y-65462428D02*
X221626050Y-63962428D01*
X221149860Y-64462428D02*
X221149860Y-65462428D01*
X221149860Y-64605285D02*
X221102241Y-64533857D01*
X221102241Y-64533857D02*
X221007003Y-64462428D01*
X221007003Y-64462428D02*
X220864146Y-64462428D01*
X220864146Y-64462428D02*
X220768908Y-64533857D01*
X220768908Y-64533857D02*
X220721289Y-64676714D01*
X220721289Y-64676714D02*
X220721289Y-65462428D01*
X220340336Y-63962428D02*
X219721289Y-63962428D01*
X219721289Y-63962428D02*
X220054622Y-64533857D01*
X220054622Y-64533857D02*
X219911765Y-64533857D01*
X219911765Y-64533857D02*
X219816527Y-64605285D01*
X219816527Y-64605285D02*
X219768908Y-64676714D01*
X219768908Y-64676714D02*
X219721289Y-64819571D01*
X219721289Y-64819571D02*
X219721289Y-65176714D01*
X219721289Y-65176714D02*
X219768908Y-65319571D01*
X219768908Y-65319571D02*
X219816527Y-65391000D01*
X219816527Y-65391000D02*
X219911765Y-65462428D01*
X219911765Y-65462428D02*
X220197479Y-65462428D01*
X220197479Y-65462428D02*
X220292717Y-65391000D01*
X220292717Y-65391000D02*
X220340336Y-65319571D01*
X217768907Y-65462428D02*
X217768907Y-63962428D01*
X217292717Y-64462428D02*
X217292717Y-65462428D01*
X217292717Y-64605285D02*
X217245098Y-64533857D01*
X217245098Y-64533857D02*
X217149860Y-64462428D01*
X217149860Y-64462428D02*
X217007003Y-64462428D01*
X217007003Y-64462428D02*
X216911765Y-64533857D01*
X216911765Y-64533857D02*
X216864146Y-64676714D01*
X216864146Y-64676714D02*
X216864146Y-65462428D01*
X215959384Y-64462428D02*
X215959384Y-65462428D01*
X216197479Y-63891000D02*
X216435574Y-64962428D01*
X216435574Y-64962428D02*
X215816527Y-64962428D01*
D13*
X227243820Y-87914476D02*
X226481915Y-87914476D01*
X226481915Y-87914476D02*
X226100963Y-88104952D01*
X226100963Y-88104952D02*
X225720010Y-88485904D01*
X225720010Y-88485904D02*
X225529534Y-89247809D01*
X225529534Y-89247809D02*
X225529534Y-90581142D01*
X225529534Y-90581142D02*
X225720010Y-91343047D01*
X225720010Y-91343047D02*
X226100963Y-91724000D01*
X226100963Y-91724000D02*
X226481915Y-91914476D01*
X226481915Y-91914476D02*
X227243820Y-91914476D01*
X227243820Y-91914476D02*
X227624772Y-91724000D01*
X227624772Y-91724000D02*
X228005725Y-91343047D01*
X228005725Y-91343047D02*
X228196201Y-90581142D01*
X228196201Y-90581142D02*
X228196201Y-89247809D01*
X228196201Y-89247809D02*
X228005725Y-88485904D01*
X228005725Y-88485904D02*
X227624772Y-88104952D01*
X227624772Y-88104952D02*
X227243820Y-87914476D01*
X222100963Y-89247809D02*
X222100963Y-91914476D01*
X223815249Y-89247809D02*
X223815249Y-91343047D01*
X223815249Y-91343047D02*
X223624772Y-91724000D01*
X223624772Y-91724000D02*
X223243820Y-91914476D01*
X223243820Y-91914476D02*
X222672391Y-91914476D01*
X222672391Y-91914476D02*
X222291439Y-91724000D01*
X222291439Y-91724000D02*
X222100963Y-91533523D01*
X220767629Y-89247809D02*
X219243820Y-89247809D01*
X220196201Y-87914476D02*
X220196201Y-91343047D01*
X220196201Y-91343047D02*
X220005724Y-91724000D01*
X220005724Y-91724000D02*
X219624772Y-91914476D01*
X219624772Y-91914476D02*
X219243820Y-91914476D01*
M02*
