%TF.GenerationSoftware,KiCad,Pcbnew,8.0.5*%
%TF.CreationDate,2024-10-29T23:36:48+01:00*%
%TF.ProjectId,8In-8Out-LAN9252-only,38496e2d-384f-4757-942d-4c414e393235,rev?*%
%TF.SameCoordinates,Original*%
%TF.FileFunction,Soldermask,Top*%
%TF.FilePolarity,Negative*%
%FSLAX46Y46*%
G04 Gerber Fmt 4.6, Leading zero omitted, Abs format (unit mm)*
G04 Created by KiCad (PCBNEW 8.0.5) date 2024-10-29 23:36:48*
%MOMM*%
%LPD*%
G01*
G04 APERTURE LIST*
G04 Aperture macros list*
%AMRoundRect*
0 Rectangle with rounded corners*
0 $1 Rounding radius*
0 $2 $3 $4 $5 $6 $7 $8 $9 X,Y pos of 4 corners*
0 Add a 4 corners polygon primitive as box body*
4,1,4,$2,$3,$4,$5,$6,$7,$8,$9,$2,$3,0*
0 Add four circle primitives for the rounded corners*
1,1,$1+$1,$2,$3*
1,1,$1+$1,$4,$5*
1,1,$1+$1,$6,$7*
1,1,$1+$1,$8,$9*
0 Add four rect primitives between the rounded corners*
20,1,$1+$1,$2,$3,$4,$5,0*
20,1,$1+$1,$4,$5,$6,$7,0*
20,1,$1+$1,$6,$7,$8,$9,0*
20,1,$1+$1,$8,$9,$2,$3,0*%
G04 Aperture macros list end*
%ADD10RoundRect,0.137500X0.137500X-0.662500X0.137500X0.662500X-0.137500X0.662500X-0.137500X-0.662500X0*%
%ADD11RoundRect,0.218750X-0.256250X0.218750X-0.256250X-0.218750X0.256250X-0.218750X0.256250X0.218750X0*%
%ADD12RoundRect,0.218750X0.256250X-0.218750X0.256250X0.218750X-0.256250X0.218750X-0.256250X-0.218750X0*%
%ADD13RoundRect,0.150000X-0.150000X0.825000X-0.150000X-0.825000X0.150000X-0.825000X0.150000X0.825000X0*%
%ADD14RoundRect,0.250000X-0.262500X-0.450000X0.262500X-0.450000X0.262500X0.450000X-0.262500X0.450000X0*%
%ADD15RoundRect,0.137500X-0.662500X-0.137500X0.662500X-0.137500X0.662500X0.137500X-0.662500X0.137500X0*%
%ADD16RoundRect,0.250000X-0.450000X0.262500X-0.450000X-0.262500X0.450000X-0.262500X0.450000X0.262500X0*%
%ADD17RoundRect,0.250000X-0.475000X0.250000X-0.475000X-0.250000X0.475000X-0.250000X0.475000X0.250000X0*%
%ADD18RoundRect,0.250000X-0.650000X-1.550000X0.650000X-1.550000X0.650000X1.550000X-0.650000X1.550000X0*%
%ADD19O,1.800000X3.600000*%
%ADD20RoundRect,0.250000X0.475000X-0.250000X0.475000X0.250000X-0.475000X0.250000X-0.475000X-0.250000X0*%
%ADD21R,8.000000X8.000000*%
%ADD22R,1.500000X0.300000*%
%ADD23R,0.300000X1.500000*%
%ADD24RoundRect,0.243750X-0.456250X0.243750X-0.456250X-0.243750X0.456250X-0.243750X0.456250X0.243750X0*%
%ADD25RoundRect,0.250000X0.250000X0.475000X-0.250000X0.475000X-0.250000X-0.475000X0.250000X-0.475000X0*%
%ADD26R,0.500000X0.800000*%
%ADD27R,0.400000X0.800000*%
%ADD28RoundRect,0.250000X0.600000X0.750000X-0.600000X0.750000X-0.600000X-0.750000X0.600000X-0.750000X0*%
%ADD29O,1.700000X2.000000*%
%ADD30C,1.500000*%
%ADD31RoundRect,0.250000X-0.250000X-0.475000X0.250000X-0.475000X0.250000X0.475000X-0.250000X0.475000X0*%
%ADD32R,0.800000X0.500000*%
%ADD33R,0.800000X0.400000*%
%ADD34R,1.700000X1.700000*%
%ADD35O,1.700000X1.700000*%
%ADD36C,2.600000*%
%ADD37C,1.890000*%
%ADD38C,1.900000*%
%ADD39R,1.900000X1.900000*%
%ADD40C,3.250000*%
%ADD41RoundRect,0.250000X0.262500X0.450000X-0.262500X0.450000X-0.262500X-0.450000X0.262500X-0.450000X0*%
%ADD42C,3.200000*%
%ADD43RoundRect,0.375000X-0.375000X0.625000X-0.375000X-0.625000X0.375000X-0.625000X0.375000X0.625000X0*%
%ADD44RoundRect,0.500000X-1.400000X0.500000X-1.400000X-0.500000X1.400000X-0.500000X1.400000X0.500000X0*%
%ADD45RoundRect,0.243750X-0.243750X-0.456250X0.243750X-0.456250X0.243750X0.456250X-0.243750X0.456250X0*%
%ADD46RoundRect,0.250000X0.450000X-0.262500X0.450000X0.262500X-0.450000X0.262500X-0.450000X-0.262500X0*%
G04 APERTURE END LIST*
D10*
%TO.C,U5*%
X160020000Y-91544000D03*
X161290000Y-91544000D03*
X162560000Y-91544000D03*
X163830000Y-91544000D03*
X165100000Y-91544000D03*
X166370000Y-91544000D03*
X167640000Y-91544000D03*
X168910000Y-91544000D03*
X168910000Y-98044000D03*
X167640000Y-98044000D03*
X166370000Y-98044000D03*
X165100000Y-98044000D03*
X163830000Y-98044000D03*
X162560000Y-98044000D03*
X161290000Y-98044000D03*
X160020000Y-98044000D03*
%TD*%
D11*
%TO.C,D15*%
X202439400Y-72491500D03*
X202439400Y-74066500D03*
%TD*%
D12*
%TO.C,D4*%
X223647000Y-74066500D03*
X223647000Y-72491500D03*
%TD*%
D13*
%TO.C,U6*%
X170307000Y-107761000D03*
X169037000Y-107761000D03*
X167767000Y-107761000D03*
X166497000Y-107761000D03*
X166497000Y-112711000D03*
X167767000Y-112711000D03*
X169037000Y-112711000D03*
X170307000Y-112711000D03*
%TD*%
D14*
%TO.C,R13*%
X145457500Y-104520300D03*
X147282500Y-104520300D03*
%TD*%
%TO.C,R11*%
X162409500Y-113538000D03*
X164234500Y-113538000D03*
%TD*%
D15*
%TO.C,U2*%
X188774000Y-77089000D03*
X188774000Y-78359000D03*
X188774000Y-79629000D03*
X188774000Y-80899000D03*
X188774000Y-82169000D03*
X188774000Y-83439000D03*
X188774000Y-84709000D03*
X188774000Y-85979000D03*
X195274000Y-85979000D03*
X195274000Y-84709000D03*
X195274000Y-83439000D03*
X195274000Y-82169000D03*
X195274000Y-80899000D03*
X195274000Y-79629000D03*
X195274000Y-78359000D03*
X195274000Y-77089000D03*
%TD*%
D16*
%TO.C,R7*%
X196088000Y-116181500D03*
X196088000Y-118006500D03*
%TD*%
D17*
%TO.C,C13*%
X198882000Y-93030000D03*
X198882000Y-94930000D03*
%TD*%
D18*
%TO.C,J1*%
X146222500Y-68072000D03*
D19*
X149722500Y-68072000D03*
%TD*%
D12*
%TO.C,D14*%
X204471400Y-74066500D03*
X204471400Y-72491500D03*
%TD*%
D11*
%TO.C,D9*%
X213107400Y-72491500D03*
X213107400Y-74066500D03*
%TD*%
D20*
%TO.C,B3*%
X201930000Y-98806000D03*
X201930000Y-96906000D03*
%TD*%
D21*
%TO.C,U3*%
X188392000Y-105918000D03*
D22*
X194092000Y-102168000D03*
X194092000Y-102668000D03*
X194092000Y-103168000D03*
X194092000Y-103668000D03*
X194092000Y-104168000D03*
X194092000Y-104668000D03*
X194092000Y-105168000D03*
X194092000Y-105668000D03*
X194092000Y-106168000D03*
X194092000Y-106668000D03*
X194092000Y-107168000D03*
X194092000Y-107668000D03*
X194092000Y-108168000D03*
X194092000Y-108668000D03*
X194092000Y-109168000D03*
X194092000Y-109668000D03*
D23*
X192142000Y-111618000D03*
X191642000Y-111618000D03*
X191142000Y-111618000D03*
X190642000Y-111618000D03*
X190142000Y-111618000D03*
X189642000Y-111618000D03*
X189142000Y-111618000D03*
X188642000Y-111618000D03*
X188142000Y-111618000D03*
X187642000Y-111618000D03*
X187142000Y-111618000D03*
X186642000Y-111618000D03*
X186142000Y-111618000D03*
X185642000Y-111618000D03*
X185142000Y-111618000D03*
X184642000Y-111618000D03*
D22*
X182692000Y-109668000D03*
X182692000Y-109168000D03*
X182692000Y-108668000D03*
X182692000Y-108168000D03*
X182692000Y-107668000D03*
X182692000Y-107168000D03*
X182692000Y-106668000D03*
X182692000Y-106168000D03*
X182692000Y-105668000D03*
X182692000Y-105168000D03*
X182692000Y-104668000D03*
X182692000Y-104168000D03*
X182692000Y-103668000D03*
X182692000Y-103168000D03*
X182692000Y-102668000D03*
X182692000Y-102168000D03*
D23*
X184642000Y-100218000D03*
X185142000Y-100218000D03*
X185642000Y-100218000D03*
X186142000Y-100218000D03*
X186642000Y-100218000D03*
X187142000Y-100218000D03*
X187642000Y-100218000D03*
X188142000Y-100218000D03*
X188642000Y-100218000D03*
X189142000Y-100218000D03*
X189642000Y-100218000D03*
X190142000Y-100218000D03*
X190642000Y-100218000D03*
X191142000Y-100218000D03*
X191642000Y-100218000D03*
X192142000Y-100218000D03*
%TD*%
D14*
%TO.C,R9*%
X162409500Y-109474000D03*
X164234500Y-109474000D03*
%TD*%
D24*
%TO.C,D16*%
X192024000Y-116156500D03*
X192024000Y-118031500D03*
%TD*%
D25*
%TO.C,C6*%
X176210000Y-111506000D03*
X174310000Y-111506000D03*
%TD*%
D14*
%TO.C,R1*%
X174347500Y-99060000D03*
X176172500Y-99060000D03*
%TD*%
D25*
%TO.C,C3*%
X176210000Y-117602000D03*
X174310000Y-117602000D03*
%TD*%
D17*
%TO.C,C15*%
X198120000Y-116144000D03*
X198120000Y-118044000D03*
%TD*%
D26*
%TO.C,CN4*%
X204076000Y-101208000D03*
D27*
X203276000Y-101208000D03*
X202476000Y-101208000D03*
D26*
X201676000Y-101208000D03*
X201676000Y-103008000D03*
D27*
X202476000Y-103008000D03*
X203276000Y-103008000D03*
D26*
X204076000Y-103008000D03*
%TD*%
D16*
%TO.C,R5*%
X186182000Y-116181500D03*
X186182000Y-118006500D03*
%TD*%
D11*
%TO.C,D1*%
X228727000Y-72491500D03*
X228727000Y-74066500D03*
%TD*%
D18*
%TO.C,J5*%
X172974000Y-86360000D03*
D19*
X176474000Y-86360000D03*
X179974000Y-86360000D03*
X183474000Y-86360000D03*
%TD*%
D20*
%TO.C,C14*%
X201930000Y-95250000D03*
X201930000Y-93350000D03*
%TD*%
D26*
%TO.C,CN2*%
X208477000Y-103135000D03*
D27*
X209277000Y-103135000D03*
X210077000Y-103135000D03*
D26*
X210877000Y-103135000D03*
X210877000Y-101335000D03*
D27*
X210077000Y-101335000D03*
X209277000Y-101335000D03*
D26*
X208477000Y-101335000D03*
%TD*%
D28*
%TO.C,J8*%
X149967000Y-86630300D03*
D29*
X147467000Y-86630300D03*
%TD*%
D26*
%TO.C,RN2*%
X208477000Y-106691000D03*
D27*
X209277000Y-106691000D03*
X210077000Y-106691000D03*
D26*
X210877000Y-106691000D03*
X210877000Y-104891000D03*
D27*
X210077000Y-104891000D03*
X209277000Y-104891000D03*
D26*
X208477000Y-104891000D03*
%TD*%
D30*
%TO.C,Y1*%
X189176000Y-94996000D03*
X194056000Y-94996000D03*
%TD*%
D31*
%TO.C,C1*%
X208854000Y-96520000D03*
X210754000Y-96520000D03*
%TD*%
D25*
%TO.C,C7*%
X176210000Y-109474000D03*
X174310000Y-109474000D03*
%TD*%
D31*
%TO.C,C19*%
X145420000Y-106552300D03*
X147320000Y-106552300D03*
%TD*%
D32*
%TO.C,RN8*%
X191643000Y-72517000D03*
D33*
X191643000Y-73317000D03*
X191643000Y-74117000D03*
D32*
X191643000Y-74917000D03*
X193443000Y-74917000D03*
D33*
X193443000Y-74117000D03*
X193443000Y-73317000D03*
D32*
X193443000Y-72517000D03*
%TD*%
D25*
%TO.C,C5*%
X176210000Y-113538000D03*
X174310000Y-113538000D03*
%TD*%
D34*
%TO.C,J9*%
X151496000Y-74295000D03*
D35*
X148956000Y-74295000D03*
X146416000Y-74295000D03*
%TD*%
D18*
%TO.C,J3*%
X201717000Y-68072000D03*
D19*
X205217000Y-68072000D03*
X208717000Y-68072000D03*
X212217000Y-68072000D03*
%TD*%
D12*
%TO.C,D8*%
X216535000Y-74066500D03*
X216535000Y-72491500D03*
%TD*%
D36*
%TO.C,IN1*%
X219887800Y-117195600D03*
X219887800Y-101447600D03*
D37*
X226314000Y-102997000D03*
X227838000Y-105537000D03*
X226314000Y-113106200D03*
X227838000Y-115646200D03*
D38*
X214045800Y-104876600D03*
X216585800Y-106146600D03*
X214045800Y-107416600D03*
X216585800Y-108686600D03*
X214045800Y-109956600D03*
X216585800Y-111226600D03*
X214045800Y-112496600D03*
D39*
X216585800Y-113766600D03*
D40*
X222935800Y-115036600D03*
X222935800Y-103606600D03*
%TD*%
D18*
%TO.C,J2*%
X217338000Y-68072000D03*
D19*
X220838000Y-68072000D03*
X224338000Y-68072000D03*
X227838000Y-68072000D03*
%TD*%
D17*
%TO.C,C10*%
X184404000Y-93030000D03*
X184404000Y-94930000D03*
%TD*%
D11*
%TO.C,D7*%
X218059000Y-72491500D03*
X218059000Y-74066500D03*
%TD*%
D41*
%TO.C,R2*%
X176172500Y-94996000D03*
X174347500Y-94996000D03*
%TD*%
D25*
%TO.C,B5*%
X203896000Y-109220000D03*
X201996000Y-109220000D03*
%TD*%
D14*
%TO.C,R12*%
X162409500Y-115570000D03*
X164234500Y-115570000D03*
%TD*%
D31*
%TO.C,C9*%
X174310000Y-101092000D03*
X176210000Y-101092000D03*
%TD*%
D25*
%TO.C,B6*%
X203896000Y-107188000D03*
X201996000Y-107188000D03*
%TD*%
D42*
%TO.C,H3*%
X155702000Y-115062000D03*
%TD*%
D32*
%TO.C,CN3*%
X179832000Y-115716000D03*
D33*
X179832000Y-116516000D03*
X179832000Y-117316000D03*
D32*
X179832000Y-118116000D03*
X181632000Y-118116000D03*
D33*
X181632000Y-117316000D03*
X181632000Y-116516000D03*
D32*
X181632000Y-115716000D03*
%TD*%
D25*
%TO.C,C4*%
X176210000Y-115570000D03*
X174310000Y-115570000D03*
%TD*%
D12*
%TO.C,D17*%
X200915400Y-74066500D03*
X200915400Y-72491500D03*
%TD*%
D26*
%TO.C,CN1*%
X208477000Y-90689000D03*
D27*
X209277000Y-90689000D03*
X210077000Y-90689000D03*
D26*
X210877000Y-90689000D03*
X210877000Y-88889000D03*
D27*
X210077000Y-88889000D03*
X209277000Y-88889000D03*
D26*
X208477000Y-88889000D03*
%TD*%
D17*
%TO.C,C12*%
X194056000Y-116144000D03*
X194056000Y-118044000D03*
%TD*%
D31*
%TO.C,B1*%
X208854000Y-98552000D03*
X210754000Y-98552000D03*
%TD*%
D41*
%TO.C,R8*%
X203858500Y-113284000D03*
X202033500Y-113284000D03*
%TD*%
D20*
%TO.C,C16*%
X203962000Y-95250000D03*
X203962000Y-93350000D03*
%TD*%
%TO.C,B7*%
X203962000Y-98806000D03*
X203962000Y-96906000D03*
%TD*%
D26*
%TO.C,RN3*%
X203270000Y-89800000D03*
D27*
X204070000Y-89800000D03*
X204870000Y-89800000D03*
D26*
X205670000Y-89800000D03*
X205670000Y-88000000D03*
D27*
X204870000Y-88000000D03*
X204070000Y-88000000D03*
D26*
X203270000Y-88000000D03*
%TD*%
D25*
%TO.C,C18*%
X164272000Y-107442000D03*
X162372000Y-107442000D03*
%TD*%
D26*
%TO.C,RN7*%
X187522000Y-89800000D03*
D27*
X188322000Y-89800000D03*
X189122000Y-89800000D03*
D26*
X189922000Y-89800000D03*
X189922000Y-88000000D03*
D27*
X189122000Y-88000000D03*
X188322000Y-88000000D03*
D26*
X187522000Y-88000000D03*
%TD*%
D15*
%TO.C,U1*%
X203252000Y-77089000D03*
X203252000Y-78359000D03*
X203252000Y-79629000D03*
X203252000Y-80899000D03*
X203252000Y-82169000D03*
X203252000Y-83439000D03*
X203252000Y-84709000D03*
X203252000Y-85979000D03*
X209752000Y-85979000D03*
X209752000Y-84709000D03*
X209752000Y-83439000D03*
X209752000Y-82169000D03*
X209752000Y-80899000D03*
X209752000Y-79629000D03*
X209752000Y-78359000D03*
X209752000Y-77089000D03*
%TD*%
D18*
%TO.C,J4*%
X170475000Y-68072000D03*
D19*
X173975000Y-68072000D03*
X177475000Y-68072000D03*
X180975000Y-68072000D03*
%TD*%
D41*
%TO.C,R3*%
X176172500Y-97028000D03*
X174347500Y-97028000D03*
%TD*%
D11*
%TO.C,D5*%
X221615000Y-72491500D03*
X221615000Y-74066500D03*
%TD*%
D42*
%TO.C,H4*%
X207264000Y-117348000D03*
%TD*%
D14*
%TO.C,R10*%
X162409500Y-111506000D03*
X164234500Y-111506000D03*
%TD*%
D43*
%TO.C,U7*%
X151144000Y-93496300D03*
X148844000Y-93496300D03*
D44*
X148844000Y-99796300D03*
D43*
X146544000Y-93496300D03*
%TD*%
D31*
%TO.C,C22*%
X149738000Y-106552300D03*
X151638000Y-106552300D03*
%TD*%
D12*
%TO.C,D12*%
X208027400Y-74066500D03*
X208027400Y-72491500D03*
%TD*%
D31*
%TO.C,B2*%
X208854000Y-111506000D03*
X210754000Y-111506000D03*
%TD*%
D42*
%TO.C,H2*%
X156464000Y-77470000D03*
%TD*%
D31*
%TO.C,C21*%
X149738000Y-104520300D03*
X151638000Y-104520300D03*
%TD*%
D26*
%TO.C,RN4*%
X200336000Y-88000000D03*
D27*
X199536000Y-88000000D03*
X198736000Y-88000000D03*
D26*
X197936000Y-88000000D03*
X197936000Y-89800000D03*
D27*
X198736000Y-89800000D03*
X199536000Y-89800000D03*
D26*
X200336000Y-89800000D03*
%TD*%
D18*
%TO.C,J7*%
X156464000Y-86360000D03*
D19*
X159964000Y-86360000D03*
X163464000Y-86360000D03*
X166964000Y-86360000D03*
%TD*%
D20*
%TO.C,C11*%
X184150000Y-118044000D03*
X184150000Y-116144000D03*
%TD*%
D11*
%TO.C,D11*%
X209551400Y-72491500D03*
X209551400Y-74066500D03*
%TD*%
D18*
%TO.C,J10*%
X186096000Y-68072000D03*
D19*
X189596000Y-68072000D03*
X193096000Y-68072000D03*
X196596000Y-68072000D03*
%TD*%
D26*
%TO.C,RN1*%
X208477000Y-93991000D03*
D27*
X209277000Y-93991000D03*
X210077000Y-93991000D03*
D26*
X210877000Y-93991000D03*
X210877000Y-92191000D03*
D27*
X210077000Y-92191000D03*
X209277000Y-92191000D03*
D26*
X208477000Y-92191000D03*
%TD*%
D12*
%TO.C,D2*%
X227203000Y-74066500D03*
X227203000Y-72491500D03*
%TD*%
D36*
%TO.C,OUT1*%
X219944000Y-98044000D03*
X219944000Y-82296000D03*
D37*
X226370200Y-83845400D03*
X227894200Y-86385400D03*
X226370200Y-93954600D03*
X227894200Y-96494600D03*
D38*
X214102000Y-85725000D03*
X216642000Y-86995000D03*
X214102000Y-88265000D03*
X216642000Y-89535000D03*
X214102000Y-90805000D03*
X216642000Y-92075000D03*
X214102000Y-93345000D03*
D39*
X216642000Y-94615000D03*
D40*
X222992000Y-95885000D03*
X222992000Y-84455000D03*
%TD*%
D12*
%TO.C,D6*%
X220091000Y-74066500D03*
X220091000Y-72491500D03*
%TD*%
D45*
%TO.C,D18*%
X145432500Y-102488300D03*
X147307500Y-102488300D03*
%TD*%
D10*
%TO.C,U4*%
X161671000Y-73458000D03*
X162941000Y-73458000D03*
X164211000Y-73458000D03*
X165481000Y-73458000D03*
X166751000Y-73458000D03*
X168021000Y-73458000D03*
X169291000Y-73458000D03*
X170561000Y-73458000D03*
X170561000Y-79958000D03*
X169291000Y-79958000D03*
X168021000Y-79958000D03*
X166751000Y-79958000D03*
X165481000Y-79958000D03*
X164211000Y-79958000D03*
X162941000Y-79958000D03*
X161671000Y-79958000D03*
%TD*%
D46*
%TO.C,R6*%
X189992000Y-118006500D03*
X189992000Y-116181500D03*
%TD*%
D12*
%TO.C,D10*%
X211583400Y-74066500D03*
X211583400Y-72491500D03*
%TD*%
D31*
%TO.C,C2*%
X208835000Y-109336000D03*
X210735000Y-109336000D03*
%TD*%
D26*
%TO.C,RN10*%
X168656000Y-101324000D03*
D27*
X167856000Y-101324000D03*
X167056000Y-101324000D03*
D26*
X166256000Y-101324000D03*
X166256000Y-103124000D03*
D27*
X167056000Y-103124000D03*
X167856000Y-103124000D03*
D26*
X168656000Y-103124000D03*
%TD*%
D25*
%TO.C,B4*%
X203896000Y-111252000D03*
X201996000Y-111252000D03*
%TD*%
D11*
%TO.C,D13*%
X205995400Y-72491500D03*
X205995400Y-74066500D03*
%TD*%
D41*
%TO.C,R4*%
X176172500Y-92964000D03*
X174347500Y-92964000D03*
%TD*%
D26*
%TO.C,RN5*%
X220358000Y-78359000D03*
D27*
X221158000Y-78359000D03*
X221958000Y-78359000D03*
D26*
X222758000Y-78359000D03*
X222758000Y-76559000D03*
D27*
X221958000Y-76559000D03*
X221158000Y-76559000D03*
D26*
X220358000Y-76559000D03*
%TD*%
D25*
%TO.C,C17*%
X164272000Y-117602000D03*
X162372000Y-117602000D03*
%TD*%
D11*
%TO.C,D3*%
X225171000Y-72491500D03*
X225171000Y-74066500D03*
%TD*%
D25*
%TO.C,C8*%
X176210000Y-107442000D03*
X174310000Y-107442000D03*
%TD*%
D26*
%TO.C,RN6*%
X195110000Y-88000000D03*
D27*
X194310000Y-88000000D03*
X193510000Y-88000000D03*
D26*
X192710000Y-88000000D03*
X192710000Y-89800000D03*
D27*
X193510000Y-89800000D03*
X194310000Y-89800000D03*
D26*
X195110000Y-89800000D03*
%TD*%
D31*
%TO.C,C20*%
X149738000Y-102488300D03*
X151638000Y-102488300D03*
%TD*%
D32*
%TO.C,RN9*%
X172582000Y-75508000D03*
D33*
X172582000Y-76308000D03*
X172582000Y-77108000D03*
D32*
X172582000Y-77908000D03*
X174382000Y-77908000D03*
D33*
X174382000Y-77108000D03*
X174382000Y-76308000D03*
D32*
X174382000Y-75508000D03*
%TD*%
D42*
%TO.C,H1*%
X215392000Y-78740000D03*
%TD*%
D18*
%TO.C,J6*%
X154854000Y-68072000D03*
D19*
X158354000Y-68072000D03*
X161854000Y-68072000D03*
X165354000Y-68072000D03*
%TD*%
M02*
