%TF.GenerationSoftware,KiCad,Pcbnew,8.0.5*%
%TF.CreationDate,2024-10-29T23:36:48+01:00*%
%TF.ProjectId,8In-8Out-LAN9252-only,38496e2d-384f-4757-942d-4c414e393235,rev?*%
%TF.SameCoordinates,Original*%
%TF.FileFunction,Legend,Top*%
%TF.FilePolarity,Positive*%
%FSLAX46Y46*%
G04 Gerber Fmt 4.6, Leading zero omitted, Abs format (unit mm)*
G04 Created by KiCad (PCBNEW 8.0.5) date 2024-10-29 23:36:48*
%MOMM*%
%LPD*%
G01*
G04 APERTURE LIST*
%ADD10C,0.150000*%
%ADD11C,0.125000*%
%ADD12C,0.120000*%
G04 APERTURE END LIST*
D10*
X146805034Y-79673220D02*
X146805034Y-78911316D01*
X147185987Y-79292268D02*
X146424082Y-79292268D01*
X146281225Y-78482744D02*
X146233606Y-78435125D01*
X146233606Y-78435125D02*
X146185987Y-78339887D01*
X146185987Y-78339887D02*
X146185987Y-78101792D01*
X146185987Y-78101792D02*
X146233606Y-78006554D01*
X146233606Y-78006554D02*
X146281225Y-77958935D01*
X146281225Y-77958935D02*
X146376463Y-77911316D01*
X146376463Y-77911316D02*
X146471701Y-77911316D01*
X146471701Y-77911316D02*
X146614558Y-77958935D01*
X146614558Y-77958935D02*
X147185987Y-78530363D01*
X147185987Y-78530363D02*
X147185987Y-77911316D01*
X146519320Y-77054173D02*
X147185987Y-77054173D01*
X146138368Y-77292268D02*
X146852653Y-77530363D01*
X146852653Y-77530363D02*
X146852653Y-76911316D01*
X146185987Y-76673220D02*
X147185987Y-76339887D01*
X147185987Y-76339887D02*
X146185987Y-76006554D01*
X151634866Y-79673220D02*
X151634866Y-78911316D01*
X151111057Y-78482744D02*
X151063438Y-78435125D01*
X151063438Y-78435125D02*
X151015819Y-78339887D01*
X151015819Y-78339887D02*
X151015819Y-78101792D01*
X151015819Y-78101792D02*
X151063438Y-78006554D01*
X151063438Y-78006554D02*
X151111057Y-77958935D01*
X151111057Y-77958935D02*
X151206295Y-77911316D01*
X151206295Y-77911316D02*
X151301533Y-77911316D01*
X151301533Y-77911316D02*
X151444390Y-77958935D01*
X151444390Y-77958935D02*
X152015819Y-78530363D01*
X152015819Y-78530363D02*
X152015819Y-77911316D01*
X151349152Y-77054173D02*
X152015819Y-77054173D01*
X150968200Y-77292268D02*
X151682485Y-77530363D01*
X151682485Y-77530363D02*
X151682485Y-76911316D01*
X151015819Y-76673220D02*
X152015819Y-76339887D01*
X152015819Y-76339887D02*
X151015819Y-76006554D01*
X143487969Y-72117009D02*
X143187969Y-72117009D01*
X143187969Y-72640819D02*
X143187969Y-71640819D01*
X143187969Y-71640819D02*
X143616541Y-71640819D01*
X143959398Y-72640819D02*
X143959398Y-71974152D01*
X143959398Y-71640819D02*
X143916541Y-71688438D01*
X143916541Y-71688438D02*
X143959398Y-71736057D01*
X143959398Y-71736057D02*
X144002255Y-71688438D01*
X144002255Y-71688438D02*
X143959398Y-71640819D01*
X143959398Y-71640819D02*
X143959398Y-71736057D01*
X144730826Y-72593200D02*
X144645112Y-72640819D01*
X144645112Y-72640819D02*
X144473684Y-72640819D01*
X144473684Y-72640819D02*
X144387969Y-72593200D01*
X144387969Y-72593200D02*
X144345112Y-72497961D01*
X144345112Y-72497961D02*
X144345112Y-72117009D01*
X144345112Y-72117009D02*
X144387969Y-72021771D01*
X144387969Y-72021771D02*
X144473684Y-71974152D01*
X144473684Y-71974152D02*
X144645112Y-71974152D01*
X144645112Y-71974152D02*
X144730826Y-72021771D01*
X144730826Y-72021771D02*
X144773684Y-72117009D01*
X144773684Y-72117009D02*
X144773684Y-72212247D01*
X144773684Y-72212247D02*
X144345112Y-72307485D01*
X145287970Y-72640819D02*
X145202255Y-72593200D01*
X145202255Y-72593200D02*
X145159398Y-72497961D01*
X145159398Y-72497961D02*
X145159398Y-71640819D01*
X146016542Y-72640819D02*
X146016542Y-71640819D01*
X146016542Y-72593200D02*
X145930827Y-72640819D01*
X145930827Y-72640819D02*
X145759399Y-72640819D01*
X145759399Y-72640819D02*
X145673684Y-72593200D01*
X145673684Y-72593200D02*
X145630827Y-72545580D01*
X145630827Y-72545580D02*
X145587970Y-72450342D01*
X145587970Y-72450342D02*
X145587970Y-72164628D01*
X145587970Y-72164628D02*
X145630827Y-72069390D01*
X145630827Y-72069390D02*
X145673684Y-72021771D01*
X145673684Y-72021771D02*
X145759399Y-71974152D01*
X145759399Y-71974152D02*
X145930827Y-71974152D01*
X145930827Y-71974152D02*
X146016542Y-72021771D01*
X147516542Y-72593200D02*
X147430827Y-72640819D01*
X147430827Y-72640819D02*
X147259399Y-72640819D01*
X147259399Y-72640819D02*
X147173684Y-72593200D01*
X147173684Y-72593200D02*
X147130827Y-72545580D01*
X147130827Y-72545580D02*
X147087970Y-72450342D01*
X147087970Y-72450342D02*
X147087970Y-72164628D01*
X147087970Y-72164628D02*
X147130827Y-72069390D01*
X147130827Y-72069390D02*
X147173684Y-72021771D01*
X147173684Y-72021771D02*
X147259399Y-71974152D01*
X147259399Y-71974152D02*
X147430827Y-71974152D01*
X147430827Y-71974152D02*
X147516542Y-72021771D01*
X148030828Y-72640819D02*
X147945113Y-72593200D01*
X147945113Y-72593200D02*
X147902256Y-72545580D01*
X147902256Y-72545580D02*
X147859399Y-72450342D01*
X147859399Y-72450342D02*
X147859399Y-72164628D01*
X147859399Y-72164628D02*
X147902256Y-72069390D01*
X147902256Y-72069390D02*
X147945113Y-72021771D01*
X147945113Y-72021771D02*
X148030828Y-71974152D01*
X148030828Y-71974152D02*
X148159399Y-71974152D01*
X148159399Y-71974152D02*
X148245113Y-72021771D01*
X148245113Y-72021771D02*
X148287971Y-72069390D01*
X148287971Y-72069390D02*
X148330828Y-72164628D01*
X148330828Y-72164628D02*
X148330828Y-72450342D01*
X148330828Y-72450342D02*
X148287971Y-72545580D01*
X148287971Y-72545580D02*
X148245113Y-72593200D01*
X148245113Y-72593200D02*
X148159399Y-72640819D01*
X148159399Y-72640819D02*
X148030828Y-72640819D01*
X148716542Y-72640819D02*
X148716542Y-71974152D01*
X148716542Y-72069390D02*
X148759399Y-72021771D01*
X148759399Y-72021771D02*
X148845114Y-71974152D01*
X148845114Y-71974152D02*
X148973685Y-71974152D01*
X148973685Y-71974152D02*
X149059399Y-72021771D01*
X149059399Y-72021771D02*
X149102257Y-72117009D01*
X149102257Y-72117009D02*
X149102257Y-72640819D01*
X149102257Y-72117009D02*
X149145114Y-72021771D01*
X149145114Y-72021771D02*
X149230828Y-71974152D01*
X149230828Y-71974152D02*
X149359399Y-71974152D01*
X149359399Y-71974152D02*
X149445114Y-72021771D01*
X149445114Y-72021771D02*
X149487971Y-72117009D01*
X149487971Y-72117009D02*
X149487971Y-72640819D01*
X149916542Y-72640819D02*
X149916542Y-71974152D01*
X149916542Y-72069390D02*
X149959399Y-72021771D01*
X149959399Y-72021771D02*
X150045114Y-71974152D01*
X150045114Y-71974152D02*
X150173685Y-71974152D01*
X150173685Y-71974152D02*
X150259399Y-72021771D01*
X150259399Y-72021771D02*
X150302257Y-72117009D01*
X150302257Y-72117009D02*
X150302257Y-72640819D01*
X150302257Y-72117009D02*
X150345114Y-72021771D01*
X150345114Y-72021771D02*
X150430828Y-71974152D01*
X150430828Y-71974152D02*
X150559399Y-71974152D01*
X150559399Y-71974152D02*
X150645114Y-72021771D01*
X150645114Y-72021771D02*
X150687971Y-72117009D01*
X150687971Y-72117009D02*
X150687971Y-72640819D01*
X151245114Y-72640819D02*
X151159399Y-72593200D01*
X151159399Y-72593200D02*
X151116542Y-72545580D01*
X151116542Y-72545580D02*
X151073685Y-72450342D01*
X151073685Y-72450342D02*
X151073685Y-72164628D01*
X151073685Y-72164628D02*
X151116542Y-72069390D01*
X151116542Y-72069390D02*
X151159399Y-72021771D01*
X151159399Y-72021771D02*
X151245114Y-71974152D01*
X151245114Y-71974152D02*
X151373685Y-71974152D01*
X151373685Y-71974152D02*
X151459399Y-72021771D01*
X151459399Y-72021771D02*
X151502257Y-72069390D01*
X151502257Y-72069390D02*
X151545114Y-72164628D01*
X151545114Y-72164628D02*
X151545114Y-72450342D01*
X151545114Y-72450342D02*
X151502257Y-72545580D01*
X151502257Y-72545580D02*
X151459399Y-72593200D01*
X151459399Y-72593200D02*
X151373685Y-72640819D01*
X151373685Y-72640819D02*
X151245114Y-72640819D01*
X151930828Y-71974152D02*
X151930828Y-72640819D01*
X151930828Y-72069390D02*
X151973685Y-72021771D01*
X151973685Y-72021771D02*
X152059400Y-71974152D01*
X152059400Y-71974152D02*
X152187971Y-71974152D01*
X152187971Y-71974152D02*
X152273685Y-72021771D01*
X152273685Y-72021771D02*
X152316543Y-72117009D01*
X152316543Y-72117009D02*
X152316543Y-72640819D01*
X153345114Y-71974152D02*
X153559400Y-72640819D01*
X153559400Y-72640819D02*
X153773685Y-71974152D01*
X154245114Y-72640819D02*
X154159399Y-72593200D01*
X154159399Y-72593200D02*
X154116542Y-72545580D01*
X154116542Y-72545580D02*
X154073685Y-72450342D01*
X154073685Y-72450342D02*
X154073685Y-72164628D01*
X154073685Y-72164628D02*
X154116542Y-72069390D01*
X154116542Y-72069390D02*
X154159399Y-72021771D01*
X154159399Y-72021771D02*
X154245114Y-71974152D01*
X154245114Y-71974152D02*
X154373685Y-71974152D01*
X154373685Y-71974152D02*
X154459399Y-72021771D01*
X154459399Y-72021771D02*
X154502257Y-72069390D01*
X154502257Y-72069390D02*
X154545114Y-72164628D01*
X154545114Y-72164628D02*
X154545114Y-72450342D01*
X154545114Y-72450342D02*
X154502257Y-72545580D01*
X154502257Y-72545580D02*
X154459399Y-72593200D01*
X154459399Y-72593200D02*
X154373685Y-72640819D01*
X154373685Y-72640819D02*
X154245114Y-72640819D01*
X155059400Y-72640819D02*
X154973685Y-72593200D01*
X154973685Y-72593200D02*
X154930828Y-72497961D01*
X154930828Y-72497961D02*
X154930828Y-71640819D01*
X155273686Y-71974152D02*
X155616543Y-71974152D01*
X155402257Y-71640819D02*
X155402257Y-72497961D01*
X155402257Y-72497961D02*
X155445114Y-72593200D01*
X155445114Y-72593200D02*
X155530829Y-72640819D01*
X155530829Y-72640819D02*
X155616543Y-72640819D01*
X156302258Y-72640819D02*
X156302258Y-72117009D01*
X156302258Y-72117009D02*
X156259400Y-72021771D01*
X156259400Y-72021771D02*
X156173686Y-71974152D01*
X156173686Y-71974152D02*
X156002258Y-71974152D01*
X156002258Y-71974152D02*
X155916543Y-72021771D01*
X156302258Y-72593200D02*
X156216543Y-72640819D01*
X156216543Y-72640819D02*
X156002258Y-72640819D01*
X156002258Y-72640819D02*
X155916543Y-72593200D01*
X155916543Y-72593200D02*
X155873686Y-72497961D01*
X155873686Y-72497961D02*
X155873686Y-72402723D01*
X155873686Y-72402723D02*
X155916543Y-72307485D01*
X155916543Y-72307485D02*
X156002258Y-72259866D01*
X156002258Y-72259866D02*
X156216543Y-72259866D01*
X156216543Y-72259866D02*
X156302258Y-72212247D01*
X157116544Y-71974152D02*
X157116544Y-72783676D01*
X157116544Y-72783676D02*
X157073686Y-72878914D01*
X157073686Y-72878914D02*
X157030829Y-72926533D01*
X157030829Y-72926533D02*
X156945115Y-72974152D01*
X156945115Y-72974152D02*
X156816544Y-72974152D01*
X156816544Y-72974152D02*
X156730829Y-72926533D01*
X157116544Y-72593200D02*
X157030829Y-72640819D01*
X157030829Y-72640819D02*
X156859401Y-72640819D01*
X156859401Y-72640819D02*
X156773686Y-72593200D01*
X156773686Y-72593200D02*
X156730829Y-72545580D01*
X156730829Y-72545580D02*
X156687972Y-72450342D01*
X156687972Y-72450342D02*
X156687972Y-72164628D01*
X156687972Y-72164628D02*
X156730829Y-72069390D01*
X156730829Y-72069390D02*
X156773686Y-72021771D01*
X156773686Y-72021771D02*
X156859401Y-71974152D01*
X156859401Y-71974152D02*
X157030829Y-71974152D01*
X157030829Y-71974152D02*
X157116544Y-72021771D01*
X157887972Y-72593200D02*
X157802258Y-72640819D01*
X157802258Y-72640819D02*
X157630830Y-72640819D01*
X157630830Y-72640819D02*
X157545115Y-72593200D01*
X157545115Y-72593200D02*
X157502258Y-72497961D01*
X157502258Y-72497961D02*
X157502258Y-72117009D01*
X157502258Y-72117009D02*
X157545115Y-72021771D01*
X157545115Y-72021771D02*
X157630830Y-71974152D01*
X157630830Y-71974152D02*
X157802258Y-71974152D01*
X157802258Y-71974152D02*
X157887972Y-72021771D01*
X157887972Y-72021771D02*
X157930830Y-72117009D01*
X157930830Y-72117009D02*
X157930830Y-72212247D01*
X157930830Y-72212247D02*
X157502258Y-72307485D01*
X202894219Y-76293571D02*
X201894219Y-76293571D01*
X201894219Y-76293571D02*
X201894219Y-76150714D01*
X201894219Y-76150714D02*
X201941838Y-76065000D01*
X201941838Y-76065000D02*
X202037076Y-76007857D01*
X202037076Y-76007857D02*
X202132314Y-75979286D01*
X202132314Y-75979286D02*
X202322790Y-75950714D01*
X202322790Y-75950714D02*
X202465647Y-75950714D01*
X202465647Y-75950714D02*
X202656123Y-75979286D01*
X202656123Y-75979286D02*
X202751361Y-76007857D01*
X202751361Y-76007857D02*
X202846600Y-76065000D01*
X202846600Y-76065000D02*
X202894219Y-76150714D01*
X202894219Y-76150714D02*
X202894219Y-76293571D01*
X202894219Y-75379286D02*
X202894219Y-75722143D01*
X202894219Y-75550714D02*
X201894219Y-75550714D01*
X201894219Y-75550714D02*
X202037076Y-75607857D01*
X202037076Y-75607857D02*
X202132314Y-75665000D01*
X202132314Y-75665000D02*
X202179933Y-75722143D01*
X201894219Y-74836428D02*
X201894219Y-75122142D01*
X201894219Y-75122142D02*
X202370409Y-75150714D01*
X202370409Y-75150714D02*
X202322790Y-75122142D01*
X202322790Y-75122142D02*
X202275171Y-75065000D01*
X202275171Y-75065000D02*
X202275171Y-74922142D01*
X202275171Y-74922142D02*
X202322790Y-74865000D01*
X202322790Y-74865000D02*
X202370409Y-74836428D01*
X202370409Y-74836428D02*
X202465647Y-74807857D01*
X202465647Y-74807857D02*
X202703742Y-74807857D01*
X202703742Y-74807857D02*
X202798980Y-74836428D01*
X202798980Y-74836428D02*
X202846600Y-74865000D01*
X202846600Y-74865000D02*
X202894219Y-74922142D01*
X202894219Y-74922142D02*
X202894219Y-75065000D01*
X202894219Y-75065000D02*
X202846600Y-75122142D01*
X202846600Y-75122142D02*
X202798980Y-75150714D01*
X224101819Y-76007856D02*
X223101819Y-76007856D01*
X223101819Y-76007856D02*
X223101819Y-75864999D01*
X223101819Y-75864999D02*
X223149438Y-75779285D01*
X223149438Y-75779285D02*
X223244676Y-75722142D01*
X223244676Y-75722142D02*
X223339914Y-75693571D01*
X223339914Y-75693571D02*
X223530390Y-75664999D01*
X223530390Y-75664999D02*
X223673247Y-75664999D01*
X223673247Y-75664999D02*
X223863723Y-75693571D01*
X223863723Y-75693571D02*
X223958961Y-75722142D01*
X223958961Y-75722142D02*
X224054200Y-75779285D01*
X224054200Y-75779285D02*
X224101819Y-75864999D01*
X224101819Y-75864999D02*
X224101819Y-76007856D01*
X223435152Y-75150714D02*
X224101819Y-75150714D01*
X223054200Y-75293571D02*
X223768485Y-75436428D01*
X223768485Y-75436428D02*
X223768485Y-75064999D01*
X144472819Y-104906014D02*
X143996628Y-105106014D01*
X144472819Y-105248871D02*
X143472819Y-105248871D01*
X143472819Y-105248871D02*
X143472819Y-105020300D01*
X143472819Y-105020300D02*
X143520438Y-104963157D01*
X143520438Y-104963157D02*
X143568057Y-104934586D01*
X143568057Y-104934586D02*
X143663295Y-104906014D01*
X143663295Y-104906014D02*
X143806152Y-104906014D01*
X143806152Y-104906014D02*
X143901390Y-104934586D01*
X143901390Y-104934586D02*
X143949009Y-104963157D01*
X143949009Y-104963157D02*
X143996628Y-105020300D01*
X143996628Y-105020300D02*
X143996628Y-105248871D01*
X144472819Y-104334586D02*
X144472819Y-104677443D01*
X144472819Y-104506014D02*
X143472819Y-104506014D01*
X143472819Y-104506014D02*
X143615676Y-104563157D01*
X143615676Y-104563157D02*
X143710914Y-104620300D01*
X143710914Y-104620300D02*
X143758533Y-104677443D01*
X143472819Y-104134585D02*
X143472819Y-103763157D01*
X143472819Y-103763157D02*
X143853771Y-103963157D01*
X143853771Y-103963157D02*
X143853771Y-103877442D01*
X143853771Y-103877442D02*
X143901390Y-103820300D01*
X143901390Y-103820300D02*
X143949009Y-103791728D01*
X143949009Y-103791728D02*
X144044247Y-103763157D01*
X144044247Y-103763157D02*
X144282342Y-103763157D01*
X144282342Y-103763157D02*
X144377580Y-103791728D01*
X144377580Y-103791728D02*
X144425200Y-103820300D01*
X144425200Y-103820300D02*
X144472819Y-103877442D01*
X144472819Y-103877442D02*
X144472819Y-104048871D01*
X144472819Y-104048871D02*
X144425200Y-104106014D01*
X144425200Y-104106014D02*
X144377580Y-104134585D01*
X159631142Y-113992819D02*
X159297809Y-113516628D01*
X159059714Y-113992819D02*
X159059714Y-112992819D01*
X159059714Y-112992819D02*
X159440666Y-112992819D01*
X159440666Y-112992819D02*
X159535904Y-113040438D01*
X159535904Y-113040438D02*
X159583523Y-113088057D01*
X159583523Y-113088057D02*
X159631142Y-113183295D01*
X159631142Y-113183295D02*
X159631142Y-113326152D01*
X159631142Y-113326152D02*
X159583523Y-113421390D01*
X159583523Y-113421390D02*
X159535904Y-113469009D01*
X159535904Y-113469009D02*
X159440666Y-113516628D01*
X159440666Y-113516628D02*
X159059714Y-113516628D01*
X160583523Y-113992819D02*
X160012095Y-113992819D01*
X160297809Y-113992819D02*
X160297809Y-112992819D01*
X160297809Y-112992819D02*
X160202571Y-113135676D01*
X160202571Y-113135676D02*
X160107333Y-113230914D01*
X160107333Y-113230914D02*
X160012095Y-113278533D01*
X161535904Y-113992819D02*
X160964476Y-113992819D01*
X161250190Y-113992819D02*
X161250190Y-112992819D01*
X161250190Y-112992819D02*
X161154952Y-113135676D01*
X161154952Y-113135676D02*
X161059714Y-113230914D01*
X161059714Y-113230914D02*
X160964476Y-113278533D01*
X196618819Y-114720666D02*
X196142628Y-115053999D01*
X196618819Y-115292094D02*
X195618819Y-115292094D01*
X195618819Y-115292094D02*
X195618819Y-114911142D01*
X195618819Y-114911142D02*
X195666438Y-114815904D01*
X195666438Y-114815904D02*
X195714057Y-114768285D01*
X195714057Y-114768285D02*
X195809295Y-114720666D01*
X195809295Y-114720666D02*
X195952152Y-114720666D01*
X195952152Y-114720666D02*
X196047390Y-114768285D01*
X196047390Y-114768285D02*
X196095009Y-114815904D01*
X196095009Y-114815904D02*
X196142628Y-114911142D01*
X196142628Y-114911142D02*
X196142628Y-115292094D01*
X195618819Y-114387332D02*
X195618819Y-113720666D01*
X195618819Y-113720666D02*
X196618819Y-114149237D01*
X198496285Y-92053580D02*
X198467713Y-92101200D01*
X198467713Y-92101200D02*
X198381999Y-92148819D01*
X198381999Y-92148819D02*
X198324856Y-92148819D01*
X198324856Y-92148819D02*
X198239142Y-92101200D01*
X198239142Y-92101200D02*
X198181999Y-92005961D01*
X198181999Y-92005961D02*
X198153428Y-91910723D01*
X198153428Y-91910723D02*
X198124856Y-91720247D01*
X198124856Y-91720247D02*
X198124856Y-91577390D01*
X198124856Y-91577390D02*
X198153428Y-91386914D01*
X198153428Y-91386914D02*
X198181999Y-91291676D01*
X198181999Y-91291676D02*
X198239142Y-91196438D01*
X198239142Y-91196438D02*
X198324856Y-91148819D01*
X198324856Y-91148819D02*
X198381999Y-91148819D01*
X198381999Y-91148819D02*
X198467713Y-91196438D01*
X198467713Y-91196438D02*
X198496285Y-91244057D01*
X199067713Y-92148819D02*
X198724856Y-92148819D01*
X198896285Y-92148819D02*
X198896285Y-91148819D01*
X198896285Y-91148819D02*
X198839142Y-91291676D01*
X198839142Y-91291676D02*
X198781999Y-91386914D01*
X198781999Y-91386914D02*
X198724856Y-91434533D01*
X199267714Y-91148819D02*
X199639142Y-91148819D01*
X199639142Y-91148819D02*
X199439142Y-91529771D01*
X199439142Y-91529771D02*
X199524857Y-91529771D01*
X199524857Y-91529771D02*
X199582000Y-91577390D01*
X199582000Y-91577390D02*
X199610571Y-91625009D01*
X199610571Y-91625009D02*
X199639142Y-91720247D01*
X199639142Y-91720247D02*
X199639142Y-91958342D01*
X199639142Y-91958342D02*
X199610571Y-92053580D01*
X199610571Y-92053580D02*
X199582000Y-92101200D01*
X199582000Y-92101200D02*
X199524857Y-92148819D01*
X199524857Y-92148819D02*
X199353428Y-92148819D01*
X199353428Y-92148819D02*
X199296285Y-92101200D01*
X199296285Y-92101200D02*
X199267714Y-92053580D01*
X204926219Y-76293571D02*
X203926219Y-76293571D01*
X203926219Y-76293571D02*
X203926219Y-76150714D01*
X203926219Y-76150714D02*
X203973838Y-76065000D01*
X203973838Y-76065000D02*
X204069076Y-76007857D01*
X204069076Y-76007857D02*
X204164314Y-75979286D01*
X204164314Y-75979286D02*
X204354790Y-75950714D01*
X204354790Y-75950714D02*
X204497647Y-75950714D01*
X204497647Y-75950714D02*
X204688123Y-75979286D01*
X204688123Y-75979286D02*
X204783361Y-76007857D01*
X204783361Y-76007857D02*
X204878600Y-76065000D01*
X204878600Y-76065000D02*
X204926219Y-76150714D01*
X204926219Y-76150714D02*
X204926219Y-76293571D01*
X204926219Y-75379286D02*
X204926219Y-75722143D01*
X204926219Y-75550714D02*
X203926219Y-75550714D01*
X203926219Y-75550714D02*
X204069076Y-75607857D01*
X204069076Y-75607857D02*
X204164314Y-75665000D01*
X204164314Y-75665000D02*
X204211933Y-75722143D01*
X204259552Y-74865000D02*
X204926219Y-74865000D01*
X203878600Y-75007857D02*
X204592885Y-75150714D01*
X204592885Y-75150714D02*
X204592885Y-74779285D01*
X213562219Y-76007856D02*
X212562219Y-76007856D01*
X212562219Y-76007856D02*
X212562219Y-75864999D01*
X212562219Y-75864999D02*
X212609838Y-75779285D01*
X212609838Y-75779285D02*
X212705076Y-75722142D01*
X212705076Y-75722142D02*
X212800314Y-75693571D01*
X212800314Y-75693571D02*
X212990790Y-75664999D01*
X212990790Y-75664999D02*
X213133647Y-75664999D01*
X213133647Y-75664999D02*
X213324123Y-75693571D01*
X213324123Y-75693571D02*
X213419361Y-75722142D01*
X213419361Y-75722142D02*
X213514600Y-75779285D01*
X213514600Y-75779285D02*
X213562219Y-75864999D01*
X213562219Y-75864999D02*
X213562219Y-76007856D01*
X213562219Y-75379285D02*
X213562219Y-75264999D01*
X213562219Y-75264999D02*
X213514600Y-75207856D01*
X213514600Y-75207856D02*
X213466980Y-75179285D01*
X213466980Y-75179285D02*
X213324123Y-75122142D01*
X213324123Y-75122142D02*
X213133647Y-75093571D01*
X213133647Y-75093571D02*
X212752695Y-75093571D01*
X212752695Y-75093571D02*
X212657457Y-75122142D01*
X212657457Y-75122142D02*
X212609838Y-75150714D01*
X212609838Y-75150714D02*
X212562219Y-75207856D01*
X212562219Y-75207856D02*
X212562219Y-75322142D01*
X212562219Y-75322142D02*
X212609838Y-75379285D01*
X212609838Y-75379285D02*
X212657457Y-75407856D01*
X212657457Y-75407856D02*
X212752695Y-75436428D01*
X212752695Y-75436428D02*
X212990790Y-75436428D01*
X212990790Y-75436428D02*
X213086028Y-75407856D01*
X213086028Y-75407856D02*
X213133647Y-75379285D01*
X213133647Y-75379285D02*
X213181266Y-75322142D01*
X213181266Y-75322142D02*
X213181266Y-75207856D01*
X213181266Y-75207856D02*
X213133647Y-75150714D01*
X213133647Y-75150714D02*
X213086028Y-75122142D01*
X213086028Y-75122142D02*
X212990790Y-75093571D01*
X200337009Y-98194761D02*
X200384628Y-98051904D01*
X200384628Y-98051904D02*
X200432247Y-98004285D01*
X200432247Y-98004285D02*
X200527485Y-97956666D01*
X200527485Y-97956666D02*
X200670342Y-97956666D01*
X200670342Y-97956666D02*
X200765580Y-98004285D01*
X200765580Y-98004285D02*
X200813200Y-98051904D01*
X200813200Y-98051904D02*
X200860819Y-98147142D01*
X200860819Y-98147142D02*
X200860819Y-98528094D01*
X200860819Y-98528094D02*
X199860819Y-98528094D01*
X199860819Y-98528094D02*
X199860819Y-98194761D01*
X199860819Y-98194761D02*
X199908438Y-98099523D01*
X199908438Y-98099523D02*
X199956057Y-98051904D01*
X199956057Y-98051904D02*
X200051295Y-98004285D01*
X200051295Y-98004285D02*
X200146533Y-98004285D01*
X200146533Y-98004285D02*
X200241771Y-98051904D01*
X200241771Y-98051904D02*
X200289390Y-98099523D01*
X200289390Y-98099523D02*
X200337009Y-98194761D01*
X200337009Y-98194761D02*
X200337009Y-98528094D01*
X199860819Y-97623332D02*
X199860819Y-97004285D01*
X199860819Y-97004285D02*
X200241771Y-97337618D01*
X200241771Y-97337618D02*
X200241771Y-97194761D01*
X200241771Y-97194761D02*
X200289390Y-97099523D01*
X200289390Y-97099523D02*
X200337009Y-97051904D01*
X200337009Y-97051904D02*
X200432247Y-97004285D01*
X200432247Y-97004285D02*
X200670342Y-97004285D01*
X200670342Y-97004285D02*
X200765580Y-97051904D01*
X200765580Y-97051904D02*
X200813200Y-97099523D01*
X200813200Y-97099523D02*
X200860819Y-97194761D01*
X200860819Y-97194761D02*
X200860819Y-97480475D01*
X200860819Y-97480475D02*
X200813200Y-97575713D01*
X200813200Y-97575713D02*
X200765580Y-97623332D01*
X160107333Y-109928819D02*
X159774000Y-109452628D01*
X159535905Y-109928819D02*
X159535905Y-108928819D01*
X159535905Y-108928819D02*
X159916857Y-108928819D01*
X159916857Y-108928819D02*
X160012095Y-108976438D01*
X160012095Y-108976438D02*
X160059714Y-109024057D01*
X160059714Y-109024057D02*
X160107333Y-109119295D01*
X160107333Y-109119295D02*
X160107333Y-109262152D01*
X160107333Y-109262152D02*
X160059714Y-109357390D01*
X160059714Y-109357390D02*
X160012095Y-109405009D01*
X160012095Y-109405009D02*
X159916857Y-109452628D01*
X159916857Y-109452628D02*
X159535905Y-109452628D01*
X160583524Y-109928819D02*
X160774000Y-109928819D01*
X160774000Y-109928819D02*
X160869238Y-109881200D01*
X160869238Y-109881200D02*
X160916857Y-109833580D01*
X160916857Y-109833580D02*
X161012095Y-109690723D01*
X161012095Y-109690723D02*
X161059714Y-109500247D01*
X161059714Y-109500247D02*
X161059714Y-109119295D01*
X161059714Y-109119295D02*
X161012095Y-109024057D01*
X161012095Y-109024057D02*
X160964476Y-108976438D01*
X160964476Y-108976438D02*
X160869238Y-108928819D01*
X160869238Y-108928819D02*
X160678762Y-108928819D01*
X160678762Y-108928819D02*
X160583524Y-108976438D01*
X160583524Y-108976438D02*
X160535905Y-109024057D01*
X160535905Y-109024057D02*
X160488286Y-109119295D01*
X160488286Y-109119295D02*
X160488286Y-109357390D01*
X160488286Y-109357390D02*
X160535905Y-109452628D01*
X160535905Y-109452628D02*
X160583524Y-109500247D01*
X160583524Y-109500247D02*
X160678762Y-109547866D01*
X160678762Y-109547866D02*
X160869238Y-109547866D01*
X160869238Y-109547866D02*
X160964476Y-109500247D01*
X160964476Y-109500247D02*
X161012095Y-109452628D01*
X161012095Y-109452628D02*
X161059714Y-109357390D01*
X192478819Y-115260285D02*
X191478819Y-115260285D01*
X191478819Y-115260285D02*
X191478819Y-115022190D01*
X191478819Y-115022190D02*
X191526438Y-114879333D01*
X191526438Y-114879333D02*
X191621676Y-114784095D01*
X191621676Y-114784095D02*
X191716914Y-114736476D01*
X191716914Y-114736476D02*
X191907390Y-114688857D01*
X191907390Y-114688857D02*
X192050247Y-114688857D01*
X192050247Y-114688857D02*
X192240723Y-114736476D01*
X192240723Y-114736476D02*
X192335961Y-114784095D01*
X192335961Y-114784095D02*
X192431200Y-114879333D01*
X192431200Y-114879333D02*
X192478819Y-115022190D01*
X192478819Y-115022190D02*
X192478819Y-115260285D01*
X192478819Y-113736476D02*
X192478819Y-114307904D01*
X192478819Y-114022190D02*
X191478819Y-114022190D01*
X191478819Y-114022190D02*
X191621676Y-114117428D01*
X191621676Y-114117428D02*
X191716914Y-114212666D01*
X191716914Y-114212666D02*
X191764533Y-114307904D01*
X191478819Y-112879333D02*
X191478819Y-113069809D01*
X191478819Y-113069809D02*
X191526438Y-113165047D01*
X191526438Y-113165047D02*
X191574057Y-113212666D01*
X191574057Y-113212666D02*
X191716914Y-113307904D01*
X191716914Y-113307904D02*
X191907390Y-113355523D01*
X191907390Y-113355523D02*
X192288342Y-113355523D01*
X192288342Y-113355523D02*
X192383580Y-113307904D01*
X192383580Y-113307904D02*
X192431200Y-113260285D01*
X192431200Y-113260285D02*
X192478819Y-113165047D01*
X192478819Y-113165047D02*
X192478819Y-112974571D01*
X192478819Y-112974571D02*
X192431200Y-112879333D01*
X192431200Y-112879333D02*
X192383580Y-112831714D01*
X192383580Y-112831714D02*
X192288342Y-112784095D01*
X192288342Y-112784095D02*
X192050247Y-112784095D01*
X192050247Y-112784095D02*
X191955009Y-112831714D01*
X191955009Y-112831714D02*
X191907390Y-112879333D01*
X191907390Y-112879333D02*
X191859771Y-112974571D01*
X191859771Y-112974571D02*
X191859771Y-113165047D01*
X191859771Y-113165047D02*
X191907390Y-113260285D01*
X191907390Y-113260285D02*
X191955009Y-113307904D01*
X191955009Y-113307904D02*
X192050247Y-113355523D01*
X172553333Y-111865580D02*
X172505714Y-111913200D01*
X172505714Y-111913200D02*
X172362857Y-111960819D01*
X172362857Y-111960819D02*
X172267619Y-111960819D01*
X172267619Y-111960819D02*
X172124762Y-111913200D01*
X172124762Y-111913200D02*
X172029524Y-111817961D01*
X172029524Y-111817961D02*
X171981905Y-111722723D01*
X171981905Y-111722723D02*
X171934286Y-111532247D01*
X171934286Y-111532247D02*
X171934286Y-111389390D01*
X171934286Y-111389390D02*
X171981905Y-111198914D01*
X171981905Y-111198914D02*
X172029524Y-111103676D01*
X172029524Y-111103676D02*
X172124762Y-111008438D01*
X172124762Y-111008438D02*
X172267619Y-110960819D01*
X172267619Y-110960819D02*
X172362857Y-110960819D01*
X172362857Y-110960819D02*
X172505714Y-111008438D01*
X172505714Y-111008438D02*
X172553333Y-111056057D01*
X173410476Y-110960819D02*
X173220000Y-110960819D01*
X173220000Y-110960819D02*
X173124762Y-111008438D01*
X173124762Y-111008438D02*
X173077143Y-111056057D01*
X173077143Y-111056057D02*
X172981905Y-111198914D01*
X172981905Y-111198914D02*
X172934286Y-111389390D01*
X172934286Y-111389390D02*
X172934286Y-111770342D01*
X172934286Y-111770342D02*
X172981905Y-111865580D01*
X172981905Y-111865580D02*
X173029524Y-111913200D01*
X173029524Y-111913200D02*
X173124762Y-111960819D01*
X173124762Y-111960819D02*
X173315238Y-111960819D01*
X173315238Y-111960819D02*
X173410476Y-111913200D01*
X173410476Y-111913200D02*
X173458095Y-111865580D01*
X173458095Y-111865580D02*
X173505714Y-111770342D01*
X173505714Y-111770342D02*
X173505714Y-111532247D01*
X173505714Y-111532247D02*
X173458095Y-111437009D01*
X173458095Y-111437009D02*
X173410476Y-111389390D01*
X173410476Y-111389390D02*
X173315238Y-111341771D01*
X173315238Y-111341771D02*
X173124762Y-111341771D01*
X173124762Y-111341771D02*
X173029524Y-111389390D01*
X173029524Y-111389390D02*
X172981905Y-111437009D01*
X172981905Y-111437009D02*
X172934286Y-111532247D01*
X172553333Y-99514819D02*
X172220000Y-99038628D01*
X171981905Y-99514819D02*
X171981905Y-98514819D01*
X171981905Y-98514819D02*
X172362857Y-98514819D01*
X172362857Y-98514819D02*
X172458095Y-98562438D01*
X172458095Y-98562438D02*
X172505714Y-98610057D01*
X172505714Y-98610057D02*
X172553333Y-98705295D01*
X172553333Y-98705295D02*
X172553333Y-98848152D01*
X172553333Y-98848152D02*
X172505714Y-98943390D01*
X172505714Y-98943390D02*
X172458095Y-98991009D01*
X172458095Y-98991009D02*
X172362857Y-99038628D01*
X172362857Y-99038628D02*
X171981905Y-99038628D01*
X173505714Y-99514819D02*
X172934286Y-99514819D01*
X173220000Y-99514819D02*
X173220000Y-98514819D01*
X173220000Y-98514819D02*
X173124762Y-98657676D01*
X173124762Y-98657676D02*
X173029524Y-98752914D01*
X173029524Y-98752914D02*
X172934286Y-98800533D01*
X172553333Y-117961580D02*
X172505714Y-118009200D01*
X172505714Y-118009200D02*
X172362857Y-118056819D01*
X172362857Y-118056819D02*
X172267619Y-118056819D01*
X172267619Y-118056819D02*
X172124762Y-118009200D01*
X172124762Y-118009200D02*
X172029524Y-117913961D01*
X172029524Y-117913961D02*
X171981905Y-117818723D01*
X171981905Y-117818723D02*
X171934286Y-117628247D01*
X171934286Y-117628247D02*
X171934286Y-117485390D01*
X171934286Y-117485390D02*
X171981905Y-117294914D01*
X171981905Y-117294914D02*
X172029524Y-117199676D01*
X172029524Y-117199676D02*
X172124762Y-117104438D01*
X172124762Y-117104438D02*
X172267619Y-117056819D01*
X172267619Y-117056819D02*
X172362857Y-117056819D01*
X172362857Y-117056819D02*
X172505714Y-117104438D01*
X172505714Y-117104438D02*
X172553333Y-117152057D01*
X172886667Y-117056819D02*
X173505714Y-117056819D01*
X173505714Y-117056819D02*
X173172381Y-117437771D01*
X173172381Y-117437771D02*
X173315238Y-117437771D01*
X173315238Y-117437771D02*
X173410476Y-117485390D01*
X173410476Y-117485390D02*
X173458095Y-117533009D01*
X173458095Y-117533009D02*
X173505714Y-117628247D01*
X173505714Y-117628247D02*
X173505714Y-117866342D01*
X173505714Y-117866342D02*
X173458095Y-117961580D01*
X173458095Y-117961580D02*
X173410476Y-118009200D01*
X173410476Y-118009200D02*
X173315238Y-118056819D01*
X173315238Y-118056819D02*
X173029524Y-118056819D01*
X173029524Y-118056819D02*
X172934286Y-118009200D01*
X172934286Y-118009200D02*
X172886667Y-117961580D01*
X198377580Y-114688857D02*
X198425200Y-114736476D01*
X198425200Y-114736476D02*
X198472819Y-114879333D01*
X198472819Y-114879333D02*
X198472819Y-114974571D01*
X198472819Y-114974571D02*
X198425200Y-115117428D01*
X198425200Y-115117428D02*
X198329961Y-115212666D01*
X198329961Y-115212666D02*
X198234723Y-115260285D01*
X198234723Y-115260285D02*
X198044247Y-115307904D01*
X198044247Y-115307904D02*
X197901390Y-115307904D01*
X197901390Y-115307904D02*
X197710914Y-115260285D01*
X197710914Y-115260285D02*
X197615676Y-115212666D01*
X197615676Y-115212666D02*
X197520438Y-115117428D01*
X197520438Y-115117428D02*
X197472819Y-114974571D01*
X197472819Y-114974571D02*
X197472819Y-114879333D01*
X197472819Y-114879333D02*
X197520438Y-114736476D01*
X197520438Y-114736476D02*
X197568057Y-114688857D01*
X198472819Y-113736476D02*
X198472819Y-114307904D01*
X198472819Y-114022190D02*
X197472819Y-114022190D01*
X197472819Y-114022190D02*
X197615676Y-114117428D01*
X197615676Y-114117428D02*
X197710914Y-114212666D01*
X197710914Y-114212666D02*
X197758533Y-114307904D01*
X197472819Y-112831714D02*
X197472819Y-113307904D01*
X197472819Y-113307904D02*
X197949009Y-113355523D01*
X197949009Y-113355523D02*
X197901390Y-113307904D01*
X197901390Y-113307904D02*
X197853771Y-113212666D01*
X197853771Y-113212666D02*
X197853771Y-112974571D01*
X197853771Y-112974571D02*
X197901390Y-112879333D01*
X197901390Y-112879333D02*
X197949009Y-112831714D01*
X197949009Y-112831714D02*
X198044247Y-112784095D01*
X198044247Y-112784095D02*
X198282342Y-112784095D01*
X198282342Y-112784095D02*
X198377580Y-112831714D01*
X198377580Y-112831714D02*
X198425200Y-112879333D01*
X198425200Y-112879333D02*
X198472819Y-112974571D01*
X198472819Y-112974571D02*
X198472819Y-113212666D01*
X198472819Y-113212666D02*
X198425200Y-113307904D01*
X198425200Y-113307904D02*
X198377580Y-113355523D01*
X200765580Y-102798476D02*
X200813200Y-102846095D01*
X200813200Y-102846095D02*
X200860819Y-102988952D01*
X200860819Y-102988952D02*
X200860819Y-103084190D01*
X200860819Y-103084190D02*
X200813200Y-103227047D01*
X200813200Y-103227047D02*
X200717961Y-103322285D01*
X200717961Y-103322285D02*
X200622723Y-103369904D01*
X200622723Y-103369904D02*
X200432247Y-103417523D01*
X200432247Y-103417523D02*
X200289390Y-103417523D01*
X200289390Y-103417523D02*
X200098914Y-103369904D01*
X200098914Y-103369904D02*
X200003676Y-103322285D01*
X200003676Y-103322285D02*
X199908438Y-103227047D01*
X199908438Y-103227047D02*
X199860819Y-103084190D01*
X199860819Y-103084190D02*
X199860819Y-102988952D01*
X199860819Y-102988952D02*
X199908438Y-102846095D01*
X199908438Y-102846095D02*
X199956057Y-102798476D01*
X200860819Y-102369904D02*
X199860819Y-102369904D01*
X199860819Y-102369904D02*
X200860819Y-101798476D01*
X200860819Y-101798476D02*
X199860819Y-101798476D01*
X200194152Y-100893714D02*
X200860819Y-100893714D01*
X199813200Y-101131809D02*
X200527485Y-101369904D01*
X200527485Y-101369904D02*
X200527485Y-100750857D01*
X186458819Y-114720666D02*
X185982628Y-115053999D01*
X186458819Y-115292094D02*
X185458819Y-115292094D01*
X185458819Y-115292094D02*
X185458819Y-114911142D01*
X185458819Y-114911142D02*
X185506438Y-114815904D01*
X185506438Y-114815904D02*
X185554057Y-114768285D01*
X185554057Y-114768285D02*
X185649295Y-114720666D01*
X185649295Y-114720666D02*
X185792152Y-114720666D01*
X185792152Y-114720666D02*
X185887390Y-114768285D01*
X185887390Y-114768285D02*
X185935009Y-114815904D01*
X185935009Y-114815904D02*
X185982628Y-114911142D01*
X185982628Y-114911142D02*
X185982628Y-115292094D01*
X185458819Y-113815904D02*
X185458819Y-114292094D01*
X185458819Y-114292094D02*
X185935009Y-114339713D01*
X185935009Y-114339713D02*
X185887390Y-114292094D01*
X185887390Y-114292094D02*
X185839771Y-114196856D01*
X185839771Y-114196856D02*
X185839771Y-113958761D01*
X185839771Y-113958761D02*
X185887390Y-113863523D01*
X185887390Y-113863523D02*
X185935009Y-113815904D01*
X185935009Y-113815904D02*
X186030247Y-113768285D01*
X186030247Y-113768285D02*
X186268342Y-113768285D01*
X186268342Y-113768285D02*
X186363580Y-113815904D01*
X186363580Y-113815904D02*
X186411200Y-113863523D01*
X186411200Y-113863523D02*
X186458819Y-113958761D01*
X186458819Y-113958761D02*
X186458819Y-114196856D01*
X186458819Y-114196856D02*
X186411200Y-114292094D01*
X186411200Y-114292094D02*
X186363580Y-114339713D01*
X229435819Y-76007856D02*
X228435819Y-76007856D01*
X228435819Y-76007856D02*
X228435819Y-75864999D01*
X228435819Y-75864999D02*
X228483438Y-75779285D01*
X228483438Y-75779285D02*
X228578676Y-75722142D01*
X228578676Y-75722142D02*
X228673914Y-75693571D01*
X228673914Y-75693571D02*
X228864390Y-75664999D01*
X228864390Y-75664999D02*
X229007247Y-75664999D01*
X229007247Y-75664999D02*
X229197723Y-75693571D01*
X229197723Y-75693571D02*
X229292961Y-75722142D01*
X229292961Y-75722142D02*
X229388200Y-75779285D01*
X229388200Y-75779285D02*
X229435819Y-75864999D01*
X229435819Y-75864999D02*
X229435819Y-76007856D01*
X229435819Y-75093571D02*
X229435819Y-75436428D01*
X229435819Y-75264999D02*
X228435819Y-75264999D01*
X228435819Y-75264999D02*
X228578676Y-75322142D01*
X228578676Y-75322142D02*
X228673914Y-75379285D01*
X228673914Y-75379285D02*
X228721533Y-75436428D01*
X201544285Y-92119580D02*
X201515713Y-92167200D01*
X201515713Y-92167200D02*
X201429999Y-92214819D01*
X201429999Y-92214819D02*
X201372856Y-92214819D01*
X201372856Y-92214819D02*
X201287142Y-92167200D01*
X201287142Y-92167200D02*
X201229999Y-92071961D01*
X201229999Y-92071961D02*
X201201428Y-91976723D01*
X201201428Y-91976723D02*
X201172856Y-91786247D01*
X201172856Y-91786247D02*
X201172856Y-91643390D01*
X201172856Y-91643390D02*
X201201428Y-91452914D01*
X201201428Y-91452914D02*
X201229999Y-91357676D01*
X201229999Y-91357676D02*
X201287142Y-91262438D01*
X201287142Y-91262438D02*
X201372856Y-91214819D01*
X201372856Y-91214819D02*
X201429999Y-91214819D01*
X201429999Y-91214819D02*
X201515713Y-91262438D01*
X201515713Y-91262438D02*
X201544285Y-91310057D01*
X202115713Y-92214819D02*
X201772856Y-92214819D01*
X201944285Y-92214819D02*
X201944285Y-91214819D01*
X201944285Y-91214819D02*
X201887142Y-91357676D01*
X201887142Y-91357676D02*
X201829999Y-91452914D01*
X201829999Y-91452914D02*
X201772856Y-91500533D01*
X202630000Y-91548152D02*
X202630000Y-92214819D01*
X202487142Y-91167200D02*
X202344285Y-91881485D01*
X202344285Y-91881485D02*
X202715714Y-91881485D01*
X207496580Y-102925476D02*
X207544200Y-102973095D01*
X207544200Y-102973095D02*
X207591819Y-103115952D01*
X207591819Y-103115952D02*
X207591819Y-103211190D01*
X207591819Y-103211190D02*
X207544200Y-103354047D01*
X207544200Y-103354047D02*
X207448961Y-103449285D01*
X207448961Y-103449285D02*
X207353723Y-103496904D01*
X207353723Y-103496904D02*
X207163247Y-103544523D01*
X207163247Y-103544523D02*
X207020390Y-103544523D01*
X207020390Y-103544523D02*
X206829914Y-103496904D01*
X206829914Y-103496904D02*
X206734676Y-103449285D01*
X206734676Y-103449285D02*
X206639438Y-103354047D01*
X206639438Y-103354047D02*
X206591819Y-103211190D01*
X206591819Y-103211190D02*
X206591819Y-103115952D01*
X206591819Y-103115952D02*
X206639438Y-102973095D01*
X206639438Y-102973095D02*
X206687057Y-102925476D01*
X207591819Y-102496904D02*
X206591819Y-102496904D01*
X206591819Y-102496904D02*
X207591819Y-101925476D01*
X207591819Y-101925476D02*
X206591819Y-101925476D01*
X206687057Y-101496904D02*
X206639438Y-101449285D01*
X206639438Y-101449285D02*
X206591819Y-101354047D01*
X206591819Y-101354047D02*
X206591819Y-101115952D01*
X206591819Y-101115952D02*
X206639438Y-101020714D01*
X206639438Y-101020714D02*
X206687057Y-100973095D01*
X206687057Y-100973095D02*
X206782295Y-100925476D01*
X206782295Y-100925476D02*
X206877533Y-100925476D01*
X206877533Y-100925476D02*
X207020390Y-100973095D01*
X207020390Y-100973095D02*
X207591819Y-101544523D01*
X207591819Y-101544523D02*
X207591819Y-100925476D01*
X207591819Y-106481476D02*
X207115628Y-106814809D01*
X207591819Y-107052904D02*
X206591819Y-107052904D01*
X206591819Y-107052904D02*
X206591819Y-106671952D01*
X206591819Y-106671952D02*
X206639438Y-106576714D01*
X206639438Y-106576714D02*
X206687057Y-106529095D01*
X206687057Y-106529095D02*
X206782295Y-106481476D01*
X206782295Y-106481476D02*
X206925152Y-106481476D01*
X206925152Y-106481476D02*
X207020390Y-106529095D01*
X207020390Y-106529095D02*
X207068009Y-106576714D01*
X207068009Y-106576714D02*
X207115628Y-106671952D01*
X207115628Y-106671952D02*
X207115628Y-107052904D01*
X207591819Y-106052904D02*
X206591819Y-106052904D01*
X206591819Y-106052904D02*
X207591819Y-105481476D01*
X207591819Y-105481476D02*
X206591819Y-105481476D01*
X206687057Y-105052904D02*
X206639438Y-105005285D01*
X206639438Y-105005285D02*
X206591819Y-104910047D01*
X206591819Y-104910047D02*
X206591819Y-104671952D01*
X206591819Y-104671952D02*
X206639438Y-104576714D01*
X206639438Y-104576714D02*
X206687057Y-104529095D01*
X206687057Y-104529095D02*
X206782295Y-104481476D01*
X206782295Y-104481476D02*
X206877533Y-104481476D01*
X206877533Y-104481476D02*
X207020390Y-104529095D01*
X207020390Y-104529095D02*
X207591819Y-105100523D01*
X207591819Y-105100523D02*
X207591819Y-104481476D01*
X207877580Y-96686666D02*
X207925200Y-96734285D01*
X207925200Y-96734285D02*
X207972819Y-96877142D01*
X207972819Y-96877142D02*
X207972819Y-96972380D01*
X207972819Y-96972380D02*
X207925200Y-97115237D01*
X207925200Y-97115237D02*
X207829961Y-97210475D01*
X207829961Y-97210475D02*
X207734723Y-97258094D01*
X207734723Y-97258094D02*
X207544247Y-97305713D01*
X207544247Y-97305713D02*
X207401390Y-97305713D01*
X207401390Y-97305713D02*
X207210914Y-97258094D01*
X207210914Y-97258094D02*
X207115676Y-97210475D01*
X207115676Y-97210475D02*
X207020438Y-97115237D01*
X207020438Y-97115237D02*
X206972819Y-96972380D01*
X206972819Y-96972380D02*
X206972819Y-96877142D01*
X206972819Y-96877142D02*
X207020438Y-96734285D01*
X207020438Y-96734285D02*
X207068057Y-96686666D01*
X207972819Y-95734285D02*
X207972819Y-96305713D01*
X207972819Y-96019999D02*
X206972819Y-96019999D01*
X206972819Y-96019999D02*
X207115676Y-96115237D01*
X207115676Y-96115237D02*
X207210914Y-96210475D01*
X207210914Y-96210475D02*
X207258533Y-96305713D01*
X172553333Y-109833580D02*
X172505714Y-109881200D01*
X172505714Y-109881200D02*
X172362857Y-109928819D01*
X172362857Y-109928819D02*
X172267619Y-109928819D01*
X172267619Y-109928819D02*
X172124762Y-109881200D01*
X172124762Y-109881200D02*
X172029524Y-109785961D01*
X172029524Y-109785961D02*
X171981905Y-109690723D01*
X171981905Y-109690723D02*
X171934286Y-109500247D01*
X171934286Y-109500247D02*
X171934286Y-109357390D01*
X171934286Y-109357390D02*
X171981905Y-109166914D01*
X171981905Y-109166914D02*
X172029524Y-109071676D01*
X172029524Y-109071676D02*
X172124762Y-108976438D01*
X172124762Y-108976438D02*
X172267619Y-108928819D01*
X172267619Y-108928819D02*
X172362857Y-108928819D01*
X172362857Y-108928819D02*
X172505714Y-108976438D01*
X172505714Y-108976438D02*
X172553333Y-109024057D01*
X172886667Y-108928819D02*
X173553333Y-108928819D01*
X173553333Y-108928819D02*
X173124762Y-109928819D01*
X144377580Y-106938014D02*
X144425200Y-106966586D01*
X144425200Y-106966586D02*
X144472819Y-107052300D01*
X144472819Y-107052300D02*
X144472819Y-107109443D01*
X144472819Y-107109443D02*
X144425200Y-107195157D01*
X144425200Y-107195157D02*
X144329961Y-107252300D01*
X144329961Y-107252300D02*
X144234723Y-107280871D01*
X144234723Y-107280871D02*
X144044247Y-107309443D01*
X144044247Y-107309443D02*
X143901390Y-107309443D01*
X143901390Y-107309443D02*
X143710914Y-107280871D01*
X143710914Y-107280871D02*
X143615676Y-107252300D01*
X143615676Y-107252300D02*
X143520438Y-107195157D01*
X143520438Y-107195157D02*
X143472819Y-107109443D01*
X143472819Y-107109443D02*
X143472819Y-107052300D01*
X143472819Y-107052300D02*
X143520438Y-106966586D01*
X143520438Y-106966586D02*
X143568057Y-106938014D01*
X144472819Y-106366586D02*
X144472819Y-106709443D01*
X144472819Y-106538014D02*
X143472819Y-106538014D01*
X143472819Y-106538014D02*
X143615676Y-106595157D01*
X143615676Y-106595157D02*
X143710914Y-106652300D01*
X143710914Y-106652300D02*
X143758533Y-106709443D01*
X144472819Y-106080871D02*
X144472819Y-105966585D01*
X144472819Y-105966585D02*
X144425200Y-105909442D01*
X144425200Y-105909442D02*
X144377580Y-105880871D01*
X144377580Y-105880871D02*
X144234723Y-105823728D01*
X144234723Y-105823728D02*
X144044247Y-105795157D01*
X144044247Y-105795157D02*
X143663295Y-105795157D01*
X143663295Y-105795157D02*
X143568057Y-105823728D01*
X143568057Y-105823728D02*
X143520438Y-105852300D01*
X143520438Y-105852300D02*
X143472819Y-105909442D01*
X143472819Y-105909442D02*
X143472819Y-106023728D01*
X143472819Y-106023728D02*
X143520438Y-106080871D01*
X143520438Y-106080871D02*
X143568057Y-106109442D01*
X143568057Y-106109442D02*
X143663295Y-106138014D01*
X143663295Y-106138014D02*
X143901390Y-106138014D01*
X143901390Y-106138014D02*
X143996628Y-106109442D01*
X143996628Y-106109442D02*
X144044247Y-106080871D01*
X144044247Y-106080871D02*
X144091866Y-106023728D01*
X144091866Y-106023728D02*
X144091866Y-105909442D01*
X144091866Y-105909442D02*
X144044247Y-105852300D01*
X144044247Y-105852300D02*
X143996628Y-105823728D01*
X143996628Y-105823728D02*
X143901390Y-105795157D01*
X190827819Y-74223476D02*
X190351628Y-74556809D01*
X190827819Y-74794904D02*
X189827819Y-74794904D01*
X189827819Y-74794904D02*
X189827819Y-74413952D01*
X189827819Y-74413952D02*
X189875438Y-74318714D01*
X189875438Y-74318714D02*
X189923057Y-74271095D01*
X189923057Y-74271095D02*
X190018295Y-74223476D01*
X190018295Y-74223476D02*
X190161152Y-74223476D01*
X190161152Y-74223476D02*
X190256390Y-74271095D01*
X190256390Y-74271095D02*
X190304009Y-74318714D01*
X190304009Y-74318714D02*
X190351628Y-74413952D01*
X190351628Y-74413952D02*
X190351628Y-74794904D01*
X190827819Y-73794904D02*
X189827819Y-73794904D01*
X189827819Y-73794904D02*
X190827819Y-73223476D01*
X190827819Y-73223476D02*
X189827819Y-73223476D01*
X190256390Y-72604428D02*
X190208771Y-72699666D01*
X190208771Y-72699666D02*
X190161152Y-72747285D01*
X190161152Y-72747285D02*
X190065914Y-72794904D01*
X190065914Y-72794904D02*
X190018295Y-72794904D01*
X190018295Y-72794904D02*
X189923057Y-72747285D01*
X189923057Y-72747285D02*
X189875438Y-72699666D01*
X189875438Y-72699666D02*
X189827819Y-72604428D01*
X189827819Y-72604428D02*
X189827819Y-72413952D01*
X189827819Y-72413952D02*
X189875438Y-72318714D01*
X189875438Y-72318714D02*
X189923057Y-72271095D01*
X189923057Y-72271095D02*
X190018295Y-72223476D01*
X190018295Y-72223476D02*
X190065914Y-72223476D01*
X190065914Y-72223476D02*
X190161152Y-72271095D01*
X190161152Y-72271095D02*
X190208771Y-72318714D01*
X190208771Y-72318714D02*
X190256390Y-72413952D01*
X190256390Y-72413952D02*
X190256390Y-72604428D01*
X190256390Y-72604428D02*
X190304009Y-72699666D01*
X190304009Y-72699666D02*
X190351628Y-72747285D01*
X190351628Y-72747285D02*
X190446866Y-72794904D01*
X190446866Y-72794904D02*
X190637342Y-72794904D01*
X190637342Y-72794904D02*
X190732580Y-72747285D01*
X190732580Y-72747285D02*
X190780200Y-72699666D01*
X190780200Y-72699666D02*
X190827819Y-72604428D01*
X190827819Y-72604428D02*
X190827819Y-72413952D01*
X190827819Y-72413952D02*
X190780200Y-72318714D01*
X190780200Y-72318714D02*
X190732580Y-72271095D01*
X190732580Y-72271095D02*
X190637342Y-72223476D01*
X190637342Y-72223476D02*
X190446866Y-72223476D01*
X190446866Y-72223476D02*
X190351628Y-72271095D01*
X190351628Y-72271095D02*
X190304009Y-72318714D01*
X190304009Y-72318714D02*
X190256390Y-72413952D01*
X172553333Y-113897580D02*
X172505714Y-113945200D01*
X172505714Y-113945200D02*
X172362857Y-113992819D01*
X172362857Y-113992819D02*
X172267619Y-113992819D01*
X172267619Y-113992819D02*
X172124762Y-113945200D01*
X172124762Y-113945200D02*
X172029524Y-113849961D01*
X172029524Y-113849961D02*
X171981905Y-113754723D01*
X171981905Y-113754723D02*
X171934286Y-113564247D01*
X171934286Y-113564247D02*
X171934286Y-113421390D01*
X171934286Y-113421390D02*
X171981905Y-113230914D01*
X171981905Y-113230914D02*
X172029524Y-113135676D01*
X172029524Y-113135676D02*
X172124762Y-113040438D01*
X172124762Y-113040438D02*
X172267619Y-112992819D01*
X172267619Y-112992819D02*
X172362857Y-112992819D01*
X172362857Y-112992819D02*
X172505714Y-113040438D01*
X172505714Y-113040438D02*
X172553333Y-113088057D01*
X173458095Y-112992819D02*
X172981905Y-112992819D01*
X172981905Y-112992819D02*
X172934286Y-113469009D01*
X172934286Y-113469009D02*
X172981905Y-113421390D01*
X172981905Y-113421390D02*
X173077143Y-113373771D01*
X173077143Y-113373771D02*
X173315238Y-113373771D01*
X173315238Y-113373771D02*
X173410476Y-113421390D01*
X173410476Y-113421390D02*
X173458095Y-113469009D01*
X173458095Y-113469009D02*
X173505714Y-113564247D01*
X173505714Y-113564247D02*
X173505714Y-113802342D01*
X173505714Y-113802342D02*
X173458095Y-113897580D01*
X173458095Y-113897580D02*
X173410476Y-113945200D01*
X173410476Y-113945200D02*
X173315238Y-113992819D01*
X173315238Y-113992819D02*
X173077143Y-113992819D01*
X173077143Y-113992819D02*
X172981905Y-113945200D01*
X172981905Y-113945200D02*
X172934286Y-113897580D01*
X217035319Y-76007856D02*
X216035319Y-76007856D01*
X216035319Y-76007856D02*
X216035319Y-75864999D01*
X216035319Y-75864999D02*
X216082938Y-75779285D01*
X216082938Y-75779285D02*
X216178176Y-75722142D01*
X216178176Y-75722142D02*
X216273414Y-75693571D01*
X216273414Y-75693571D02*
X216463890Y-75664999D01*
X216463890Y-75664999D02*
X216606747Y-75664999D01*
X216606747Y-75664999D02*
X216797223Y-75693571D01*
X216797223Y-75693571D02*
X216892461Y-75722142D01*
X216892461Y-75722142D02*
X216987700Y-75779285D01*
X216987700Y-75779285D02*
X217035319Y-75864999D01*
X217035319Y-75864999D02*
X217035319Y-76007856D01*
X216463890Y-75322142D02*
X216416271Y-75379285D01*
X216416271Y-75379285D02*
X216368652Y-75407856D01*
X216368652Y-75407856D02*
X216273414Y-75436428D01*
X216273414Y-75436428D02*
X216225795Y-75436428D01*
X216225795Y-75436428D02*
X216130557Y-75407856D01*
X216130557Y-75407856D02*
X216082938Y-75379285D01*
X216082938Y-75379285D02*
X216035319Y-75322142D01*
X216035319Y-75322142D02*
X216035319Y-75207856D01*
X216035319Y-75207856D02*
X216082938Y-75150714D01*
X216082938Y-75150714D02*
X216130557Y-75122142D01*
X216130557Y-75122142D02*
X216225795Y-75093571D01*
X216225795Y-75093571D02*
X216273414Y-75093571D01*
X216273414Y-75093571D02*
X216368652Y-75122142D01*
X216368652Y-75122142D02*
X216416271Y-75150714D01*
X216416271Y-75150714D02*
X216463890Y-75207856D01*
X216463890Y-75207856D02*
X216463890Y-75322142D01*
X216463890Y-75322142D02*
X216511509Y-75379285D01*
X216511509Y-75379285D02*
X216559128Y-75407856D01*
X216559128Y-75407856D02*
X216654366Y-75436428D01*
X216654366Y-75436428D02*
X216844842Y-75436428D01*
X216844842Y-75436428D02*
X216940080Y-75407856D01*
X216940080Y-75407856D02*
X216987700Y-75379285D01*
X216987700Y-75379285D02*
X217035319Y-75322142D01*
X217035319Y-75322142D02*
X217035319Y-75207856D01*
X217035319Y-75207856D02*
X216987700Y-75150714D01*
X216987700Y-75150714D02*
X216940080Y-75122142D01*
X216940080Y-75122142D02*
X216844842Y-75093571D01*
X216844842Y-75093571D02*
X216654366Y-75093571D01*
X216654366Y-75093571D02*
X216559128Y-75122142D01*
X216559128Y-75122142D02*
X216511509Y-75150714D01*
X216511509Y-75150714D02*
X216463890Y-75207856D01*
X218329000Y-108658819D02*
X218329000Y-107658819D01*
X218805190Y-108658819D02*
X218805190Y-107658819D01*
X218805190Y-107658819D02*
X219376618Y-108658819D01*
X219376618Y-108658819D02*
X219376618Y-107658819D01*
X220376618Y-108658819D02*
X219805190Y-108658819D01*
X220090904Y-108658819D02*
X220090904Y-107658819D01*
X220090904Y-107658819D02*
X219995666Y-107801676D01*
X219995666Y-107801676D02*
X219900428Y-107896914D01*
X219900428Y-107896914D02*
X219805190Y-107944533D01*
X184145285Y-91967580D02*
X184116713Y-92015200D01*
X184116713Y-92015200D02*
X184030999Y-92062819D01*
X184030999Y-92062819D02*
X183973856Y-92062819D01*
X183973856Y-92062819D02*
X183888142Y-92015200D01*
X183888142Y-92015200D02*
X183830999Y-91919961D01*
X183830999Y-91919961D02*
X183802428Y-91824723D01*
X183802428Y-91824723D02*
X183773856Y-91634247D01*
X183773856Y-91634247D02*
X183773856Y-91491390D01*
X183773856Y-91491390D02*
X183802428Y-91300914D01*
X183802428Y-91300914D02*
X183830999Y-91205676D01*
X183830999Y-91205676D02*
X183888142Y-91110438D01*
X183888142Y-91110438D02*
X183973856Y-91062819D01*
X183973856Y-91062819D02*
X184030999Y-91062819D01*
X184030999Y-91062819D02*
X184116713Y-91110438D01*
X184116713Y-91110438D02*
X184145285Y-91158057D01*
X184716713Y-92062819D02*
X184373856Y-92062819D01*
X184545285Y-92062819D02*
X184545285Y-91062819D01*
X184545285Y-91062819D02*
X184488142Y-91205676D01*
X184488142Y-91205676D02*
X184430999Y-91300914D01*
X184430999Y-91300914D02*
X184373856Y-91348533D01*
X185088142Y-91062819D02*
X185145285Y-91062819D01*
X185145285Y-91062819D02*
X185202428Y-91110438D01*
X185202428Y-91110438D02*
X185231000Y-91158057D01*
X185231000Y-91158057D02*
X185259571Y-91253295D01*
X185259571Y-91253295D02*
X185288142Y-91443771D01*
X185288142Y-91443771D02*
X185288142Y-91681866D01*
X185288142Y-91681866D02*
X185259571Y-91872342D01*
X185259571Y-91872342D02*
X185231000Y-91967580D01*
X185231000Y-91967580D02*
X185202428Y-92015200D01*
X185202428Y-92015200D02*
X185145285Y-92062819D01*
X185145285Y-92062819D02*
X185088142Y-92062819D01*
X185088142Y-92062819D02*
X185031000Y-92015200D01*
X185031000Y-92015200D02*
X185002428Y-91967580D01*
X185002428Y-91967580D02*
X184973857Y-91872342D01*
X184973857Y-91872342D02*
X184945285Y-91681866D01*
X184945285Y-91681866D02*
X184945285Y-91443771D01*
X184945285Y-91443771D02*
X184973857Y-91253295D01*
X184973857Y-91253295D02*
X185002428Y-91158057D01*
X185002428Y-91158057D02*
X185031000Y-91110438D01*
X185031000Y-91110438D02*
X185088142Y-91062819D01*
X218559319Y-76007856D02*
X217559319Y-76007856D01*
X217559319Y-76007856D02*
X217559319Y-75864999D01*
X217559319Y-75864999D02*
X217606938Y-75779285D01*
X217606938Y-75779285D02*
X217702176Y-75722142D01*
X217702176Y-75722142D02*
X217797414Y-75693571D01*
X217797414Y-75693571D02*
X217987890Y-75664999D01*
X217987890Y-75664999D02*
X218130747Y-75664999D01*
X218130747Y-75664999D02*
X218321223Y-75693571D01*
X218321223Y-75693571D02*
X218416461Y-75722142D01*
X218416461Y-75722142D02*
X218511700Y-75779285D01*
X218511700Y-75779285D02*
X218559319Y-75864999D01*
X218559319Y-75864999D02*
X218559319Y-76007856D01*
X217559319Y-75464999D02*
X217559319Y-75064999D01*
X217559319Y-75064999D02*
X218559319Y-75322142D01*
X172553333Y-95450819D02*
X172220000Y-94974628D01*
X171981905Y-95450819D02*
X171981905Y-94450819D01*
X171981905Y-94450819D02*
X172362857Y-94450819D01*
X172362857Y-94450819D02*
X172458095Y-94498438D01*
X172458095Y-94498438D02*
X172505714Y-94546057D01*
X172505714Y-94546057D02*
X172553333Y-94641295D01*
X172553333Y-94641295D02*
X172553333Y-94784152D01*
X172553333Y-94784152D02*
X172505714Y-94879390D01*
X172505714Y-94879390D02*
X172458095Y-94927009D01*
X172458095Y-94927009D02*
X172362857Y-94974628D01*
X172362857Y-94974628D02*
X171981905Y-94974628D01*
X172934286Y-94546057D02*
X172981905Y-94498438D01*
X172981905Y-94498438D02*
X173077143Y-94450819D01*
X173077143Y-94450819D02*
X173315238Y-94450819D01*
X173315238Y-94450819D02*
X173410476Y-94498438D01*
X173410476Y-94498438D02*
X173458095Y-94546057D01*
X173458095Y-94546057D02*
X173505714Y-94641295D01*
X173505714Y-94641295D02*
X173505714Y-94736533D01*
X173505714Y-94736533D02*
X173458095Y-94879390D01*
X173458095Y-94879390D02*
X172886667Y-95450819D01*
X172886667Y-95450819D02*
X173505714Y-95450819D01*
X200591009Y-109624761D02*
X200638628Y-109481904D01*
X200638628Y-109481904D02*
X200686247Y-109434285D01*
X200686247Y-109434285D02*
X200781485Y-109386666D01*
X200781485Y-109386666D02*
X200924342Y-109386666D01*
X200924342Y-109386666D02*
X201019580Y-109434285D01*
X201019580Y-109434285D02*
X201067200Y-109481904D01*
X201067200Y-109481904D02*
X201114819Y-109577142D01*
X201114819Y-109577142D02*
X201114819Y-109958094D01*
X201114819Y-109958094D02*
X200114819Y-109958094D01*
X200114819Y-109958094D02*
X200114819Y-109624761D01*
X200114819Y-109624761D02*
X200162438Y-109529523D01*
X200162438Y-109529523D02*
X200210057Y-109481904D01*
X200210057Y-109481904D02*
X200305295Y-109434285D01*
X200305295Y-109434285D02*
X200400533Y-109434285D01*
X200400533Y-109434285D02*
X200495771Y-109481904D01*
X200495771Y-109481904D02*
X200543390Y-109529523D01*
X200543390Y-109529523D02*
X200591009Y-109624761D01*
X200591009Y-109624761D02*
X200591009Y-109958094D01*
X200114819Y-108481904D02*
X200114819Y-108958094D01*
X200114819Y-108958094D02*
X200591009Y-109005713D01*
X200591009Y-109005713D02*
X200543390Y-108958094D01*
X200543390Y-108958094D02*
X200495771Y-108862856D01*
X200495771Y-108862856D02*
X200495771Y-108624761D01*
X200495771Y-108624761D02*
X200543390Y-108529523D01*
X200543390Y-108529523D02*
X200591009Y-108481904D01*
X200591009Y-108481904D02*
X200686247Y-108434285D01*
X200686247Y-108434285D02*
X200924342Y-108434285D01*
X200924342Y-108434285D02*
X201019580Y-108481904D01*
X201019580Y-108481904D02*
X201067200Y-108529523D01*
X201067200Y-108529523D02*
X201114819Y-108624761D01*
X201114819Y-108624761D02*
X201114819Y-108862856D01*
X201114819Y-108862856D02*
X201067200Y-108958094D01*
X201067200Y-108958094D02*
X201019580Y-109005713D01*
X159631142Y-116024819D02*
X159297809Y-115548628D01*
X159059714Y-116024819D02*
X159059714Y-115024819D01*
X159059714Y-115024819D02*
X159440666Y-115024819D01*
X159440666Y-115024819D02*
X159535904Y-115072438D01*
X159535904Y-115072438D02*
X159583523Y-115120057D01*
X159583523Y-115120057D02*
X159631142Y-115215295D01*
X159631142Y-115215295D02*
X159631142Y-115358152D01*
X159631142Y-115358152D02*
X159583523Y-115453390D01*
X159583523Y-115453390D02*
X159535904Y-115501009D01*
X159535904Y-115501009D02*
X159440666Y-115548628D01*
X159440666Y-115548628D02*
X159059714Y-115548628D01*
X160583523Y-116024819D02*
X160012095Y-116024819D01*
X160297809Y-116024819D02*
X160297809Y-115024819D01*
X160297809Y-115024819D02*
X160202571Y-115167676D01*
X160202571Y-115167676D02*
X160107333Y-115262914D01*
X160107333Y-115262914D02*
X160012095Y-115310533D01*
X160964476Y-115120057D02*
X161012095Y-115072438D01*
X161012095Y-115072438D02*
X161107333Y-115024819D01*
X161107333Y-115024819D02*
X161345428Y-115024819D01*
X161345428Y-115024819D02*
X161440666Y-115072438D01*
X161440666Y-115072438D02*
X161488285Y-115120057D01*
X161488285Y-115120057D02*
X161535904Y-115215295D01*
X161535904Y-115215295D02*
X161535904Y-115310533D01*
X161535904Y-115310533D02*
X161488285Y-115453390D01*
X161488285Y-115453390D02*
X160916857Y-116024819D01*
X160916857Y-116024819D02*
X161535904Y-116024819D01*
X172553333Y-101451580D02*
X172505714Y-101499200D01*
X172505714Y-101499200D02*
X172362857Y-101546819D01*
X172362857Y-101546819D02*
X172267619Y-101546819D01*
X172267619Y-101546819D02*
X172124762Y-101499200D01*
X172124762Y-101499200D02*
X172029524Y-101403961D01*
X172029524Y-101403961D02*
X171981905Y-101308723D01*
X171981905Y-101308723D02*
X171934286Y-101118247D01*
X171934286Y-101118247D02*
X171934286Y-100975390D01*
X171934286Y-100975390D02*
X171981905Y-100784914D01*
X171981905Y-100784914D02*
X172029524Y-100689676D01*
X172029524Y-100689676D02*
X172124762Y-100594438D01*
X172124762Y-100594438D02*
X172267619Y-100546819D01*
X172267619Y-100546819D02*
X172362857Y-100546819D01*
X172362857Y-100546819D02*
X172505714Y-100594438D01*
X172505714Y-100594438D02*
X172553333Y-100642057D01*
X173029524Y-101546819D02*
X173220000Y-101546819D01*
X173220000Y-101546819D02*
X173315238Y-101499200D01*
X173315238Y-101499200D02*
X173362857Y-101451580D01*
X173362857Y-101451580D02*
X173458095Y-101308723D01*
X173458095Y-101308723D02*
X173505714Y-101118247D01*
X173505714Y-101118247D02*
X173505714Y-100737295D01*
X173505714Y-100737295D02*
X173458095Y-100642057D01*
X173458095Y-100642057D02*
X173410476Y-100594438D01*
X173410476Y-100594438D02*
X173315238Y-100546819D01*
X173315238Y-100546819D02*
X173124762Y-100546819D01*
X173124762Y-100546819D02*
X173029524Y-100594438D01*
X173029524Y-100594438D02*
X172981905Y-100642057D01*
X172981905Y-100642057D02*
X172934286Y-100737295D01*
X172934286Y-100737295D02*
X172934286Y-100975390D01*
X172934286Y-100975390D02*
X172981905Y-101070628D01*
X172981905Y-101070628D02*
X173029524Y-101118247D01*
X173029524Y-101118247D02*
X173124762Y-101165866D01*
X173124762Y-101165866D02*
X173315238Y-101165866D01*
X173315238Y-101165866D02*
X173410476Y-101118247D01*
X173410476Y-101118247D02*
X173458095Y-101070628D01*
X173458095Y-101070628D02*
X173505714Y-100975390D01*
X200591009Y-107592761D02*
X200638628Y-107449904D01*
X200638628Y-107449904D02*
X200686247Y-107402285D01*
X200686247Y-107402285D02*
X200781485Y-107354666D01*
X200781485Y-107354666D02*
X200924342Y-107354666D01*
X200924342Y-107354666D02*
X201019580Y-107402285D01*
X201019580Y-107402285D02*
X201067200Y-107449904D01*
X201067200Y-107449904D02*
X201114819Y-107545142D01*
X201114819Y-107545142D02*
X201114819Y-107926094D01*
X201114819Y-107926094D02*
X200114819Y-107926094D01*
X200114819Y-107926094D02*
X200114819Y-107592761D01*
X200114819Y-107592761D02*
X200162438Y-107497523D01*
X200162438Y-107497523D02*
X200210057Y-107449904D01*
X200210057Y-107449904D02*
X200305295Y-107402285D01*
X200305295Y-107402285D02*
X200400533Y-107402285D01*
X200400533Y-107402285D02*
X200495771Y-107449904D01*
X200495771Y-107449904D02*
X200543390Y-107497523D01*
X200543390Y-107497523D02*
X200591009Y-107592761D01*
X200591009Y-107592761D02*
X200591009Y-107926094D01*
X200114819Y-106497523D02*
X200114819Y-106687999D01*
X200114819Y-106687999D02*
X200162438Y-106783237D01*
X200162438Y-106783237D02*
X200210057Y-106830856D01*
X200210057Y-106830856D02*
X200352914Y-106926094D01*
X200352914Y-106926094D02*
X200543390Y-106973713D01*
X200543390Y-106973713D02*
X200924342Y-106973713D01*
X200924342Y-106973713D02*
X201019580Y-106926094D01*
X201019580Y-106926094D02*
X201067200Y-106878475D01*
X201067200Y-106878475D02*
X201114819Y-106783237D01*
X201114819Y-106783237D02*
X201114819Y-106592761D01*
X201114819Y-106592761D02*
X201067200Y-106497523D01*
X201067200Y-106497523D02*
X201019580Y-106449904D01*
X201019580Y-106449904D02*
X200924342Y-106402285D01*
X200924342Y-106402285D02*
X200686247Y-106402285D01*
X200686247Y-106402285D02*
X200591009Y-106449904D01*
X200591009Y-106449904D02*
X200543390Y-106497523D01*
X200543390Y-106497523D02*
X200495771Y-106592761D01*
X200495771Y-106592761D02*
X200495771Y-106783237D01*
X200495771Y-106783237D02*
X200543390Y-106878475D01*
X200543390Y-106878475D02*
X200591009Y-106926094D01*
X200591009Y-106926094D02*
X200686247Y-106973713D01*
X155194095Y-115516819D02*
X155194095Y-114516819D01*
X155194095Y-114993009D02*
X155765523Y-114993009D01*
X155765523Y-115516819D02*
X155765523Y-114516819D01*
X156146476Y-114516819D02*
X156765523Y-114516819D01*
X156765523Y-114516819D02*
X156432190Y-114897771D01*
X156432190Y-114897771D02*
X156575047Y-114897771D01*
X156575047Y-114897771D02*
X156670285Y-114945390D01*
X156670285Y-114945390D02*
X156717904Y-114993009D01*
X156717904Y-114993009D02*
X156765523Y-115088247D01*
X156765523Y-115088247D02*
X156765523Y-115326342D01*
X156765523Y-115326342D02*
X156717904Y-115421580D01*
X156717904Y-115421580D02*
X156670285Y-115469200D01*
X156670285Y-115469200D02*
X156575047Y-115516819D01*
X156575047Y-115516819D02*
X156289333Y-115516819D01*
X156289333Y-115516819D02*
X156194095Y-115469200D01*
X156194095Y-115469200D02*
X156146476Y-115421580D01*
X179903523Y-114913580D02*
X179855904Y-114961200D01*
X179855904Y-114961200D02*
X179713047Y-115008819D01*
X179713047Y-115008819D02*
X179617809Y-115008819D01*
X179617809Y-115008819D02*
X179474952Y-114961200D01*
X179474952Y-114961200D02*
X179379714Y-114865961D01*
X179379714Y-114865961D02*
X179332095Y-114770723D01*
X179332095Y-114770723D02*
X179284476Y-114580247D01*
X179284476Y-114580247D02*
X179284476Y-114437390D01*
X179284476Y-114437390D02*
X179332095Y-114246914D01*
X179332095Y-114246914D02*
X179379714Y-114151676D01*
X179379714Y-114151676D02*
X179474952Y-114056438D01*
X179474952Y-114056438D02*
X179617809Y-114008819D01*
X179617809Y-114008819D02*
X179713047Y-114008819D01*
X179713047Y-114008819D02*
X179855904Y-114056438D01*
X179855904Y-114056438D02*
X179903523Y-114104057D01*
X180332095Y-115008819D02*
X180332095Y-114008819D01*
X180332095Y-114008819D02*
X180903523Y-115008819D01*
X180903523Y-115008819D02*
X180903523Y-114008819D01*
X181284476Y-114008819D02*
X181903523Y-114008819D01*
X181903523Y-114008819D02*
X181570190Y-114389771D01*
X181570190Y-114389771D02*
X181713047Y-114389771D01*
X181713047Y-114389771D02*
X181808285Y-114437390D01*
X181808285Y-114437390D02*
X181855904Y-114485009D01*
X181855904Y-114485009D02*
X181903523Y-114580247D01*
X181903523Y-114580247D02*
X181903523Y-114818342D01*
X181903523Y-114818342D02*
X181855904Y-114913580D01*
X181855904Y-114913580D02*
X181808285Y-114961200D01*
X181808285Y-114961200D02*
X181713047Y-115008819D01*
X181713047Y-115008819D02*
X181427333Y-115008819D01*
X181427333Y-115008819D02*
X181332095Y-114961200D01*
X181332095Y-114961200D02*
X181284476Y-114913580D01*
X172553333Y-115929580D02*
X172505714Y-115977200D01*
X172505714Y-115977200D02*
X172362857Y-116024819D01*
X172362857Y-116024819D02*
X172267619Y-116024819D01*
X172267619Y-116024819D02*
X172124762Y-115977200D01*
X172124762Y-115977200D02*
X172029524Y-115881961D01*
X172029524Y-115881961D02*
X171981905Y-115786723D01*
X171981905Y-115786723D02*
X171934286Y-115596247D01*
X171934286Y-115596247D02*
X171934286Y-115453390D01*
X171934286Y-115453390D02*
X171981905Y-115262914D01*
X171981905Y-115262914D02*
X172029524Y-115167676D01*
X172029524Y-115167676D02*
X172124762Y-115072438D01*
X172124762Y-115072438D02*
X172267619Y-115024819D01*
X172267619Y-115024819D02*
X172362857Y-115024819D01*
X172362857Y-115024819D02*
X172505714Y-115072438D01*
X172505714Y-115072438D02*
X172553333Y-115120057D01*
X173410476Y-115358152D02*
X173410476Y-116024819D01*
X173172381Y-114977200D02*
X172934286Y-115691485D01*
X172934286Y-115691485D02*
X173553333Y-115691485D01*
X201415719Y-76293571D02*
X200415719Y-76293571D01*
X200415719Y-76293571D02*
X200415719Y-76150714D01*
X200415719Y-76150714D02*
X200463338Y-76065000D01*
X200463338Y-76065000D02*
X200558576Y-76007857D01*
X200558576Y-76007857D02*
X200653814Y-75979286D01*
X200653814Y-75979286D02*
X200844290Y-75950714D01*
X200844290Y-75950714D02*
X200987147Y-75950714D01*
X200987147Y-75950714D02*
X201177623Y-75979286D01*
X201177623Y-75979286D02*
X201272861Y-76007857D01*
X201272861Y-76007857D02*
X201368100Y-76065000D01*
X201368100Y-76065000D02*
X201415719Y-76150714D01*
X201415719Y-76150714D02*
X201415719Y-76293571D01*
X201415719Y-75379286D02*
X201415719Y-75722143D01*
X201415719Y-75550714D02*
X200415719Y-75550714D01*
X200415719Y-75550714D02*
X200558576Y-75607857D01*
X200558576Y-75607857D02*
X200653814Y-75665000D01*
X200653814Y-75665000D02*
X200701433Y-75722143D01*
X200415719Y-75179285D02*
X200415719Y-74779285D01*
X200415719Y-74779285D02*
X201415719Y-75036428D01*
X207496580Y-90479476D02*
X207544200Y-90527095D01*
X207544200Y-90527095D02*
X207591819Y-90669952D01*
X207591819Y-90669952D02*
X207591819Y-90765190D01*
X207591819Y-90765190D02*
X207544200Y-90908047D01*
X207544200Y-90908047D02*
X207448961Y-91003285D01*
X207448961Y-91003285D02*
X207353723Y-91050904D01*
X207353723Y-91050904D02*
X207163247Y-91098523D01*
X207163247Y-91098523D02*
X207020390Y-91098523D01*
X207020390Y-91098523D02*
X206829914Y-91050904D01*
X206829914Y-91050904D02*
X206734676Y-91003285D01*
X206734676Y-91003285D02*
X206639438Y-90908047D01*
X206639438Y-90908047D02*
X206591819Y-90765190D01*
X206591819Y-90765190D02*
X206591819Y-90669952D01*
X206591819Y-90669952D02*
X206639438Y-90527095D01*
X206639438Y-90527095D02*
X206687057Y-90479476D01*
X207591819Y-90050904D02*
X206591819Y-90050904D01*
X206591819Y-90050904D02*
X207591819Y-89479476D01*
X207591819Y-89479476D02*
X206591819Y-89479476D01*
X207591819Y-88479476D02*
X207591819Y-89050904D01*
X207591819Y-88765190D02*
X206591819Y-88765190D01*
X206591819Y-88765190D02*
X206734676Y-88860428D01*
X206734676Y-88860428D02*
X206829914Y-88955666D01*
X206829914Y-88955666D02*
X206877533Y-89050904D01*
X194415580Y-114688857D02*
X194463200Y-114736476D01*
X194463200Y-114736476D02*
X194510819Y-114879333D01*
X194510819Y-114879333D02*
X194510819Y-114974571D01*
X194510819Y-114974571D02*
X194463200Y-115117428D01*
X194463200Y-115117428D02*
X194367961Y-115212666D01*
X194367961Y-115212666D02*
X194272723Y-115260285D01*
X194272723Y-115260285D02*
X194082247Y-115307904D01*
X194082247Y-115307904D02*
X193939390Y-115307904D01*
X193939390Y-115307904D02*
X193748914Y-115260285D01*
X193748914Y-115260285D02*
X193653676Y-115212666D01*
X193653676Y-115212666D02*
X193558438Y-115117428D01*
X193558438Y-115117428D02*
X193510819Y-114974571D01*
X193510819Y-114974571D02*
X193510819Y-114879333D01*
X193510819Y-114879333D02*
X193558438Y-114736476D01*
X193558438Y-114736476D02*
X193606057Y-114688857D01*
X194510819Y-113736476D02*
X194510819Y-114307904D01*
X194510819Y-114022190D02*
X193510819Y-114022190D01*
X193510819Y-114022190D02*
X193653676Y-114117428D01*
X193653676Y-114117428D02*
X193748914Y-114212666D01*
X193748914Y-114212666D02*
X193796533Y-114307904D01*
X193606057Y-113355523D02*
X193558438Y-113307904D01*
X193558438Y-113307904D02*
X193510819Y-113212666D01*
X193510819Y-113212666D02*
X193510819Y-112974571D01*
X193510819Y-112974571D02*
X193558438Y-112879333D01*
X193558438Y-112879333D02*
X193606057Y-112831714D01*
X193606057Y-112831714D02*
X193701295Y-112784095D01*
X193701295Y-112784095D02*
X193796533Y-112784095D01*
X193796533Y-112784095D02*
X193939390Y-112831714D01*
X193939390Y-112831714D02*
X194510819Y-113403142D01*
X194510819Y-113403142D02*
X194510819Y-112784095D01*
X207449009Y-98956761D02*
X207496628Y-98813904D01*
X207496628Y-98813904D02*
X207544247Y-98766285D01*
X207544247Y-98766285D02*
X207639485Y-98718666D01*
X207639485Y-98718666D02*
X207782342Y-98718666D01*
X207782342Y-98718666D02*
X207877580Y-98766285D01*
X207877580Y-98766285D02*
X207925200Y-98813904D01*
X207925200Y-98813904D02*
X207972819Y-98909142D01*
X207972819Y-98909142D02*
X207972819Y-99290094D01*
X207972819Y-99290094D02*
X206972819Y-99290094D01*
X206972819Y-99290094D02*
X206972819Y-98956761D01*
X206972819Y-98956761D02*
X207020438Y-98861523D01*
X207020438Y-98861523D02*
X207068057Y-98813904D01*
X207068057Y-98813904D02*
X207163295Y-98766285D01*
X207163295Y-98766285D02*
X207258533Y-98766285D01*
X207258533Y-98766285D02*
X207353771Y-98813904D01*
X207353771Y-98813904D02*
X207401390Y-98861523D01*
X207401390Y-98861523D02*
X207449009Y-98956761D01*
X207449009Y-98956761D02*
X207449009Y-99290094D01*
X207972819Y-97766285D02*
X207972819Y-98337713D01*
X207972819Y-98051999D02*
X206972819Y-98051999D01*
X206972819Y-98051999D02*
X207115676Y-98147237D01*
X207115676Y-98147237D02*
X207210914Y-98242475D01*
X207210914Y-98242475D02*
X207258533Y-98337713D01*
X201114819Y-113450666D02*
X200638628Y-113783999D01*
X201114819Y-114022094D02*
X200114819Y-114022094D01*
X200114819Y-114022094D02*
X200114819Y-113641142D01*
X200114819Y-113641142D02*
X200162438Y-113545904D01*
X200162438Y-113545904D02*
X200210057Y-113498285D01*
X200210057Y-113498285D02*
X200305295Y-113450666D01*
X200305295Y-113450666D02*
X200448152Y-113450666D01*
X200448152Y-113450666D02*
X200543390Y-113498285D01*
X200543390Y-113498285D02*
X200591009Y-113545904D01*
X200591009Y-113545904D02*
X200638628Y-113641142D01*
X200638628Y-113641142D02*
X200638628Y-114022094D01*
X200543390Y-112879237D02*
X200495771Y-112974475D01*
X200495771Y-112974475D02*
X200448152Y-113022094D01*
X200448152Y-113022094D02*
X200352914Y-113069713D01*
X200352914Y-113069713D02*
X200305295Y-113069713D01*
X200305295Y-113069713D02*
X200210057Y-113022094D01*
X200210057Y-113022094D02*
X200162438Y-112974475D01*
X200162438Y-112974475D02*
X200114819Y-112879237D01*
X200114819Y-112879237D02*
X200114819Y-112688761D01*
X200114819Y-112688761D02*
X200162438Y-112593523D01*
X200162438Y-112593523D02*
X200210057Y-112545904D01*
X200210057Y-112545904D02*
X200305295Y-112498285D01*
X200305295Y-112498285D02*
X200352914Y-112498285D01*
X200352914Y-112498285D02*
X200448152Y-112545904D01*
X200448152Y-112545904D02*
X200495771Y-112593523D01*
X200495771Y-112593523D02*
X200543390Y-112688761D01*
X200543390Y-112688761D02*
X200543390Y-112879237D01*
X200543390Y-112879237D02*
X200591009Y-112974475D01*
X200591009Y-112974475D02*
X200638628Y-113022094D01*
X200638628Y-113022094D02*
X200733866Y-113069713D01*
X200733866Y-113069713D02*
X200924342Y-113069713D01*
X200924342Y-113069713D02*
X201019580Y-113022094D01*
X201019580Y-113022094D02*
X201067200Y-112974475D01*
X201067200Y-112974475D02*
X201114819Y-112879237D01*
X201114819Y-112879237D02*
X201114819Y-112688761D01*
X201114819Y-112688761D02*
X201067200Y-112593523D01*
X201067200Y-112593523D02*
X201019580Y-112545904D01*
X201019580Y-112545904D02*
X200924342Y-112498285D01*
X200924342Y-112498285D02*
X200733866Y-112498285D01*
X200733866Y-112498285D02*
X200638628Y-112545904D01*
X200638628Y-112545904D02*
X200591009Y-112593523D01*
X200591009Y-112593523D02*
X200543390Y-112688761D01*
X203576285Y-92119580D02*
X203547713Y-92167200D01*
X203547713Y-92167200D02*
X203461999Y-92214819D01*
X203461999Y-92214819D02*
X203404856Y-92214819D01*
X203404856Y-92214819D02*
X203319142Y-92167200D01*
X203319142Y-92167200D02*
X203261999Y-92071961D01*
X203261999Y-92071961D02*
X203233428Y-91976723D01*
X203233428Y-91976723D02*
X203204856Y-91786247D01*
X203204856Y-91786247D02*
X203204856Y-91643390D01*
X203204856Y-91643390D02*
X203233428Y-91452914D01*
X203233428Y-91452914D02*
X203261999Y-91357676D01*
X203261999Y-91357676D02*
X203319142Y-91262438D01*
X203319142Y-91262438D02*
X203404856Y-91214819D01*
X203404856Y-91214819D02*
X203461999Y-91214819D01*
X203461999Y-91214819D02*
X203547713Y-91262438D01*
X203547713Y-91262438D02*
X203576285Y-91310057D01*
X204147713Y-92214819D02*
X203804856Y-92214819D01*
X203976285Y-92214819D02*
X203976285Y-91214819D01*
X203976285Y-91214819D02*
X203919142Y-91357676D01*
X203919142Y-91357676D02*
X203861999Y-91452914D01*
X203861999Y-91452914D02*
X203804856Y-91500533D01*
X204662000Y-91214819D02*
X204547714Y-91214819D01*
X204547714Y-91214819D02*
X204490571Y-91262438D01*
X204490571Y-91262438D02*
X204462000Y-91310057D01*
X204462000Y-91310057D02*
X204404857Y-91452914D01*
X204404857Y-91452914D02*
X204376285Y-91643390D01*
X204376285Y-91643390D02*
X204376285Y-92024342D01*
X204376285Y-92024342D02*
X204404857Y-92119580D01*
X204404857Y-92119580D02*
X204433428Y-92167200D01*
X204433428Y-92167200D02*
X204490571Y-92214819D01*
X204490571Y-92214819D02*
X204604857Y-92214819D01*
X204604857Y-92214819D02*
X204662000Y-92167200D01*
X204662000Y-92167200D02*
X204690571Y-92119580D01*
X204690571Y-92119580D02*
X204719142Y-92024342D01*
X204719142Y-92024342D02*
X204719142Y-91786247D01*
X204719142Y-91786247D02*
X204690571Y-91691009D01*
X204690571Y-91691009D02*
X204662000Y-91643390D01*
X204662000Y-91643390D02*
X204604857Y-91595771D01*
X204604857Y-91595771D02*
X204490571Y-91595771D01*
X204490571Y-91595771D02*
X204433428Y-91643390D01*
X204433428Y-91643390D02*
X204404857Y-91691009D01*
X204404857Y-91691009D02*
X204376285Y-91786247D01*
X205671009Y-98448761D02*
X205718628Y-98305904D01*
X205718628Y-98305904D02*
X205766247Y-98258285D01*
X205766247Y-98258285D02*
X205861485Y-98210666D01*
X205861485Y-98210666D02*
X206004342Y-98210666D01*
X206004342Y-98210666D02*
X206099580Y-98258285D01*
X206099580Y-98258285D02*
X206147200Y-98305904D01*
X206147200Y-98305904D02*
X206194819Y-98401142D01*
X206194819Y-98401142D02*
X206194819Y-98782094D01*
X206194819Y-98782094D02*
X205194819Y-98782094D01*
X205194819Y-98782094D02*
X205194819Y-98448761D01*
X205194819Y-98448761D02*
X205242438Y-98353523D01*
X205242438Y-98353523D02*
X205290057Y-98305904D01*
X205290057Y-98305904D02*
X205385295Y-98258285D01*
X205385295Y-98258285D02*
X205480533Y-98258285D01*
X205480533Y-98258285D02*
X205575771Y-98305904D01*
X205575771Y-98305904D02*
X205623390Y-98353523D01*
X205623390Y-98353523D02*
X205671009Y-98448761D01*
X205671009Y-98448761D02*
X205671009Y-98782094D01*
X205194819Y-97877332D02*
X205194819Y-97210666D01*
X205194819Y-97210666D02*
X206194819Y-97639237D01*
X202314819Y-89590476D02*
X201838628Y-89923809D01*
X202314819Y-90161904D02*
X201314819Y-90161904D01*
X201314819Y-90161904D02*
X201314819Y-89780952D01*
X201314819Y-89780952D02*
X201362438Y-89685714D01*
X201362438Y-89685714D02*
X201410057Y-89638095D01*
X201410057Y-89638095D02*
X201505295Y-89590476D01*
X201505295Y-89590476D02*
X201648152Y-89590476D01*
X201648152Y-89590476D02*
X201743390Y-89638095D01*
X201743390Y-89638095D02*
X201791009Y-89685714D01*
X201791009Y-89685714D02*
X201838628Y-89780952D01*
X201838628Y-89780952D02*
X201838628Y-90161904D01*
X202314819Y-89161904D02*
X201314819Y-89161904D01*
X201314819Y-89161904D02*
X202314819Y-88590476D01*
X202314819Y-88590476D02*
X201314819Y-88590476D01*
X201314819Y-88209523D02*
X201314819Y-87590476D01*
X201314819Y-87590476D02*
X201695771Y-87923809D01*
X201695771Y-87923809D02*
X201695771Y-87780952D01*
X201695771Y-87780952D02*
X201743390Y-87685714D01*
X201743390Y-87685714D02*
X201791009Y-87638095D01*
X201791009Y-87638095D02*
X201886247Y-87590476D01*
X201886247Y-87590476D02*
X202124342Y-87590476D01*
X202124342Y-87590476D02*
X202219580Y-87638095D01*
X202219580Y-87638095D02*
X202267200Y-87685714D01*
X202267200Y-87685714D02*
X202314819Y-87780952D01*
X202314819Y-87780952D02*
X202314819Y-88066666D01*
X202314819Y-88066666D02*
X202267200Y-88161904D01*
X202267200Y-88161904D02*
X202219580Y-88209523D01*
X159885142Y-107801580D02*
X159837523Y-107849200D01*
X159837523Y-107849200D02*
X159694666Y-107896819D01*
X159694666Y-107896819D02*
X159599428Y-107896819D01*
X159599428Y-107896819D02*
X159456571Y-107849200D01*
X159456571Y-107849200D02*
X159361333Y-107753961D01*
X159361333Y-107753961D02*
X159313714Y-107658723D01*
X159313714Y-107658723D02*
X159266095Y-107468247D01*
X159266095Y-107468247D02*
X159266095Y-107325390D01*
X159266095Y-107325390D02*
X159313714Y-107134914D01*
X159313714Y-107134914D02*
X159361333Y-107039676D01*
X159361333Y-107039676D02*
X159456571Y-106944438D01*
X159456571Y-106944438D02*
X159599428Y-106896819D01*
X159599428Y-106896819D02*
X159694666Y-106896819D01*
X159694666Y-106896819D02*
X159837523Y-106944438D01*
X159837523Y-106944438D02*
X159885142Y-106992057D01*
X160837523Y-107896819D02*
X160266095Y-107896819D01*
X160551809Y-107896819D02*
X160551809Y-106896819D01*
X160551809Y-106896819D02*
X160456571Y-107039676D01*
X160456571Y-107039676D02*
X160361333Y-107134914D01*
X160361333Y-107134914D02*
X160266095Y-107182533D01*
X161408952Y-107325390D02*
X161313714Y-107277771D01*
X161313714Y-107277771D02*
X161266095Y-107230152D01*
X161266095Y-107230152D02*
X161218476Y-107134914D01*
X161218476Y-107134914D02*
X161218476Y-107087295D01*
X161218476Y-107087295D02*
X161266095Y-106992057D01*
X161266095Y-106992057D02*
X161313714Y-106944438D01*
X161313714Y-106944438D02*
X161408952Y-106896819D01*
X161408952Y-106896819D02*
X161599428Y-106896819D01*
X161599428Y-106896819D02*
X161694666Y-106944438D01*
X161694666Y-106944438D02*
X161742285Y-106992057D01*
X161742285Y-106992057D02*
X161789904Y-107087295D01*
X161789904Y-107087295D02*
X161789904Y-107134914D01*
X161789904Y-107134914D02*
X161742285Y-107230152D01*
X161742285Y-107230152D02*
X161694666Y-107277771D01*
X161694666Y-107277771D02*
X161599428Y-107325390D01*
X161599428Y-107325390D02*
X161408952Y-107325390D01*
X161408952Y-107325390D02*
X161313714Y-107373009D01*
X161313714Y-107373009D02*
X161266095Y-107420628D01*
X161266095Y-107420628D02*
X161218476Y-107515866D01*
X161218476Y-107515866D02*
X161218476Y-107706342D01*
X161218476Y-107706342D02*
X161266095Y-107801580D01*
X161266095Y-107801580D02*
X161313714Y-107849200D01*
X161313714Y-107849200D02*
X161408952Y-107896819D01*
X161408952Y-107896819D02*
X161599428Y-107896819D01*
X161599428Y-107896819D02*
X161694666Y-107849200D01*
X161694666Y-107849200D02*
X161742285Y-107801580D01*
X161742285Y-107801580D02*
X161789904Y-107706342D01*
X161789904Y-107706342D02*
X161789904Y-107515866D01*
X161789904Y-107515866D02*
X161742285Y-107420628D01*
X161742285Y-107420628D02*
X161694666Y-107373009D01*
X161694666Y-107373009D02*
X161599428Y-107325390D01*
X186376819Y-89590476D02*
X185900628Y-89923809D01*
X186376819Y-90161904D02*
X185376819Y-90161904D01*
X185376819Y-90161904D02*
X185376819Y-89780952D01*
X185376819Y-89780952D02*
X185424438Y-89685714D01*
X185424438Y-89685714D02*
X185472057Y-89638095D01*
X185472057Y-89638095D02*
X185567295Y-89590476D01*
X185567295Y-89590476D02*
X185710152Y-89590476D01*
X185710152Y-89590476D02*
X185805390Y-89638095D01*
X185805390Y-89638095D02*
X185853009Y-89685714D01*
X185853009Y-89685714D02*
X185900628Y-89780952D01*
X185900628Y-89780952D02*
X185900628Y-90161904D01*
X186376819Y-89161904D02*
X185376819Y-89161904D01*
X185376819Y-89161904D02*
X186376819Y-88590476D01*
X186376819Y-88590476D02*
X185376819Y-88590476D01*
X185376819Y-88209523D02*
X185376819Y-87542857D01*
X185376819Y-87542857D02*
X186376819Y-87971428D01*
X172553333Y-97482819D02*
X172220000Y-97006628D01*
X171981905Y-97482819D02*
X171981905Y-96482819D01*
X171981905Y-96482819D02*
X172362857Y-96482819D01*
X172362857Y-96482819D02*
X172458095Y-96530438D01*
X172458095Y-96530438D02*
X172505714Y-96578057D01*
X172505714Y-96578057D02*
X172553333Y-96673295D01*
X172553333Y-96673295D02*
X172553333Y-96816152D01*
X172553333Y-96816152D02*
X172505714Y-96911390D01*
X172505714Y-96911390D02*
X172458095Y-96959009D01*
X172458095Y-96959009D02*
X172362857Y-97006628D01*
X172362857Y-97006628D02*
X171981905Y-97006628D01*
X172886667Y-96482819D02*
X173505714Y-96482819D01*
X173505714Y-96482819D02*
X173172381Y-96863771D01*
X173172381Y-96863771D02*
X173315238Y-96863771D01*
X173315238Y-96863771D02*
X173410476Y-96911390D01*
X173410476Y-96911390D02*
X173458095Y-96959009D01*
X173458095Y-96959009D02*
X173505714Y-97054247D01*
X173505714Y-97054247D02*
X173505714Y-97292342D01*
X173505714Y-97292342D02*
X173458095Y-97387580D01*
X173458095Y-97387580D02*
X173410476Y-97435200D01*
X173410476Y-97435200D02*
X173315238Y-97482819D01*
X173315238Y-97482819D02*
X173029524Y-97482819D01*
X173029524Y-97482819D02*
X172934286Y-97435200D01*
X172934286Y-97435200D02*
X172886667Y-97387580D01*
X222115319Y-76007856D02*
X221115319Y-76007856D01*
X221115319Y-76007856D02*
X221115319Y-75864999D01*
X221115319Y-75864999D02*
X221162938Y-75779285D01*
X221162938Y-75779285D02*
X221258176Y-75722142D01*
X221258176Y-75722142D02*
X221353414Y-75693571D01*
X221353414Y-75693571D02*
X221543890Y-75664999D01*
X221543890Y-75664999D02*
X221686747Y-75664999D01*
X221686747Y-75664999D02*
X221877223Y-75693571D01*
X221877223Y-75693571D02*
X221972461Y-75722142D01*
X221972461Y-75722142D02*
X222067700Y-75779285D01*
X222067700Y-75779285D02*
X222115319Y-75864999D01*
X222115319Y-75864999D02*
X222115319Y-76007856D01*
X221115319Y-75122142D02*
X221115319Y-75407856D01*
X221115319Y-75407856D02*
X221591509Y-75436428D01*
X221591509Y-75436428D02*
X221543890Y-75407856D01*
X221543890Y-75407856D02*
X221496271Y-75350714D01*
X221496271Y-75350714D02*
X221496271Y-75207856D01*
X221496271Y-75207856D02*
X221543890Y-75150714D01*
X221543890Y-75150714D02*
X221591509Y-75122142D01*
X221591509Y-75122142D02*
X221686747Y-75093571D01*
X221686747Y-75093571D02*
X221924842Y-75093571D01*
X221924842Y-75093571D02*
X222020080Y-75122142D01*
X222020080Y-75122142D02*
X222067700Y-75150714D01*
X222067700Y-75150714D02*
X222115319Y-75207856D01*
X222115319Y-75207856D02*
X222115319Y-75350714D01*
X222115319Y-75350714D02*
X222067700Y-75407856D01*
X222067700Y-75407856D02*
X222020080Y-75436428D01*
X206502095Y-117802819D02*
X206502095Y-116802819D01*
X206502095Y-117279009D02*
X207073523Y-117279009D01*
X207073523Y-117802819D02*
X207073523Y-116802819D01*
X207978285Y-117136152D02*
X207978285Y-117802819D01*
X207740190Y-116755200D02*
X207502095Y-117469485D01*
X207502095Y-117469485D02*
X208121142Y-117469485D01*
X159885142Y-111862819D02*
X159551809Y-111386628D01*
X159313714Y-111862819D02*
X159313714Y-110862819D01*
X159313714Y-110862819D02*
X159694666Y-110862819D01*
X159694666Y-110862819D02*
X159789904Y-110910438D01*
X159789904Y-110910438D02*
X159837523Y-110958057D01*
X159837523Y-110958057D02*
X159885142Y-111053295D01*
X159885142Y-111053295D02*
X159885142Y-111196152D01*
X159885142Y-111196152D02*
X159837523Y-111291390D01*
X159837523Y-111291390D02*
X159789904Y-111339009D01*
X159789904Y-111339009D02*
X159694666Y-111386628D01*
X159694666Y-111386628D02*
X159313714Y-111386628D01*
X160837523Y-111862819D02*
X160266095Y-111862819D01*
X160551809Y-111862819D02*
X160551809Y-110862819D01*
X160551809Y-110862819D02*
X160456571Y-111005676D01*
X160456571Y-111005676D02*
X160361333Y-111100914D01*
X160361333Y-111100914D02*
X160266095Y-111148533D01*
X161456571Y-110862819D02*
X161551809Y-110862819D01*
X161551809Y-110862819D02*
X161647047Y-110910438D01*
X161647047Y-110910438D02*
X161694666Y-110958057D01*
X161694666Y-110958057D02*
X161742285Y-111053295D01*
X161742285Y-111053295D02*
X161789904Y-111243771D01*
X161789904Y-111243771D02*
X161789904Y-111481866D01*
X161789904Y-111481866D02*
X161742285Y-111672342D01*
X161742285Y-111672342D02*
X161694666Y-111767580D01*
X161694666Y-111767580D02*
X161647047Y-111815200D01*
X161647047Y-111815200D02*
X161551809Y-111862819D01*
X161551809Y-111862819D02*
X161456571Y-111862819D01*
X161456571Y-111862819D02*
X161361333Y-111815200D01*
X161361333Y-111815200D02*
X161313714Y-111767580D01*
X161313714Y-111767580D02*
X161266095Y-111672342D01*
X161266095Y-111672342D02*
X161218476Y-111481866D01*
X161218476Y-111481866D02*
X161218476Y-111243771D01*
X161218476Y-111243771D02*
X161266095Y-111053295D01*
X161266095Y-111053295D02*
X161313714Y-110958057D01*
X161313714Y-110958057D02*
X161361333Y-110910438D01*
X161361333Y-110910438D02*
X161456571Y-110862819D01*
X153267580Y-106938014D02*
X153315200Y-106966586D01*
X153315200Y-106966586D02*
X153362819Y-107052300D01*
X153362819Y-107052300D02*
X153362819Y-107109443D01*
X153362819Y-107109443D02*
X153315200Y-107195157D01*
X153315200Y-107195157D02*
X153219961Y-107252300D01*
X153219961Y-107252300D02*
X153124723Y-107280871D01*
X153124723Y-107280871D02*
X152934247Y-107309443D01*
X152934247Y-107309443D02*
X152791390Y-107309443D01*
X152791390Y-107309443D02*
X152600914Y-107280871D01*
X152600914Y-107280871D02*
X152505676Y-107252300D01*
X152505676Y-107252300D02*
X152410438Y-107195157D01*
X152410438Y-107195157D02*
X152362819Y-107109443D01*
X152362819Y-107109443D02*
X152362819Y-107052300D01*
X152362819Y-107052300D02*
X152410438Y-106966586D01*
X152410438Y-106966586D02*
X152458057Y-106938014D01*
X152458057Y-106709443D02*
X152410438Y-106680871D01*
X152410438Y-106680871D02*
X152362819Y-106623729D01*
X152362819Y-106623729D02*
X152362819Y-106480871D01*
X152362819Y-106480871D02*
X152410438Y-106423729D01*
X152410438Y-106423729D02*
X152458057Y-106395157D01*
X152458057Y-106395157D02*
X152553295Y-106366586D01*
X152553295Y-106366586D02*
X152648533Y-106366586D01*
X152648533Y-106366586D02*
X152791390Y-106395157D01*
X152791390Y-106395157D02*
X153362819Y-106738014D01*
X153362819Y-106738014D02*
X153362819Y-106366586D01*
X152458057Y-106138014D02*
X152410438Y-106109442D01*
X152410438Y-106109442D02*
X152362819Y-106052300D01*
X152362819Y-106052300D02*
X152362819Y-105909442D01*
X152362819Y-105909442D02*
X152410438Y-105852300D01*
X152410438Y-105852300D02*
X152458057Y-105823728D01*
X152458057Y-105823728D02*
X152553295Y-105795157D01*
X152553295Y-105795157D02*
X152648533Y-105795157D01*
X152648533Y-105795157D02*
X152791390Y-105823728D01*
X152791390Y-105823728D02*
X153362819Y-106166585D01*
X153362819Y-106166585D02*
X153362819Y-105795157D01*
X208482219Y-76293571D02*
X207482219Y-76293571D01*
X207482219Y-76293571D02*
X207482219Y-76150714D01*
X207482219Y-76150714D02*
X207529838Y-76065000D01*
X207529838Y-76065000D02*
X207625076Y-76007857D01*
X207625076Y-76007857D02*
X207720314Y-75979286D01*
X207720314Y-75979286D02*
X207910790Y-75950714D01*
X207910790Y-75950714D02*
X208053647Y-75950714D01*
X208053647Y-75950714D02*
X208244123Y-75979286D01*
X208244123Y-75979286D02*
X208339361Y-76007857D01*
X208339361Y-76007857D02*
X208434600Y-76065000D01*
X208434600Y-76065000D02*
X208482219Y-76150714D01*
X208482219Y-76150714D02*
X208482219Y-76293571D01*
X208482219Y-75379286D02*
X208482219Y-75722143D01*
X208482219Y-75550714D02*
X207482219Y-75550714D01*
X207482219Y-75550714D02*
X207625076Y-75607857D01*
X207625076Y-75607857D02*
X207720314Y-75665000D01*
X207720314Y-75665000D02*
X207767933Y-75722143D01*
X207577457Y-75150714D02*
X207529838Y-75122142D01*
X207529838Y-75122142D02*
X207482219Y-75065000D01*
X207482219Y-75065000D02*
X207482219Y-74922142D01*
X207482219Y-74922142D02*
X207529838Y-74865000D01*
X207529838Y-74865000D02*
X207577457Y-74836428D01*
X207577457Y-74836428D02*
X207672695Y-74807857D01*
X207672695Y-74807857D02*
X207767933Y-74807857D01*
X207767933Y-74807857D02*
X207910790Y-74836428D01*
X207910790Y-74836428D02*
X208482219Y-75179285D01*
X208482219Y-75179285D02*
X208482219Y-74807857D01*
X207195009Y-111910761D02*
X207242628Y-111767904D01*
X207242628Y-111767904D02*
X207290247Y-111720285D01*
X207290247Y-111720285D02*
X207385485Y-111672666D01*
X207385485Y-111672666D02*
X207528342Y-111672666D01*
X207528342Y-111672666D02*
X207623580Y-111720285D01*
X207623580Y-111720285D02*
X207671200Y-111767904D01*
X207671200Y-111767904D02*
X207718819Y-111863142D01*
X207718819Y-111863142D02*
X207718819Y-112244094D01*
X207718819Y-112244094D02*
X206718819Y-112244094D01*
X206718819Y-112244094D02*
X206718819Y-111910761D01*
X206718819Y-111910761D02*
X206766438Y-111815523D01*
X206766438Y-111815523D02*
X206814057Y-111767904D01*
X206814057Y-111767904D02*
X206909295Y-111720285D01*
X206909295Y-111720285D02*
X207004533Y-111720285D01*
X207004533Y-111720285D02*
X207099771Y-111767904D01*
X207099771Y-111767904D02*
X207147390Y-111815523D01*
X207147390Y-111815523D02*
X207195009Y-111910761D01*
X207195009Y-111910761D02*
X207195009Y-112244094D01*
X206814057Y-111291713D02*
X206766438Y-111244094D01*
X206766438Y-111244094D02*
X206718819Y-111148856D01*
X206718819Y-111148856D02*
X206718819Y-110910761D01*
X206718819Y-110910761D02*
X206766438Y-110815523D01*
X206766438Y-110815523D02*
X206814057Y-110767904D01*
X206814057Y-110767904D02*
X206909295Y-110720285D01*
X206909295Y-110720285D02*
X207004533Y-110720285D01*
X207004533Y-110720285D02*
X207147390Y-110767904D01*
X207147390Y-110767904D02*
X207718819Y-111339332D01*
X207718819Y-111339332D02*
X207718819Y-110720285D01*
X155702095Y-77924819D02*
X155702095Y-76924819D01*
X155702095Y-77401009D02*
X156273523Y-77401009D01*
X156273523Y-77924819D02*
X156273523Y-76924819D01*
X156702095Y-77020057D02*
X156749714Y-76972438D01*
X156749714Y-76972438D02*
X156844952Y-76924819D01*
X156844952Y-76924819D02*
X157083047Y-76924819D01*
X157083047Y-76924819D02*
X157178285Y-76972438D01*
X157178285Y-76972438D02*
X157225904Y-77020057D01*
X157225904Y-77020057D02*
X157273523Y-77115295D01*
X157273523Y-77115295D02*
X157273523Y-77210533D01*
X157273523Y-77210533D02*
X157225904Y-77353390D01*
X157225904Y-77353390D02*
X156654476Y-77924819D01*
X156654476Y-77924819D02*
X157273523Y-77924819D01*
X153267580Y-104906014D02*
X153315200Y-104934586D01*
X153315200Y-104934586D02*
X153362819Y-105020300D01*
X153362819Y-105020300D02*
X153362819Y-105077443D01*
X153362819Y-105077443D02*
X153315200Y-105163157D01*
X153315200Y-105163157D02*
X153219961Y-105220300D01*
X153219961Y-105220300D02*
X153124723Y-105248871D01*
X153124723Y-105248871D02*
X152934247Y-105277443D01*
X152934247Y-105277443D02*
X152791390Y-105277443D01*
X152791390Y-105277443D02*
X152600914Y-105248871D01*
X152600914Y-105248871D02*
X152505676Y-105220300D01*
X152505676Y-105220300D02*
X152410438Y-105163157D01*
X152410438Y-105163157D02*
X152362819Y-105077443D01*
X152362819Y-105077443D02*
X152362819Y-105020300D01*
X152362819Y-105020300D02*
X152410438Y-104934586D01*
X152410438Y-104934586D02*
X152458057Y-104906014D01*
X152458057Y-104677443D02*
X152410438Y-104648871D01*
X152410438Y-104648871D02*
X152362819Y-104591729D01*
X152362819Y-104591729D02*
X152362819Y-104448871D01*
X152362819Y-104448871D02*
X152410438Y-104391729D01*
X152410438Y-104391729D02*
X152458057Y-104363157D01*
X152458057Y-104363157D02*
X152553295Y-104334586D01*
X152553295Y-104334586D02*
X152648533Y-104334586D01*
X152648533Y-104334586D02*
X152791390Y-104363157D01*
X152791390Y-104363157D02*
X153362819Y-104706014D01*
X153362819Y-104706014D02*
X153362819Y-104334586D01*
X153362819Y-103763157D02*
X153362819Y-104106014D01*
X153362819Y-103934585D02*
X152362819Y-103934585D01*
X152362819Y-103934585D02*
X152505676Y-103991728D01*
X152505676Y-103991728D02*
X152600914Y-104048871D01*
X152600914Y-104048871D02*
X152648533Y-104106014D01*
X197050819Y-89590476D02*
X196574628Y-89923809D01*
X197050819Y-90161904D02*
X196050819Y-90161904D01*
X196050819Y-90161904D02*
X196050819Y-89780952D01*
X196050819Y-89780952D02*
X196098438Y-89685714D01*
X196098438Y-89685714D02*
X196146057Y-89638095D01*
X196146057Y-89638095D02*
X196241295Y-89590476D01*
X196241295Y-89590476D02*
X196384152Y-89590476D01*
X196384152Y-89590476D02*
X196479390Y-89638095D01*
X196479390Y-89638095D02*
X196527009Y-89685714D01*
X196527009Y-89685714D02*
X196574628Y-89780952D01*
X196574628Y-89780952D02*
X196574628Y-90161904D01*
X197050819Y-89161904D02*
X196050819Y-89161904D01*
X196050819Y-89161904D02*
X197050819Y-88590476D01*
X197050819Y-88590476D02*
X196050819Y-88590476D01*
X196384152Y-87685714D02*
X197050819Y-87685714D01*
X196003200Y-87923809D02*
X196717485Y-88161904D01*
X196717485Y-88161904D02*
X196717485Y-87542857D01*
X184509580Y-114688857D02*
X184557200Y-114736476D01*
X184557200Y-114736476D02*
X184604819Y-114879333D01*
X184604819Y-114879333D02*
X184604819Y-114974571D01*
X184604819Y-114974571D02*
X184557200Y-115117428D01*
X184557200Y-115117428D02*
X184461961Y-115212666D01*
X184461961Y-115212666D02*
X184366723Y-115260285D01*
X184366723Y-115260285D02*
X184176247Y-115307904D01*
X184176247Y-115307904D02*
X184033390Y-115307904D01*
X184033390Y-115307904D02*
X183842914Y-115260285D01*
X183842914Y-115260285D02*
X183747676Y-115212666D01*
X183747676Y-115212666D02*
X183652438Y-115117428D01*
X183652438Y-115117428D02*
X183604819Y-114974571D01*
X183604819Y-114974571D02*
X183604819Y-114879333D01*
X183604819Y-114879333D02*
X183652438Y-114736476D01*
X183652438Y-114736476D02*
X183700057Y-114688857D01*
X184604819Y-113736476D02*
X184604819Y-114307904D01*
X184604819Y-114022190D02*
X183604819Y-114022190D01*
X183604819Y-114022190D02*
X183747676Y-114117428D01*
X183747676Y-114117428D02*
X183842914Y-114212666D01*
X183842914Y-114212666D02*
X183890533Y-114307904D01*
X184604819Y-112784095D02*
X184604819Y-113355523D01*
X184604819Y-113069809D02*
X183604819Y-113069809D01*
X183604819Y-113069809D02*
X183747676Y-113165047D01*
X183747676Y-113165047D02*
X183842914Y-113260285D01*
X183842914Y-113260285D02*
X183890533Y-113355523D01*
X210051719Y-76293571D02*
X209051719Y-76293571D01*
X209051719Y-76293571D02*
X209051719Y-76150714D01*
X209051719Y-76150714D02*
X209099338Y-76065000D01*
X209099338Y-76065000D02*
X209194576Y-76007857D01*
X209194576Y-76007857D02*
X209289814Y-75979286D01*
X209289814Y-75979286D02*
X209480290Y-75950714D01*
X209480290Y-75950714D02*
X209623147Y-75950714D01*
X209623147Y-75950714D02*
X209813623Y-75979286D01*
X209813623Y-75979286D02*
X209908861Y-76007857D01*
X209908861Y-76007857D02*
X210004100Y-76065000D01*
X210004100Y-76065000D02*
X210051719Y-76150714D01*
X210051719Y-76150714D02*
X210051719Y-76293571D01*
X210051719Y-75379286D02*
X210051719Y-75722143D01*
X210051719Y-75550714D02*
X209051719Y-75550714D01*
X209051719Y-75550714D02*
X209194576Y-75607857D01*
X209194576Y-75607857D02*
X209289814Y-75665000D01*
X209289814Y-75665000D02*
X209337433Y-75722143D01*
X210051719Y-74807857D02*
X210051719Y-75150714D01*
X210051719Y-74979285D02*
X209051719Y-74979285D01*
X209051719Y-74979285D02*
X209194576Y-75036428D01*
X209194576Y-75036428D02*
X209289814Y-75093571D01*
X209289814Y-75093571D02*
X209337433Y-75150714D01*
X207591819Y-93781476D02*
X207115628Y-94114809D01*
X207591819Y-94352904D02*
X206591819Y-94352904D01*
X206591819Y-94352904D02*
X206591819Y-93971952D01*
X206591819Y-93971952D02*
X206639438Y-93876714D01*
X206639438Y-93876714D02*
X206687057Y-93829095D01*
X206687057Y-93829095D02*
X206782295Y-93781476D01*
X206782295Y-93781476D02*
X206925152Y-93781476D01*
X206925152Y-93781476D02*
X207020390Y-93829095D01*
X207020390Y-93829095D02*
X207068009Y-93876714D01*
X207068009Y-93876714D02*
X207115628Y-93971952D01*
X207115628Y-93971952D02*
X207115628Y-94352904D01*
X207591819Y-93352904D02*
X206591819Y-93352904D01*
X206591819Y-93352904D02*
X207591819Y-92781476D01*
X207591819Y-92781476D02*
X206591819Y-92781476D01*
X207591819Y-91781476D02*
X207591819Y-92352904D01*
X207591819Y-92067190D02*
X206591819Y-92067190D01*
X206591819Y-92067190D02*
X206734676Y-92162428D01*
X206734676Y-92162428D02*
X206829914Y-92257666D01*
X206829914Y-92257666D02*
X206877533Y-92352904D01*
X227657819Y-76007856D02*
X226657819Y-76007856D01*
X226657819Y-76007856D02*
X226657819Y-75864999D01*
X226657819Y-75864999D02*
X226705438Y-75779285D01*
X226705438Y-75779285D02*
X226800676Y-75722142D01*
X226800676Y-75722142D02*
X226895914Y-75693571D01*
X226895914Y-75693571D02*
X227086390Y-75664999D01*
X227086390Y-75664999D02*
X227229247Y-75664999D01*
X227229247Y-75664999D02*
X227419723Y-75693571D01*
X227419723Y-75693571D02*
X227514961Y-75722142D01*
X227514961Y-75722142D02*
X227610200Y-75779285D01*
X227610200Y-75779285D02*
X227657819Y-75864999D01*
X227657819Y-75864999D02*
X227657819Y-76007856D01*
X226753057Y-75436428D02*
X226705438Y-75407856D01*
X226705438Y-75407856D02*
X226657819Y-75350714D01*
X226657819Y-75350714D02*
X226657819Y-75207856D01*
X226657819Y-75207856D02*
X226705438Y-75150714D01*
X226705438Y-75150714D02*
X226753057Y-75122142D01*
X226753057Y-75122142D02*
X226848295Y-75093571D01*
X226848295Y-75093571D02*
X226943533Y-75093571D01*
X226943533Y-75093571D02*
X227086390Y-75122142D01*
X227086390Y-75122142D02*
X227657819Y-75464999D01*
X227657819Y-75464999D02*
X227657819Y-75093571D01*
X217725809Y-87973819D02*
X217916285Y-87973819D01*
X217916285Y-87973819D02*
X218011523Y-88021438D01*
X218011523Y-88021438D02*
X218106761Y-88116676D01*
X218106761Y-88116676D02*
X218154380Y-88307152D01*
X218154380Y-88307152D02*
X218154380Y-88640485D01*
X218154380Y-88640485D02*
X218106761Y-88830961D01*
X218106761Y-88830961D02*
X218011523Y-88926200D01*
X218011523Y-88926200D02*
X217916285Y-88973819D01*
X217916285Y-88973819D02*
X217725809Y-88973819D01*
X217725809Y-88973819D02*
X217630571Y-88926200D01*
X217630571Y-88926200D02*
X217535333Y-88830961D01*
X217535333Y-88830961D02*
X217487714Y-88640485D01*
X217487714Y-88640485D02*
X217487714Y-88307152D01*
X217487714Y-88307152D02*
X217535333Y-88116676D01*
X217535333Y-88116676D02*
X217630571Y-88021438D01*
X217630571Y-88021438D02*
X217725809Y-87973819D01*
X218582952Y-87973819D02*
X218582952Y-88783342D01*
X218582952Y-88783342D02*
X218630571Y-88878580D01*
X218630571Y-88878580D02*
X218678190Y-88926200D01*
X218678190Y-88926200D02*
X218773428Y-88973819D01*
X218773428Y-88973819D02*
X218963904Y-88973819D01*
X218963904Y-88973819D02*
X219059142Y-88926200D01*
X219059142Y-88926200D02*
X219106761Y-88878580D01*
X219106761Y-88878580D02*
X219154380Y-88783342D01*
X219154380Y-88783342D02*
X219154380Y-87973819D01*
X219487714Y-87973819D02*
X220059142Y-87973819D01*
X219773428Y-88973819D02*
X219773428Y-87973819D01*
X220916285Y-88973819D02*
X220344857Y-88973819D01*
X220630571Y-88973819D02*
X220630571Y-87973819D01*
X220630571Y-87973819D02*
X220535333Y-88116676D01*
X220535333Y-88116676D02*
X220440095Y-88211914D01*
X220440095Y-88211914D02*
X220344857Y-88259533D01*
X220591319Y-76007856D02*
X219591319Y-76007856D01*
X219591319Y-76007856D02*
X219591319Y-75864999D01*
X219591319Y-75864999D02*
X219638938Y-75779285D01*
X219638938Y-75779285D02*
X219734176Y-75722142D01*
X219734176Y-75722142D02*
X219829414Y-75693571D01*
X219829414Y-75693571D02*
X220019890Y-75664999D01*
X220019890Y-75664999D02*
X220162747Y-75664999D01*
X220162747Y-75664999D02*
X220353223Y-75693571D01*
X220353223Y-75693571D02*
X220448461Y-75722142D01*
X220448461Y-75722142D02*
X220543700Y-75779285D01*
X220543700Y-75779285D02*
X220591319Y-75864999D01*
X220591319Y-75864999D02*
X220591319Y-76007856D01*
X219591319Y-75150714D02*
X219591319Y-75264999D01*
X219591319Y-75264999D02*
X219638938Y-75322142D01*
X219638938Y-75322142D02*
X219686557Y-75350714D01*
X219686557Y-75350714D02*
X219829414Y-75407856D01*
X219829414Y-75407856D02*
X220019890Y-75436428D01*
X220019890Y-75436428D02*
X220400842Y-75436428D01*
X220400842Y-75436428D02*
X220496080Y-75407856D01*
X220496080Y-75407856D02*
X220543700Y-75379285D01*
X220543700Y-75379285D02*
X220591319Y-75322142D01*
X220591319Y-75322142D02*
X220591319Y-75207856D01*
X220591319Y-75207856D02*
X220543700Y-75150714D01*
X220543700Y-75150714D02*
X220496080Y-75122142D01*
X220496080Y-75122142D02*
X220400842Y-75093571D01*
X220400842Y-75093571D02*
X220162747Y-75093571D01*
X220162747Y-75093571D02*
X220067509Y-75122142D01*
X220067509Y-75122142D02*
X220019890Y-75150714D01*
X220019890Y-75150714D02*
X219972271Y-75207856D01*
X219972271Y-75207856D02*
X219972271Y-75322142D01*
X219972271Y-75322142D02*
X220019890Y-75379285D01*
X220019890Y-75379285D02*
X220067509Y-75407856D01*
X220067509Y-75407856D02*
X220162747Y-75436428D01*
X144472819Y-103216871D02*
X143472819Y-103216871D01*
X143472819Y-103216871D02*
X143472819Y-103074014D01*
X143472819Y-103074014D02*
X143520438Y-102988300D01*
X143520438Y-102988300D02*
X143615676Y-102931157D01*
X143615676Y-102931157D02*
X143710914Y-102902586D01*
X143710914Y-102902586D02*
X143901390Y-102874014D01*
X143901390Y-102874014D02*
X144044247Y-102874014D01*
X144044247Y-102874014D02*
X144234723Y-102902586D01*
X144234723Y-102902586D02*
X144329961Y-102931157D01*
X144329961Y-102931157D02*
X144425200Y-102988300D01*
X144425200Y-102988300D02*
X144472819Y-103074014D01*
X144472819Y-103074014D02*
X144472819Y-103216871D01*
X144472819Y-102302586D02*
X144472819Y-102645443D01*
X144472819Y-102474014D02*
X143472819Y-102474014D01*
X143472819Y-102474014D02*
X143615676Y-102531157D01*
X143615676Y-102531157D02*
X143710914Y-102588300D01*
X143710914Y-102588300D02*
X143758533Y-102645443D01*
X143901390Y-101959728D02*
X143853771Y-102016871D01*
X143853771Y-102016871D02*
X143806152Y-102045442D01*
X143806152Y-102045442D02*
X143710914Y-102074014D01*
X143710914Y-102074014D02*
X143663295Y-102074014D01*
X143663295Y-102074014D02*
X143568057Y-102045442D01*
X143568057Y-102045442D02*
X143520438Y-102016871D01*
X143520438Y-102016871D02*
X143472819Y-101959728D01*
X143472819Y-101959728D02*
X143472819Y-101845442D01*
X143472819Y-101845442D02*
X143520438Y-101788300D01*
X143520438Y-101788300D02*
X143568057Y-101759728D01*
X143568057Y-101759728D02*
X143663295Y-101731157D01*
X143663295Y-101731157D02*
X143710914Y-101731157D01*
X143710914Y-101731157D02*
X143806152Y-101759728D01*
X143806152Y-101759728D02*
X143853771Y-101788300D01*
X143853771Y-101788300D02*
X143901390Y-101845442D01*
X143901390Y-101845442D02*
X143901390Y-101959728D01*
X143901390Y-101959728D02*
X143949009Y-102016871D01*
X143949009Y-102016871D02*
X143996628Y-102045442D01*
X143996628Y-102045442D02*
X144091866Y-102074014D01*
X144091866Y-102074014D02*
X144282342Y-102074014D01*
X144282342Y-102074014D02*
X144377580Y-102045442D01*
X144377580Y-102045442D02*
X144425200Y-102016871D01*
X144425200Y-102016871D02*
X144472819Y-101959728D01*
X144472819Y-101959728D02*
X144472819Y-101845442D01*
X144472819Y-101845442D02*
X144425200Y-101788300D01*
X144425200Y-101788300D02*
X144377580Y-101759728D01*
X144377580Y-101759728D02*
X144282342Y-101731157D01*
X144282342Y-101731157D02*
X144091866Y-101731157D01*
X144091866Y-101731157D02*
X143996628Y-101759728D01*
X143996628Y-101759728D02*
X143949009Y-101788300D01*
X143949009Y-101788300D02*
X143901390Y-101845442D01*
X190268819Y-114720666D02*
X189792628Y-115053999D01*
X190268819Y-115292094D02*
X189268819Y-115292094D01*
X189268819Y-115292094D02*
X189268819Y-114911142D01*
X189268819Y-114911142D02*
X189316438Y-114815904D01*
X189316438Y-114815904D02*
X189364057Y-114768285D01*
X189364057Y-114768285D02*
X189459295Y-114720666D01*
X189459295Y-114720666D02*
X189602152Y-114720666D01*
X189602152Y-114720666D02*
X189697390Y-114768285D01*
X189697390Y-114768285D02*
X189745009Y-114815904D01*
X189745009Y-114815904D02*
X189792628Y-114911142D01*
X189792628Y-114911142D02*
X189792628Y-115292094D01*
X189268819Y-113863523D02*
X189268819Y-114053999D01*
X189268819Y-114053999D02*
X189316438Y-114149237D01*
X189316438Y-114149237D02*
X189364057Y-114196856D01*
X189364057Y-114196856D02*
X189506914Y-114292094D01*
X189506914Y-114292094D02*
X189697390Y-114339713D01*
X189697390Y-114339713D02*
X190078342Y-114339713D01*
X190078342Y-114339713D02*
X190173580Y-114292094D01*
X190173580Y-114292094D02*
X190221200Y-114244475D01*
X190221200Y-114244475D02*
X190268819Y-114149237D01*
X190268819Y-114149237D02*
X190268819Y-113958761D01*
X190268819Y-113958761D02*
X190221200Y-113863523D01*
X190221200Y-113863523D02*
X190173580Y-113815904D01*
X190173580Y-113815904D02*
X190078342Y-113768285D01*
X190078342Y-113768285D02*
X189840247Y-113768285D01*
X189840247Y-113768285D02*
X189745009Y-113815904D01*
X189745009Y-113815904D02*
X189697390Y-113863523D01*
X189697390Y-113863523D02*
X189649771Y-113958761D01*
X189649771Y-113958761D02*
X189649771Y-114149237D01*
X189649771Y-114149237D02*
X189697390Y-114244475D01*
X189697390Y-114244475D02*
X189745009Y-114292094D01*
X189745009Y-114292094D02*
X189840247Y-114339713D01*
X212083719Y-76293571D02*
X211083719Y-76293571D01*
X211083719Y-76293571D02*
X211083719Y-76150714D01*
X211083719Y-76150714D02*
X211131338Y-76065000D01*
X211131338Y-76065000D02*
X211226576Y-76007857D01*
X211226576Y-76007857D02*
X211321814Y-75979286D01*
X211321814Y-75979286D02*
X211512290Y-75950714D01*
X211512290Y-75950714D02*
X211655147Y-75950714D01*
X211655147Y-75950714D02*
X211845623Y-75979286D01*
X211845623Y-75979286D02*
X211940861Y-76007857D01*
X211940861Y-76007857D02*
X212036100Y-76065000D01*
X212036100Y-76065000D02*
X212083719Y-76150714D01*
X212083719Y-76150714D02*
X212083719Y-76293571D01*
X212083719Y-75379286D02*
X212083719Y-75722143D01*
X212083719Y-75550714D02*
X211083719Y-75550714D01*
X211083719Y-75550714D02*
X211226576Y-75607857D01*
X211226576Y-75607857D02*
X211321814Y-75665000D01*
X211321814Y-75665000D02*
X211369433Y-75722143D01*
X211083719Y-75007857D02*
X211083719Y-74950714D01*
X211083719Y-74950714D02*
X211131338Y-74893571D01*
X211131338Y-74893571D02*
X211178957Y-74865000D01*
X211178957Y-74865000D02*
X211274195Y-74836428D01*
X211274195Y-74836428D02*
X211464671Y-74807857D01*
X211464671Y-74807857D02*
X211702766Y-74807857D01*
X211702766Y-74807857D02*
X211893242Y-74836428D01*
X211893242Y-74836428D02*
X211988480Y-74865000D01*
X211988480Y-74865000D02*
X212036100Y-74893571D01*
X212036100Y-74893571D02*
X212083719Y-74950714D01*
X212083719Y-74950714D02*
X212083719Y-75007857D01*
X212083719Y-75007857D02*
X212036100Y-75065000D01*
X212036100Y-75065000D02*
X211988480Y-75093571D01*
X211988480Y-75093571D02*
X211893242Y-75122142D01*
X211893242Y-75122142D02*
X211702766Y-75150714D01*
X211702766Y-75150714D02*
X211464671Y-75150714D01*
X211464671Y-75150714D02*
X211274195Y-75122142D01*
X211274195Y-75122142D02*
X211178957Y-75093571D01*
X211178957Y-75093571D02*
X211131338Y-75065000D01*
X211131338Y-75065000D02*
X211083719Y-75007857D01*
X207706580Y-109375666D02*
X207754200Y-109423285D01*
X207754200Y-109423285D02*
X207801819Y-109566142D01*
X207801819Y-109566142D02*
X207801819Y-109661380D01*
X207801819Y-109661380D02*
X207754200Y-109804237D01*
X207754200Y-109804237D02*
X207658961Y-109899475D01*
X207658961Y-109899475D02*
X207563723Y-109947094D01*
X207563723Y-109947094D02*
X207373247Y-109994713D01*
X207373247Y-109994713D02*
X207230390Y-109994713D01*
X207230390Y-109994713D02*
X207039914Y-109947094D01*
X207039914Y-109947094D02*
X206944676Y-109899475D01*
X206944676Y-109899475D02*
X206849438Y-109804237D01*
X206849438Y-109804237D02*
X206801819Y-109661380D01*
X206801819Y-109661380D02*
X206801819Y-109566142D01*
X206801819Y-109566142D02*
X206849438Y-109423285D01*
X206849438Y-109423285D02*
X206897057Y-109375666D01*
X206897057Y-108994713D02*
X206849438Y-108947094D01*
X206849438Y-108947094D02*
X206801819Y-108851856D01*
X206801819Y-108851856D02*
X206801819Y-108613761D01*
X206801819Y-108613761D02*
X206849438Y-108518523D01*
X206849438Y-108518523D02*
X206897057Y-108470904D01*
X206897057Y-108470904D02*
X206992295Y-108423285D01*
X206992295Y-108423285D02*
X207087533Y-108423285D01*
X207087533Y-108423285D02*
X207230390Y-108470904D01*
X207230390Y-108470904D02*
X207801819Y-109042332D01*
X207801819Y-109042332D02*
X207801819Y-108423285D01*
X165427819Y-103390666D02*
X164951628Y-103723999D01*
X165427819Y-103962094D02*
X164427819Y-103962094D01*
X164427819Y-103962094D02*
X164427819Y-103581142D01*
X164427819Y-103581142D02*
X164475438Y-103485904D01*
X164475438Y-103485904D02*
X164523057Y-103438285D01*
X164523057Y-103438285D02*
X164618295Y-103390666D01*
X164618295Y-103390666D02*
X164761152Y-103390666D01*
X164761152Y-103390666D02*
X164856390Y-103438285D01*
X164856390Y-103438285D02*
X164904009Y-103485904D01*
X164904009Y-103485904D02*
X164951628Y-103581142D01*
X164951628Y-103581142D02*
X164951628Y-103962094D01*
X165427819Y-102962094D02*
X164427819Y-102962094D01*
X164427819Y-102962094D02*
X165427819Y-102390666D01*
X165427819Y-102390666D02*
X164427819Y-102390666D01*
X165427819Y-101390666D02*
X165427819Y-101962094D01*
X165427819Y-101676380D02*
X164427819Y-101676380D01*
X164427819Y-101676380D02*
X164570676Y-101771618D01*
X164570676Y-101771618D02*
X164665914Y-101866856D01*
X164665914Y-101866856D02*
X164713533Y-101962094D01*
X164427819Y-100771618D02*
X164427819Y-100676380D01*
X164427819Y-100676380D02*
X164475438Y-100581142D01*
X164475438Y-100581142D02*
X164523057Y-100533523D01*
X164523057Y-100533523D02*
X164618295Y-100485904D01*
X164618295Y-100485904D02*
X164808771Y-100438285D01*
X164808771Y-100438285D02*
X165046866Y-100438285D01*
X165046866Y-100438285D02*
X165237342Y-100485904D01*
X165237342Y-100485904D02*
X165332580Y-100533523D01*
X165332580Y-100533523D02*
X165380200Y-100581142D01*
X165380200Y-100581142D02*
X165427819Y-100676380D01*
X165427819Y-100676380D02*
X165427819Y-100771618D01*
X165427819Y-100771618D02*
X165380200Y-100866856D01*
X165380200Y-100866856D02*
X165332580Y-100914475D01*
X165332580Y-100914475D02*
X165237342Y-100962094D01*
X165237342Y-100962094D02*
X165046866Y-101009713D01*
X165046866Y-101009713D02*
X164808771Y-101009713D01*
X164808771Y-101009713D02*
X164618295Y-100962094D01*
X164618295Y-100962094D02*
X164523057Y-100914475D01*
X164523057Y-100914475D02*
X164475438Y-100866856D01*
X164475438Y-100866856D02*
X164427819Y-100771618D01*
X200591009Y-111656761D02*
X200638628Y-111513904D01*
X200638628Y-111513904D02*
X200686247Y-111466285D01*
X200686247Y-111466285D02*
X200781485Y-111418666D01*
X200781485Y-111418666D02*
X200924342Y-111418666D01*
X200924342Y-111418666D02*
X201019580Y-111466285D01*
X201019580Y-111466285D02*
X201067200Y-111513904D01*
X201067200Y-111513904D02*
X201114819Y-111609142D01*
X201114819Y-111609142D02*
X201114819Y-111990094D01*
X201114819Y-111990094D02*
X200114819Y-111990094D01*
X200114819Y-111990094D02*
X200114819Y-111656761D01*
X200114819Y-111656761D02*
X200162438Y-111561523D01*
X200162438Y-111561523D02*
X200210057Y-111513904D01*
X200210057Y-111513904D02*
X200305295Y-111466285D01*
X200305295Y-111466285D02*
X200400533Y-111466285D01*
X200400533Y-111466285D02*
X200495771Y-111513904D01*
X200495771Y-111513904D02*
X200543390Y-111561523D01*
X200543390Y-111561523D02*
X200591009Y-111656761D01*
X200591009Y-111656761D02*
X200591009Y-111990094D01*
X200448152Y-110561523D02*
X201114819Y-110561523D01*
X200067200Y-110799618D02*
X200781485Y-111037713D01*
X200781485Y-111037713D02*
X200781485Y-110418666D01*
X206450219Y-76293571D02*
X205450219Y-76293571D01*
X205450219Y-76293571D02*
X205450219Y-76150714D01*
X205450219Y-76150714D02*
X205497838Y-76065000D01*
X205497838Y-76065000D02*
X205593076Y-76007857D01*
X205593076Y-76007857D02*
X205688314Y-75979286D01*
X205688314Y-75979286D02*
X205878790Y-75950714D01*
X205878790Y-75950714D02*
X206021647Y-75950714D01*
X206021647Y-75950714D02*
X206212123Y-75979286D01*
X206212123Y-75979286D02*
X206307361Y-76007857D01*
X206307361Y-76007857D02*
X206402600Y-76065000D01*
X206402600Y-76065000D02*
X206450219Y-76150714D01*
X206450219Y-76150714D02*
X206450219Y-76293571D01*
X206450219Y-75379286D02*
X206450219Y-75722143D01*
X206450219Y-75550714D02*
X205450219Y-75550714D01*
X205450219Y-75550714D02*
X205593076Y-75607857D01*
X205593076Y-75607857D02*
X205688314Y-75665000D01*
X205688314Y-75665000D02*
X205735933Y-75722143D01*
X205450219Y-75179285D02*
X205450219Y-74807857D01*
X205450219Y-74807857D02*
X205831171Y-75007857D01*
X205831171Y-75007857D02*
X205831171Y-74922142D01*
X205831171Y-74922142D02*
X205878790Y-74865000D01*
X205878790Y-74865000D02*
X205926409Y-74836428D01*
X205926409Y-74836428D02*
X206021647Y-74807857D01*
X206021647Y-74807857D02*
X206259742Y-74807857D01*
X206259742Y-74807857D02*
X206354980Y-74836428D01*
X206354980Y-74836428D02*
X206402600Y-74865000D01*
X206402600Y-74865000D02*
X206450219Y-74922142D01*
X206450219Y-74922142D02*
X206450219Y-75093571D01*
X206450219Y-75093571D02*
X206402600Y-75150714D01*
X206402600Y-75150714D02*
X206354980Y-75179285D01*
X172629333Y-93418819D02*
X172296000Y-92942628D01*
X172057905Y-93418819D02*
X172057905Y-92418819D01*
X172057905Y-92418819D02*
X172438857Y-92418819D01*
X172438857Y-92418819D02*
X172534095Y-92466438D01*
X172534095Y-92466438D02*
X172581714Y-92514057D01*
X172581714Y-92514057D02*
X172629333Y-92609295D01*
X172629333Y-92609295D02*
X172629333Y-92752152D01*
X172629333Y-92752152D02*
X172581714Y-92847390D01*
X172581714Y-92847390D02*
X172534095Y-92895009D01*
X172534095Y-92895009D02*
X172438857Y-92942628D01*
X172438857Y-92942628D02*
X172057905Y-92942628D01*
X173486476Y-92752152D02*
X173486476Y-93418819D01*
X173248381Y-92371200D02*
X173010286Y-93085485D01*
X173010286Y-93085485D02*
X173629333Y-93085485D01*
X219402819Y-78287476D02*
X218926628Y-78620809D01*
X219402819Y-78858904D02*
X218402819Y-78858904D01*
X218402819Y-78858904D02*
X218402819Y-78477952D01*
X218402819Y-78477952D02*
X218450438Y-78382714D01*
X218450438Y-78382714D02*
X218498057Y-78335095D01*
X218498057Y-78335095D02*
X218593295Y-78287476D01*
X218593295Y-78287476D02*
X218736152Y-78287476D01*
X218736152Y-78287476D02*
X218831390Y-78335095D01*
X218831390Y-78335095D02*
X218879009Y-78382714D01*
X218879009Y-78382714D02*
X218926628Y-78477952D01*
X218926628Y-78477952D02*
X218926628Y-78858904D01*
X219402819Y-77858904D02*
X218402819Y-77858904D01*
X218402819Y-77858904D02*
X219402819Y-77287476D01*
X219402819Y-77287476D02*
X218402819Y-77287476D01*
X218402819Y-76335095D02*
X218402819Y-76811285D01*
X218402819Y-76811285D02*
X218879009Y-76858904D01*
X218879009Y-76858904D02*
X218831390Y-76811285D01*
X218831390Y-76811285D02*
X218783771Y-76716047D01*
X218783771Y-76716047D02*
X218783771Y-76477952D01*
X218783771Y-76477952D02*
X218831390Y-76382714D01*
X218831390Y-76382714D02*
X218879009Y-76335095D01*
X218879009Y-76335095D02*
X218974247Y-76287476D01*
X218974247Y-76287476D02*
X219212342Y-76287476D01*
X219212342Y-76287476D02*
X219307580Y-76335095D01*
X219307580Y-76335095D02*
X219355200Y-76382714D01*
X219355200Y-76382714D02*
X219402819Y-76477952D01*
X219402819Y-76477952D02*
X219402819Y-76716047D01*
X219402819Y-76716047D02*
X219355200Y-76811285D01*
X219355200Y-76811285D02*
X219307580Y-76858904D01*
X159377142Y-117961580D02*
X159329523Y-118009200D01*
X159329523Y-118009200D02*
X159186666Y-118056819D01*
X159186666Y-118056819D02*
X159091428Y-118056819D01*
X159091428Y-118056819D02*
X158948571Y-118009200D01*
X158948571Y-118009200D02*
X158853333Y-117913961D01*
X158853333Y-117913961D02*
X158805714Y-117818723D01*
X158805714Y-117818723D02*
X158758095Y-117628247D01*
X158758095Y-117628247D02*
X158758095Y-117485390D01*
X158758095Y-117485390D02*
X158805714Y-117294914D01*
X158805714Y-117294914D02*
X158853333Y-117199676D01*
X158853333Y-117199676D02*
X158948571Y-117104438D01*
X158948571Y-117104438D02*
X159091428Y-117056819D01*
X159091428Y-117056819D02*
X159186666Y-117056819D01*
X159186666Y-117056819D02*
X159329523Y-117104438D01*
X159329523Y-117104438D02*
X159377142Y-117152057D01*
X160329523Y-118056819D02*
X159758095Y-118056819D01*
X160043809Y-118056819D02*
X160043809Y-117056819D01*
X160043809Y-117056819D02*
X159948571Y-117199676D01*
X159948571Y-117199676D02*
X159853333Y-117294914D01*
X159853333Y-117294914D02*
X159758095Y-117342533D01*
X160662857Y-117056819D02*
X161329523Y-117056819D01*
X161329523Y-117056819D02*
X160900952Y-118056819D01*
X225671319Y-76007856D02*
X224671319Y-76007856D01*
X224671319Y-76007856D02*
X224671319Y-75864999D01*
X224671319Y-75864999D02*
X224718938Y-75779285D01*
X224718938Y-75779285D02*
X224814176Y-75722142D01*
X224814176Y-75722142D02*
X224909414Y-75693571D01*
X224909414Y-75693571D02*
X225099890Y-75664999D01*
X225099890Y-75664999D02*
X225242747Y-75664999D01*
X225242747Y-75664999D02*
X225433223Y-75693571D01*
X225433223Y-75693571D02*
X225528461Y-75722142D01*
X225528461Y-75722142D02*
X225623700Y-75779285D01*
X225623700Y-75779285D02*
X225671319Y-75864999D01*
X225671319Y-75864999D02*
X225671319Y-76007856D01*
X224671319Y-75464999D02*
X224671319Y-75093571D01*
X224671319Y-75093571D02*
X225052271Y-75293571D01*
X225052271Y-75293571D02*
X225052271Y-75207856D01*
X225052271Y-75207856D02*
X225099890Y-75150714D01*
X225099890Y-75150714D02*
X225147509Y-75122142D01*
X225147509Y-75122142D02*
X225242747Y-75093571D01*
X225242747Y-75093571D02*
X225480842Y-75093571D01*
X225480842Y-75093571D02*
X225576080Y-75122142D01*
X225576080Y-75122142D02*
X225623700Y-75150714D01*
X225623700Y-75150714D02*
X225671319Y-75207856D01*
X225671319Y-75207856D02*
X225671319Y-75379285D01*
X225671319Y-75379285D02*
X225623700Y-75436428D01*
X225623700Y-75436428D02*
X225576080Y-75464999D01*
X172553333Y-107801580D02*
X172505714Y-107849200D01*
X172505714Y-107849200D02*
X172362857Y-107896819D01*
X172362857Y-107896819D02*
X172267619Y-107896819D01*
X172267619Y-107896819D02*
X172124762Y-107849200D01*
X172124762Y-107849200D02*
X172029524Y-107753961D01*
X172029524Y-107753961D02*
X171981905Y-107658723D01*
X171981905Y-107658723D02*
X171934286Y-107468247D01*
X171934286Y-107468247D02*
X171934286Y-107325390D01*
X171934286Y-107325390D02*
X171981905Y-107134914D01*
X171981905Y-107134914D02*
X172029524Y-107039676D01*
X172029524Y-107039676D02*
X172124762Y-106944438D01*
X172124762Y-106944438D02*
X172267619Y-106896819D01*
X172267619Y-106896819D02*
X172362857Y-106896819D01*
X172362857Y-106896819D02*
X172505714Y-106944438D01*
X172505714Y-106944438D02*
X172553333Y-106992057D01*
X173124762Y-107325390D02*
X173029524Y-107277771D01*
X173029524Y-107277771D02*
X172981905Y-107230152D01*
X172981905Y-107230152D02*
X172934286Y-107134914D01*
X172934286Y-107134914D02*
X172934286Y-107087295D01*
X172934286Y-107087295D02*
X172981905Y-106992057D01*
X172981905Y-106992057D02*
X173029524Y-106944438D01*
X173029524Y-106944438D02*
X173124762Y-106896819D01*
X173124762Y-106896819D02*
X173315238Y-106896819D01*
X173315238Y-106896819D02*
X173410476Y-106944438D01*
X173410476Y-106944438D02*
X173458095Y-106992057D01*
X173458095Y-106992057D02*
X173505714Y-107087295D01*
X173505714Y-107087295D02*
X173505714Y-107134914D01*
X173505714Y-107134914D02*
X173458095Y-107230152D01*
X173458095Y-107230152D02*
X173410476Y-107277771D01*
X173410476Y-107277771D02*
X173315238Y-107325390D01*
X173315238Y-107325390D02*
X173124762Y-107325390D01*
X173124762Y-107325390D02*
X173029524Y-107373009D01*
X173029524Y-107373009D02*
X172981905Y-107420628D01*
X172981905Y-107420628D02*
X172934286Y-107515866D01*
X172934286Y-107515866D02*
X172934286Y-107706342D01*
X172934286Y-107706342D02*
X172981905Y-107801580D01*
X172981905Y-107801580D02*
X173029524Y-107849200D01*
X173029524Y-107849200D02*
X173124762Y-107896819D01*
X173124762Y-107896819D02*
X173315238Y-107896819D01*
X173315238Y-107896819D02*
X173410476Y-107849200D01*
X173410476Y-107849200D02*
X173458095Y-107801580D01*
X173458095Y-107801580D02*
X173505714Y-107706342D01*
X173505714Y-107706342D02*
X173505714Y-107515866D01*
X173505714Y-107515866D02*
X173458095Y-107420628D01*
X173458095Y-107420628D02*
X173410476Y-107373009D01*
X173410476Y-107373009D02*
X173315238Y-107325390D01*
X191970819Y-89590476D02*
X191494628Y-89923809D01*
X191970819Y-90161904D02*
X190970819Y-90161904D01*
X190970819Y-90161904D02*
X190970819Y-89780952D01*
X190970819Y-89780952D02*
X191018438Y-89685714D01*
X191018438Y-89685714D02*
X191066057Y-89638095D01*
X191066057Y-89638095D02*
X191161295Y-89590476D01*
X191161295Y-89590476D02*
X191304152Y-89590476D01*
X191304152Y-89590476D02*
X191399390Y-89638095D01*
X191399390Y-89638095D02*
X191447009Y-89685714D01*
X191447009Y-89685714D02*
X191494628Y-89780952D01*
X191494628Y-89780952D02*
X191494628Y-90161904D01*
X191970819Y-89161904D02*
X190970819Y-89161904D01*
X190970819Y-89161904D02*
X191970819Y-88590476D01*
X191970819Y-88590476D02*
X190970819Y-88590476D01*
X190970819Y-87685714D02*
X190970819Y-87876190D01*
X190970819Y-87876190D02*
X191018438Y-87971428D01*
X191018438Y-87971428D02*
X191066057Y-88019047D01*
X191066057Y-88019047D02*
X191208914Y-88114285D01*
X191208914Y-88114285D02*
X191399390Y-88161904D01*
X191399390Y-88161904D02*
X191780342Y-88161904D01*
X191780342Y-88161904D02*
X191875580Y-88114285D01*
X191875580Y-88114285D02*
X191923200Y-88066666D01*
X191923200Y-88066666D02*
X191970819Y-87971428D01*
X191970819Y-87971428D02*
X191970819Y-87780952D01*
X191970819Y-87780952D02*
X191923200Y-87685714D01*
X191923200Y-87685714D02*
X191875580Y-87638095D01*
X191875580Y-87638095D02*
X191780342Y-87590476D01*
X191780342Y-87590476D02*
X191542247Y-87590476D01*
X191542247Y-87590476D02*
X191447009Y-87638095D01*
X191447009Y-87638095D02*
X191399390Y-87685714D01*
X191399390Y-87685714D02*
X191351771Y-87780952D01*
X191351771Y-87780952D02*
X191351771Y-87971428D01*
X191351771Y-87971428D02*
X191399390Y-88066666D01*
X191399390Y-88066666D02*
X191447009Y-88114285D01*
X191447009Y-88114285D02*
X191542247Y-88161904D01*
D11*
X153268880Y-102874014D02*
X153316500Y-102902586D01*
X153316500Y-102902586D02*
X153364119Y-102988300D01*
X153364119Y-102988300D02*
X153364119Y-103045443D01*
X153364119Y-103045443D02*
X153316500Y-103131157D01*
X153316500Y-103131157D02*
X153221261Y-103188300D01*
X153221261Y-103188300D02*
X153126023Y-103216871D01*
X153126023Y-103216871D02*
X152935547Y-103245443D01*
X152935547Y-103245443D02*
X152792690Y-103245443D01*
X152792690Y-103245443D02*
X152602214Y-103216871D01*
X152602214Y-103216871D02*
X152506976Y-103188300D01*
X152506976Y-103188300D02*
X152411738Y-103131157D01*
X152411738Y-103131157D02*
X152364119Y-103045443D01*
X152364119Y-103045443D02*
X152364119Y-102988300D01*
X152364119Y-102988300D02*
X152411738Y-102902586D01*
X152411738Y-102902586D02*
X152459357Y-102874014D01*
X152459357Y-102645443D02*
X152411738Y-102616871D01*
X152411738Y-102616871D02*
X152364119Y-102559729D01*
X152364119Y-102559729D02*
X152364119Y-102416871D01*
X152364119Y-102416871D02*
X152411738Y-102359729D01*
X152411738Y-102359729D02*
X152459357Y-102331157D01*
X152459357Y-102331157D02*
X152554595Y-102302586D01*
X152554595Y-102302586D02*
X152649833Y-102302586D01*
X152649833Y-102302586D02*
X152792690Y-102331157D01*
X152792690Y-102331157D02*
X153364119Y-102674014D01*
X153364119Y-102674014D02*
X153364119Y-102302586D01*
X152364119Y-101931157D02*
X152364119Y-101874014D01*
X152364119Y-101874014D02*
X152411738Y-101816871D01*
X152411738Y-101816871D02*
X152459357Y-101788300D01*
X152459357Y-101788300D02*
X152554595Y-101759728D01*
X152554595Y-101759728D02*
X152745071Y-101731157D01*
X152745071Y-101731157D02*
X152983166Y-101731157D01*
X152983166Y-101731157D02*
X153173642Y-101759728D01*
X153173642Y-101759728D02*
X153268880Y-101788300D01*
X153268880Y-101788300D02*
X153316500Y-101816871D01*
X153316500Y-101816871D02*
X153364119Y-101874014D01*
X153364119Y-101874014D02*
X153364119Y-101931157D01*
X153364119Y-101931157D02*
X153316500Y-101988300D01*
X153316500Y-101988300D02*
X153268880Y-102016871D01*
X153268880Y-102016871D02*
X153173642Y-102045442D01*
X153173642Y-102045442D02*
X152983166Y-102074014D01*
X152983166Y-102074014D02*
X152745071Y-102074014D01*
X152745071Y-102074014D02*
X152554595Y-102045442D01*
X152554595Y-102045442D02*
X152459357Y-102016871D01*
X152459357Y-102016871D02*
X152411738Y-101988300D01*
X152411738Y-101988300D02*
X152364119Y-101931157D01*
D10*
X173045523Y-74622819D02*
X172712190Y-74146628D01*
X172474095Y-74622819D02*
X172474095Y-73622819D01*
X172474095Y-73622819D02*
X172855047Y-73622819D01*
X172855047Y-73622819D02*
X172950285Y-73670438D01*
X172950285Y-73670438D02*
X172997904Y-73718057D01*
X172997904Y-73718057D02*
X173045523Y-73813295D01*
X173045523Y-73813295D02*
X173045523Y-73956152D01*
X173045523Y-73956152D02*
X172997904Y-74051390D01*
X172997904Y-74051390D02*
X172950285Y-74099009D01*
X172950285Y-74099009D02*
X172855047Y-74146628D01*
X172855047Y-74146628D02*
X172474095Y-74146628D01*
X173474095Y-74622819D02*
X173474095Y-73622819D01*
X173474095Y-73622819D02*
X174045523Y-74622819D01*
X174045523Y-74622819D02*
X174045523Y-73622819D01*
X174569333Y-74622819D02*
X174759809Y-74622819D01*
X174759809Y-74622819D02*
X174855047Y-74575200D01*
X174855047Y-74575200D02*
X174902666Y-74527580D01*
X174902666Y-74527580D02*
X174997904Y-74384723D01*
X174997904Y-74384723D02*
X175045523Y-74194247D01*
X175045523Y-74194247D02*
X175045523Y-73813295D01*
X175045523Y-73813295D02*
X174997904Y-73718057D01*
X174997904Y-73718057D02*
X174950285Y-73670438D01*
X174950285Y-73670438D02*
X174855047Y-73622819D01*
X174855047Y-73622819D02*
X174664571Y-73622819D01*
X174664571Y-73622819D02*
X174569333Y-73670438D01*
X174569333Y-73670438D02*
X174521714Y-73718057D01*
X174521714Y-73718057D02*
X174474095Y-73813295D01*
X174474095Y-73813295D02*
X174474095Y-74051390D01*
X174474095Y-74051390D02*
X174521714Y-74146628D01*
X174521714Y-74146628D02*
X174569333Y-74194247D01*
X174569333Y-74194247D02*
X174664571Y-74241866D01*
X174664571Y-74241866D02*
X174855047Y-74241866D01*
X174855047Y-74241866D02*
X174950285Y-74194247D01*
X174950285Y-74194247D02*
X174997904Y-74146628D01*
X174997904Y-74146628D02*
X175045523Y-74051390D01*
X214630095Y-79194819D02*
X214630095Y-78194819D01*
X214630095Y-78671009D02*
X215201523Y-78671009D01*
X215201523Y-79194819D02*
X215201523Y-78194819D01*
X216201523Y-79194819D02*
X215630095Y-79194819D01*
X215915809Y-79194819D02*
X215915809Y-78194819D01*
X215915809Y-78194819D02*
X215820571Y-78337676D01*
X215820571Y-78337676D02*
X215725333Y-78432914D01*
X215725333Y-78432914D02*
X215630095Y-78480533D01*
D12*
%TO.C,U5*%
X159485000Y-97956500D02*
X159155000Y-98196500D01*
X159155000Y-97716500D01*
X159485000Y-97956500D01*
G36*
X159485000Y-97956500D02*
G01*
X159155000Y-98196500D01*
X159155000Y-97716500D01*
X159485000Y-97956500D01*
G37*
X169725000Y-97179000D02*
X169445000Y-97179000D01*
X169725000Y-94794000D02*
X169725000Y-97179000D01*
X169725000Y-94794000D02*
X169725000Y-92409000D01*
X169725000Y-92409000D02*
X169445000Y-92409000D01*
X159205000Y-97179000D02*
X159485000Y-97179000D01*
X159205000Y-94794000D02*
X159205000Y-97179000D01*
X159205000Y-94794000D02*
X159205000Y-92409000D01*
X159205000Y-92409000D02*
X159485000Y-92409000D01*
%TO.C,D15*%
X201704400Y-71794000D02*
X201704400Y-74079000D01*
X203174400Y-71794000D02*
X201704400Y-71794000D01*
X203174400Y-74079000D02*
X203174400Y-71794000D01*
%TO.C,D4*%
X222912000Y-72479000D02*
X222912000Y-74764000D01*
X222912000Y-74764000D02*
X224382000Y-74764000D01*
X224382000Y-74764000D02*
X224382000Y-72479000D01*
%TO.C,U6*%
X165842000Y-110236000D02*
X165842000Y-108286000D01*
X165842000Y-110236000D02*
X165842000Y-112186000D01*
X170962000Y-110236000D02*
X170962000Y-108286000D01*
X170962000Y-110236000D02*
X170962000Y-112186000D01*
X171197000Y-107776000D02*
X170867000Y-107536000D01*
X171197000Y-107296000D01*
X171197000Y-107776000D01*
G36*
X171197000Y-107776000D02*
G01*
X170867000Y-107536000D01*
X171197000Y-107296000D01*
X171197000Y-107776000D01*
G37*
%TO.C,R13*%
X146142936Y-103785300D02*
X146597064Y-103785300D01*
X146142936Y-105255300D02*
X146597064Y-105255300D01*
%TO.C,R11*%
X163094936Y-112803000D02*
X163549064Y-112803000D01*
X163094936Y-114273000D02*
X163549064Y-114273000D01*
%TO.C,U2*%
X189639000Y-76274000D02*
X189639000Y-76554000D01*
X189639000Y-86794000D02*
X189639000Y-86514000D01*
X192024000Y-76274000D02*
X189639000Y-76274000D01*
X192024000Y-76274000D02*
X194409000Y-76274000D01*
X192024000Y-86794000D02*
X189639000Y-86794000D01*
X192024000Y-86794000D02*
X194409000Y-86794000D01*
X194409000Y-76274000D02*
X194409000Y-76554000D01*
X194409000Y-86794000D02*
X194409000Y-86514000D01*
X188861500Y-76554000D02*
X188621500Y-76224000D01*
X189101500Y-76224000D01*
X188861500Y-76554000D01*
G36*
X188861500Y-76554000D02*
G01*
X188621500Y-76224000D01*
X189101500Y-76224000D01*
X188861500Y-76554000D01*
G37*
%TO.C,R7*%
X195353000Y-116866936D02*
X195353000Y-117321064D01*
X196823000Y-116866936D02*
X196823000Y-117321064D01*
%TO.C,C13*%
X198147000Y-93718748D02*
X198147000Y-94241252D01*
X199617000Y-93718748D02*
X199617000Y-94241252D01*
%TO.C,J1*%
X143272500Y-63322000D02*
X145272500Y-63322000D01*
X143272500Y-64572000D02*
X143272500Y-63322000D01*
X143662500Y-63712000D02*
X143662500Y-71182000D01*
X143662500Y-71182000D02*
X152282500Y-71182000D01*
X144722500Y-64672000D02*
X147722500Y-64672000D01*
X144722500Y-66022000D02*
X145472500Y-66022000D01*
X144722500Y-70322000D02*
X144722500Y-66022000D01*
X144972500Y-65672000D02*
X144722500Y-64672000D01*
X145472500Y-65672000D02*
X144972500Y-65672000D01*
X145472500Y-66022000D02*
X145472500Y-65672000D01*
X145472500Y-70322000D02*
X144722500Y-70322000D01*
X146972500Y-65672000D02*
X146972500Y-66022000D01*
X146972500Y-66022000D02*
X147722500Y-66022000D01*
X147472500Y-65672000D02*
X146972500Y-65672000D01*
X147722500Y-64672000D02*
X147472500Y-65672000D01*
X147722500Y-66022000D02*
X147722500Y-70322000D01*
X147722500Y-70322000D02*
X146972500Y-70322000D01*
X148222500Y-64672000D02*
X151222500Y-64672000D01*
X148222500Y-66022000D02*
X148972500Y-66022000D01*
X148222500Y-70322000D02*
X148222500Y-66022000D01*
X148472500Y-65672000D02*
X148222500Y-64672000D01*
X148972500Y-65672000D02*
X148472500Y-65672000D01*
X148972500Y-66022000D02*
X148972500Y-65672000D01*
X148972500Y-70322000D02*
X148222500Y-70322000D01*
X150472500Y-65672000D02*
X150472500Y-66022000D01*
X150472500Y-66022000D02*
X151222500Y-66022000D01*
X150972500Y-65672000D02*
X150472500Y-65672000D01*
X151222500Y-64672000D02*
X150972500Y-65672000D01*
X151222500Y-66022000D02*
X151222500Y-70322000D01*
X151222500Y-70322000D02*
X150472500Y-70322000D01*
X152282500Y-63712000D02*
X143662500Y-63712000D01*
X152282500Y-71182000D02*
X152282500Y-63712000D01*
X145472500Y-70322000D02*
G75*
G02*
X146972147Y-70321844I750000J-1700000D01*
G01*
X148972500Y-70322000D02*
G75*
G02*
X150472147Y-70321844I750000J-1700000D01*
G01*
%TO.C,D14*%
X203736400Y-72479000D02*
X203736400Y-74764000D01*
X203736400Y-74764000D02*
X205206400Y-74764000D01*
X205206400Y-74764000D02*
X205206400Y-72479000D01*
%TO.C,D9*%
X212372400Y-71794000D02*
X212372400Y-74079000D01*
X213842400Y-71794000D02*
X212372400Y-71794000D01*
X213842400Y-74079000D02*
X213842400Y-71794000D01*
%TO.C,B3*%
X201195000Y-98117252D02*
X201195000Y-97594748D01*
X202665000Y-98117252D02*
X202665000Y-97594748D01*
%TO.C,U3*%
X193022000Y-100348000D02*
X192552000Y-100008000D01*
X193022000Y-99668000D01*
X193022000Y-100348000D01*
G36*
X193022000Y-100348000D02*
G01*
X192552000Y-100008000D01*
X193022000Y-99668000D01*
X193022000Y-100348000D01*
G37*
X193567000Y-111093000D02*
X193567000Y-110043000D01*
X193567000Y-111093000D02*
X192517000Y-111093000D01*
X193567000Y-100743000D02*
X193567000Y-101793000D01*
X193567000Y-100743000D02*
X192552000Y-100743000D01*
X183217000Y-111093000D02*
X184267000Y-111093000D01*
X183217000Y-111093000D02*
X183217000Y-110043000D01*
X183217000Y-100743000D02*
X184267000Y-100743000D01*
X183217000Y-100743000D02*
X183217000Y-101793000D01*
%TO.C,R9*%
X163094936Y-108739000D02*
X163549064Y-108739000D01*
X163094936Y-110209000D02*
X163549064Y-110209000D01*
%TO.C,D16*%
X191064000Y-115409000D02*
X191064000Y-118094000D01*
X192984000Y-115409000D02*
X191064000Y-115409000D01*
X192984000Y-118094000D02*
X192984000Y-115409000D01*
%TO.C,C6*%
X175521252Y-110771000D02*
X174998748Y-110771000D01*
X175521252Y-112241000D02*
X174998748Y-112241000D01*
%TO.C,R1*%
X175032936Y-98325000D02*
X175487064Y-98325000D01*
X175032936Y-99795000D02*
X175487064Y-99795000D01*
%TO.C,C3*%
X175521252Y-116867000D02*
X174998748Y-116867000D01*
X175521252Y-118337000D02*
X174998748Y-118337000D01*
%TO.C,C15*%
X197385000Y-116832748D02*
X197385000Y-117355252D01*
X198855000Y-116832748D02*
X198855000Y-117355252D01*
%TO.C,CN4*%
X201196000Y-102608000D02*
X201196000Y-101608000D01*
X204556000Y-102608000D02*
X204556000Y-101608000D01*
%TO.C,R5*%
X185447000Y-116866936D02*
X185447000Y-117321064D01*
X186917000Y-116866936D02*
X186917000Y-117321064D01*
%TO.C,D1*%
X227992000Y-71794000D02*
X227992000Y-74079000D01*
X229462000Y-71794000D02*
X227992000Y-71794000D01*
X229462000Y-74079000D02*
X229462000Y-71794000D01*
%TO.C,J5*%
X170024000Y-81610000D02*
X172024000Y-81610000D01*
X170024000Y-82860000D02*
X170024000Y-81610000D01*
X170414000Y-82000000D02*
X170414000Y-89470000D01*
X170414000Y-89470000D02*
X186034000Y-89470000D01*
X171474000Y-82960000D02*
X174474000Y-82960000D01*
X171474000Y-84310000D02*
X172224000Y-84310000D01*
X171474000Y-88610000D02*
X171474000Y-84310000D01*
X171724000Y-83960000D02*
X171474000Y-82960000D01*
X172224000Y-83960000D02*
X171724000Y-83960000D01*
X172224000Y-84310000D02*
X172224000Y-83960000D01*
X172224000Y-88610000D02*
X171474000Y-88610000D01*
X173724000Y-83960000D02*
X173724000Y-84310000D01*
X173724000Y-84310000D02*
X174474000Y-84310000D01*
X174224000Y-83960000D02*
X173724000Y-83960000D01*
X174474000Y-82960000D02*
X174224000Y-83960000D01*
X174474000Y-84310000D02*
X174474000Y-88610000D01*
X174474000Y-88610000D02*
X173724000Y-88610000D01*
X174974000Y-82960000D02*
X177974000Y-82960000D01*
X174974000Y-84310000D02*
X175724000Y-84310000D01*
X174974000Y-88610000D02*
X174974000Y-84310000D01*
X175224000Y-83960000D02*
X174974000Y-82960000D01*
X175724000Y-83960000D02*
X175224000Y-83960000D01*
X175724000Y-84310000D02*
X175724000Y-83960000D01*
X175724000Y-88610000D02*
X174974000Y-88610000D01*
X177224000Y-83960000D02*
X177224000Y-84310000D01*
X177224000Y-84310000D02*
X177974000Y-84310000D01*
X177724000Y-83960000D02*
X177224000Y-83960000D01*
X177974000Y-82960000D02*
X177724000Y-83960000D01*
X177974000Y-84310000D02*
X177974000Y-88610000D01*
X177974000Y-88610000D02*
X177224000Y-88610000D01*
X178474000Y-82960000D02*
X181474000Y-82960000D01*
X178474000Y-84310000D02*
X179224000Y-84310000D01*
X178474000Y-88610000D02*
X178474000Y-84310000D01*
X178724000Y-83960000D02*
X178474000Y-82960000D01*
X179224000Y-83960000D02*
X178724000Y-83960000D01*
X179224000Y-84310000D02*
X179224000Y-83960000D01*
X179224000Y-88610000D02*
X178474000Y-88610000D01*
X180724000Y-83960000D02*
X180724000Y-84310000D01*
X180724000Y-84310000D02*
X181474000Y-84310000D01*
X181224000Y-83960000D02*
X180724000Y-83960000D01*
X181474000Y-82960000D02*
X181224000Y-83960000D01*
X181474000Y-84310000D02*
X181474000Y-88610000D01*
X181474000Y-88610000D02*
X180724000Y-88610000D01*
X181974000Y-82960000D02*
X184974000Y-82960000D01*
X181974000Y-84310000D02*
X182724000Y-84310000D01*
X181974000Y-88610000D02*
X181974000Y-84310000D01*
X182224000Y-83960000D02*
X181974000Y-82960000D01*
X182724000Y-83960000D02*
X182224000Y-83960000D01*
X182724000Y-84310000D02*
X182724000Y-83960000D01*
X182724000Y-88610000D02*
X181974000Y-88610000D01*
X184224000Y-83960000D02*
X184224000Y-84310000D01*
X184224000Y-84310000D02*
X184974000Y-84310000D01*
X184724000Y-83960000D02*
X184224000Y-83960000D01*
X184974000Y-82960000D02*
X184724000Y-83960000D01*
X184974000Y-84310000D02*
X184974000Y-88610000D01*
X184974000Y-88610000D02*
X184224000Y-88610000D01*
X186034000Y-82000000D02*
X170414000Y-82000000D01*
X186034000Y-89470000D02*
X186034000Y-82000000D01*
X172224000Y-88610000D02*
G75*
G02*
X173723647Y-88609844I750000J-1700000D01*
G01*
X175724000Y-88610000D02*
G75*
G02*
X177223647Y-88609844I750000J-1700000D01*
G01*
X179224000Y-88610000D02*
G75*
G02*
X180723647Y-88609844I750000J-1700000D01*
G01*
X182724000Y-88610000D02*
G75*
G02*
X184223647Y-88609844I750000J-1700000D01*
G01*
%TO.C,C14*%
X201195000Y-94561252D02*
X201195000Y-94038748D01*
X202665000Y-94561252D02*
X202665000Y-94038748D01*
%TO.C,CN2*%
X207997000Y-101735000D02*
X207997000Y-102735000D01*
X211357000Y-101735000D02*
X211357000Y-102735000D01*
%TO.C,J8*%
X144907000Y-83120300D02*
X144907000Y-89090300D01*
X144907000Y-89090300D02*
X152527000Y-89090300D01*
X144917000Y-86830300D02*
X145667000Y-86830300D01*
X144917000Y-88330300D02*
X144917000Y-89080300D01*
X144917000Y-89080300D02*
X146717000Y-89080300D01*
X145667000Y-83880300D02*
X148717000Y-83880300D01*
X145667000Y-86830300D02*
X145667000Y-83880300D01*
X146717000Y-88330300D02*
X144917000Y-88330300D01*
X146717000Y-89080300D02*
X146717000Y-88330300D01*
X148217000Y-88330300D02*
X148217000Y-89080300D01*
X148217000Y-89080300D02*
X149217000Y-89080300D01*
X149217000Y-88330300D02*
X148217000Y-88330300D01*
X149217000Y-89080300D02*
X149217000Y-88330300D01*
X150717000Y-88330300D02*
X150717000Y-89080300D01*
X150717000Y-89080300D02*
X152517000Y-89080300D01*
X151567000Y-89380300D02*
X152817000Y-89380300D01*
X151767000Y-83880300D02*
X148717000Y-83880300D01*
X151767000Y-86830300D02*
X151767000Y-83880300D01*
X152517000Y-86830300D02*
X151767000Y-86830300D01*
X152517000Y-88330300D02*
X150717000Y-88330300D01*
X152517000Y-89080300D02*
X152517000Y-88330300D01*
X152527000Y-83120300D02*
X144907000Y-83120300D01*
X152527000Y-89090300D02*
X152527000Y-83120300D01*
X152817000Y-89380300D02*
X152817000Y-88130300D01*
%TO.C,RN2*%
X207997000Y-105291000D02*
X207997000Y-106291000D01*
X211357000Y-105291000D02*
X211357000Y-106291000D01*
%TO.C,Y1*%
X188416000Y-92471000D02*
X194816000Y-92471000D01*
X188416000Y-97521000D02*
X194816000Y-97521000D01*
X188416000Y-97521000D02*
G75*
G02*
X188416000Y-92471000I0J2525000D01*
G01*
X194816000Y-92471000D02*
G75*
G02*
X194816000Y-97521000I0J-2525000D01*
G01*
%TO.C,C1*%
X209542748Y-95785000D02*
X210065252Y-95785000D01*
X209542748Y-97255000D02*
X210065252Y-97255000D01*
%TO.C,C7*%
X175521252Y-108739000D02*
X174998748Y-108739000D01*
X175521252Y-110209000D02*
X174998748Y-110209000D01*
%TO.C,C19*%
X146108748Y-105817300D02*
X146631252Y-105817300D01*
X146108748Y-107287300D02*
X146631252Y-107287300D01*
%TO.C,RN8*%
X193043000Y-72037000D02*
X192043000Y-72037000D01*
X193043000Y-75397000D02*
X192043000Y-75397000D01*
%TO.C,C5*%
X175521252Y-112803000D02*
X174998748Y-112803000D01*
X175521252Y-114273000D02*
X174998748Y-114273000D01*
%TO.C,J9*%
X145086000Y-72965000D02*
X145086000Y-75625000D01*
X150226000Y-72965000D02*
X145086000Y-72965000D01*
X150226000Y-72965000D02*
X150226000Y-75625000D01*
X150226000Y-75625000D02*
X145086000Y-75625000D01*
X151496000Y-72965000D02*
X152826000Y-72965000D01*
X152826000Y-72965000D02*
X152826000Y-74295000D01*
%TO.C,J3*%
X198767000Y-63322000D02*
X200767000Y-63322000D01*
X198767000Y-64572000D02*
X198767000Y-63322000D01*
X199157000Y-63712000D02*
X199157000Y-71182000D01*
X199157000Y-71182000D02*
X214777000Y-71182000D01*
X200217000Y-64672000D02*
X203217000Y-64672000D01*
X200217000Y-66022000D02*
X200967000Y-66022000D01*
X200217000Y-70322000D02*
X200217000Y-66022000D01*
X200467000Y-65672000D02*
X200217000Y-64672000D01*
X200967000Y-65672000D02*
X200467000Y-65672000D01*
X200967000Y-66022000D02*
X200967000Y-65672000D01*
X200967000Y-70322000D02*
X200217000Y-70322000D01*
X202467000Y-65672000D02*
X202467000Y-66022000D01*
X202467000Y-66022000D02*
X203217000Y-66022000D01*
X202967000Y-65672000D02*
X202467000Y-65672000D01*
X203217000Y-64672000D02*
X202967000Y-65672000D01*
X203217000Y-66022000D02*
X203217000Y-70322000D01*
X203217000Y-70322000D02*
X202467000Y-70322000D01*
X203717000Y-64672000D02*
X206717000Y-64672000D01*
X203717000Y-66022000D02*
X204467000Y-66022000D01*
X203717000Y-70322000D02*
X203717000Y-66022000D01*
X203967000Y-65672000D02*
X203717000Y-64672000D01*
X204467000Y-65672000D02*
X203967000Y-65672000D01*
X204467000Y-66022000D02*
X204467000Y-65672000D01*
X204467000Y-70322000D02*
X203717000Y-70322000D01*
X205967000Y-65672000D02*
X205967000Y-66022000D01*
X205967000Y-66022000D02*
X206717000Y-66022000D01*
X206467000Y-65672000D02*
X205967000Y-65672000D01*
X206717000Y-64672000D02*
X206467000Y-65672000D01*
X206717000Y-66022000D02*
X206717000Y-70322000D01*
X206717000Y-70322000D02*
X205967000Y-70322000D01*
X207217000Y-64672000D02*
X210217000Y-64672000D01*
X207217000Y-66022000D02*
X207967000Y-66022000D01*
X207217000Y-70322000D02*
X207217000Y-66022000D01*
X207467000Y-65672000D02*
X207217000Y-64672000D01*
X207967000Y-65672000D02*
X207467000Y-65672000D01*
X207967000Y-66022000D02*
X207967000Y-65672000D01*
X207967000Y-70322000D02*
X207217000Y-70322000D01*
X209467000Y-65672000D02*
X209467000Y-66022000D01*
X209467000Y-66022000D02*
X210217000Y-66022000D01*
X209967000Y-65672000D02*
X209467000Y-65672000D01*
X210217000Y-64672000D02*
X209967000Y-65672000D01*
X210217000Y-66022000D02*
X210217000Y-70322000D01*
X210217000Y-70322000D02*
X209467000Y-70322000D01*
X210717000Y-64672000D02*
X213717000Y-64672000D01*
X210717000Y-66022000D02*
X211467000Y-66022000D01*
X210717000Y-70322000D02*
X210717000Y-66022000D01*
X210967000Y-65672000D02*
X210717000Y-64672000D01*
X211467000Y-65672000D02*
X210967000Y-65672000D01*
X211467000Y-66022000D02*
X211467000Y-65672000D01*
X211467000Y-70322000D02*
X210717000Y-70322000D01*
X212967000Y-65672000D02*
X212967000Y-66022000D01*
X212967000Y-66022000D02*
X213717000Y-66022000D01*
X213467000Y-65672000D02*
X212967000Y-65672000D01*
X213717000Y-64672000D02*
X213467000Y-65672000D01*
X213717000Y-66022000D02*
X213717000Y-70322000D01*
X213717000Y-70322000D02*
X212967000Y-70322000D01*
X214777000Y-63712000D02*
X199157000Y-63712000D01*
X214777000Y-71182000D02*
X214777000Y-63712000D01*
X200967000Y-70322000D02*
G75*
G02*
X202466647Y-70321844I750000J-1700000D01*
G01*
X204467000Y-70322000D02*
G75*
G02*
X205966647Y-70321844I750000J-1700000D01*
G01*
X207967000Y-70322000D02*
G75*
G02*
X209466647Y-70321844I750000J-1700000D01*
G01*
X211467000Y-70322000D02*
G75*
G02*
X212966647Y-70321844I750000J-1700000D01*
G01*
%TO.C,D8*%
X215800000Y-72479000D02*
X215800000Y-74764000D01*
X215800000Y-74764000D02*
X217270000Y-74764000D01*
X217270000Y-74764000D02*
X217270000Y-72479000D01*
%TO.C,IN1*%
X233915800Y-117296600D02*
X221475800Y-117296600D01*
X233915800Y-101346600D02*
X233915800Y-117296600D01*
X221475800Y-101346600D02*
X233915800Y-101346600D01*
X218275800Y-117296600D02*
X211995800Y-117296600D01*
X215585800Y-117496600D02*
X217585800Y-117496600D01*
X211995800Y-117296600D02*
X211995800Y-101346600D01*
X211995800Y-101346600D02*
X218275800Y-101346600D01*
%TO.C,J2*%
X214388000Y-63322000D02*
X216388000Y-63322000D01*
X214388000Y-64572000D02*
X214388000Y-63322000D01*
X214778000Y-63712000D02*
X214778000Y-71182000D01*
X214778000Y-71182000D02*
X230398000Y-71182000D01*
X215838000Y-64672000D02*
X218838000Y-64672000D01*
X215838000Y-66022000D02*
X216588000Y-66022000D01*
X215838000Y-70322000D02*
X215838000Y-66022000D01*
X216088000Y-65672000D02*
X215838000Y-64672000D01*
X216588000Y-65672000D02*
X216088000Y-65672000D01*
X216588000Y-66022000D02*
X216588000Y-65672000D01*
X216588000Y-70322000D02*
X215838000Y-70322000D01*
X218088000Y-65672000D02*
X218088000Y-66022000D01*
X218088000Y-66022000D02*
X218838000Y-66022000D01*
X218588000Y-65672000D02*
X218088000Y-65672000D01*
X218838000Y-64672000D02*
X218588000Y-65672000D01*
X218838000Y-66022000D02*
X218838000Y-70322000D01*
X218838000Y-70322000D02*
X218088000Y-70322000D01*
X219338000Y-64672000D02*
X222338000Y-64672000D01*
X219338000Y-66022000D02*
X220088000Y-66022000D01*
X219338000Y-70322000D02*
X219338000Y-66022000D01*
X219588000Y-65672000D02*
X219338000Y-64672000D01*
X220088000Y-65672000D02*
X219588000Y-65672000D01*
X220088000Y-66022000D02*
X220088000Y-65672000D01*
X220088000Y-70322000D02*
X219338000Y-70322000D01*
X221588000Y-65672000D02*
X221588000Y-66022000D01*
X221588000Y-66022000D02*
X222338000Y-66022000D01*
X222088000Y-65672000D02*
X221588000Y-65672000D01*
X222338000Y-64672000D02*
X222088000Y-65672000D01*
X222338000Y-66022000D02*
X222338000Y-70322000D01*
X222338000Y-70322000D02*
X221588000Y-70322000D01*
X222838000Y-64672000D02*
X225838000Y-64672000D01*
X222838000Y-66022000D02*
X223588000Y-66022000D01*
X222838000Y-70322000D02*
X222838000Y-66022000D01*
X223088000Y-65672000D02*
X222838000Y-64672000D01*
X223588000Y-65672000D02*
X223088000Y-65672000D01*
X223588000Y-66022000D02*
X223588000Y-65672000D01*
X223588000Y-70322000D02*
X222838000Y-70322000D01*
X225088000Y-65672000D02*
X225088000Y-66022000D01*
X225088000Y-66022000D02*
X225838000Y-66022000D01*
X225588000Y-65672000D02*
X225088000Y-65672000D01*
X225838000Y-64672000D02*
X225588000Y-65672000D01*
X225838000Y-66022000D02*
X225838000Y-70322000D01*
X225838000Y-70322000D02*
X225088000Y-70322000D01*
X226338000Y-64672000D02*
X229338000Y-64672000D01*
X226338000Y-66022000D02*
X227088000Y-66022000D01*
X226338000Y-70322000D02*
X226338000Y-66022000D01*
X226588000Y-65672000D02*
X226338000Y-64672000D01*
X227088000Y-65672000D02*
X226588000Y-65672000D01*
X227088000Y-66022000D02*
X227088000Y-65672000D01*
X227088000Y-70322000D02*
X226338000Y-70322000D01*
X228588000Y-65672000D02*
X228588000Y-66022000D01*
X228588000Y-66022000D02*
X229338000Y-66022000D01*
X229088000Y-65672000D02*
X228588000Y-65672000D01*
X229338000Y-64672000D02*
X229088000Y-65672000D01*
X229338000Y-66022000D02*
X229338000Y-70322000D01*
X229338000Y-70322000D02*
X228588000Y-70322000D01*
X230398000Y-63712000D02*
X214778000Y-63712000D01*
X230398000Y-71182000D02*
X230398000Y-63712000D01*
X216588000Y-70322000D02*
G75*
G02*
X218087647Y-70321844I750000J-1700000D01*
G01*
X220088000Y-70322000D02*
G75*
G02*
X221587647Y-70321844I750000J-1700000D01*
G01*
X223588000Y-70322000D02*
G75*
G02*
X225087647Y-70321844I750000J-1700000D01*
G01*
X227088000Y-70322000D02*
G75*
G02*
X228587647Y-70321844I750000J-1700000D01*
G01*
%TO.C,C10*%
X183669000Y-93718748D02*
X183669000Y-94241252D01*
X185139000Y-93718748D02*
X185139000Y-94241252D01*
%TO.C,D7*%
X217324000Y-71794000D02*
X217324000Y-74079000D01*
X218794000Y-71794000D02*
X217324000Y-71794000D01*
X218794000Y-74079000D02*
X218794000Y-71794000D01*
%TO.C,R2*%
X175487064Y-94261000D02*
X175032936Y-94261000D01*
X175487064Y-95731000D02*
X175032936Y-95731000D01*
%TO.C,B5*%
X203207252Y-108485000D02*
X202684748Y-108485000D01*
X203207252Y-109955000D02*
X202684748Y-109955000D01*
%TO.C,R12*%
X163094936Y-114835000D02*
X163549064Y-114835000D01*
X163094936Y-116305000D02*
X163549064Y-116305000D01*
%TO.C,C9*%
X174998748Y-100357000D02*
X175521252Y-100357000D01*
X174998748Y-101827000D02*
X175521252Y-101827000D01*
%TO.C,B6*%
X203207252Y-106453000D02*
X202684748Y-106453000D01*
X203207252Y-107923000D02*
X202684748Y-107923000D01*
%TO.C,CN3*%
X181232000Y-115236000D02*
X180232000Y-115236000D01*
X181232000Y-118596000D02*
X180232000Y-118596000D01*
%TO.C,C4*%
X175521252Y-114835000D02*
X174998748Y-114835000D01*
X175521252Y-116305000D02*
X174998748Y-116305000D01*
%TO.C,D17*%
X200180400Y-72479000D02*
X200180400Y-74764000D01*
X200180400Y-74764000D02*
X201650400Y-74764000D01*
X201650400Y-74764000D02*
X201650400Y-72479000D01*
%TO.C,CN1*%
X207997000Y-89289000D02*
X207997000Y-90289000D01*
X211357000Y-89289000D02*
X211357000Y-90289000D01*
%TO.C,C12*%
X193321000Y-116832748D02*
X193321000Y-117355252D01*
X194791000Y-116832748D02*
X194791000Y-117355252D01*
%TO.C,B1*%
X209542748Y-97817000D02*
X210065252Y-97817000D01*
X209542748Y-99287000D02*
X210065252Y-99287000D01*
%TO.C,R8*%
X203173064Y-112549000D02*
X202718936Y-112549000D01*
X203173064Y-114019000D02*
X202718936Y-114019000D01*
%TO.C,C16*%
X203227000Y-94561252D02*
X203227000Y-94038748D01*
X204697000Y-94561252D02*
X204697000Y-94038748D01*
%TO.C,B7*%
X203227000Y-98117252D02*
X203227000Y-97594748D01*
X204697000Y-98117252D02*
X204697000Y-97594748D01*
%TO.C,RN3*%
X202790000Y-88400000D02*
X202790000Y-89400000D01*
X206150000Y-88400000D02*
X206150000Y-89400000D01*
%TO.C,C18*%
X163583252Y-106707000D02*
X163060748Y-106707000D01*
X163583252Y-108177000D02*
X163060748Y-108177000D01*
%TO.C,RN7*%
X187042000Y-88400000D02*
X187042000Y-89400000D01*
X190402000Y-88400000D02*
X190402000Y-89400000D01*
%TO.C,U1*%
X204117000Y-76274000D02*
X204117000Y-76554000D01*
X204117000Y-86794000D02*
X204117000Y-86514000D01*
X206502000Y-76274000D02*
X204117000Y-76274000D01*
X206502000Y-76274000D02*
X208887000Y-76274000D01*
X206502000Y-86794000D02*
X204117000Y-86794000D01*
X206502000Y-86794000D02*
X208887000Y-86794000D01*
X208887000Y-76274000D02*
X208887000Y-76554000D01*
X208887000Y-86794000D02*
X208887000Y-86514000D01*
X203339500Y-76554000D02*
X203099500Y-76224000D01*
X203579500Y-76224000D01*
X203339500Y-76554000D01*
G36*
X203339500Y-76554000D02*
G01*
X203099500Y-76224000D01*
X203579500Y-76224000D01*
X203339500Y-76554000D01*
G37*
%TO.C,J4*%
X167525000Y-63322000D02*
X169525000Y-63322000D01*
X167525000Y-64572000D02*
X167525000Y-63322000D01*
X167915000Y-63712000D02*
X167915000Y-71182000D01*
X167915000Y-71182000D02*
X183535000Y-71182000D01*
X168975000Y-64672000D02*
X171975000Y-64672000D01*
X168975000Y-66022000D02*
X169725000Y-66022000D01*
X168975000Y-70322000D02*
X168975000Y-66022000D01*
X169225000Y-65672000D02*
X168975000Y-64672000D01*
X169725000Y-65672000D02*
X169225000Y-65672000D01*
X169725000Y-66022000D02*
X169725000Y-65672000D01*
X169725000Y-70322000D02*
X168975000Y-70322000D01*
X171225000Y-65672000D02*
X171225000Y-66022000D01*
X171225000Y-66022000D02*
X171975000Y-66022000D01*
X171725000Y-65672000D02*
X171225000Y-65672000D01*
X171975000Y-64672000D02*
X171725000Y-65672000D01*
X171975000Y-66022000D02*
X171975000Y-70322000D01*
X171975000Y-70322000D02*
X171225000Y-70322000D01*
X172475000Y-64672000D02*
X175475000Y-64672000D01*
X172475000Y-66022000D02*
X173225000Y-66022000D01*
X172475000Y-70322000D02*
X172475000Y-66022000D01*
X172725000Y-65672000D02*
X172475000Y-64672000D01*
X173225000Y-65672000D02*
X172725000Y-65672000D01*
X173225000Y-66022000D02*
X173225000Y-65672000D01*
X173225000Y-70322000D02*
X172475000Y-70322000D01*
X174725000Y-65672000D02*
X174725000Y-66022000D01*
X174725000Y-66022000D02*
X175475000Y-66022000D01*
X175225000Y-65672000D02*
X174725000Y-65672000D01*
X175475000Y-64672000D02*
X175225000Y-65672000D01*
X175475000Y-66022000D02*
X175475000Y-70322000D01*
X175475000Y-70322000D02*
X174725000Y-70322000D01*
X175975000Y-64672000D02*
X178975000Y-64672000D01*
X175975000Y-66022000D02*
X176725000Y-66022000D01*
X175975000Y-70322000D02*
X175975000Y-66022000D01*
X176225000Y-65672000D02*
X175975000Y-64672000D01*
X176725000Y-65672000D02*
X176225000Y-65672000D01*
X176725000Y-66022000D02*
X176725000Y-65672000D01*
X176725000Y-70322000D02*
X175975000Y-70322000D01*
X178225000Y-65672000D02*
X178225000Y-66022000D01*
X178225000Y-66022000D02*
X178975000Y-66022000D01*
X178725000Y-65672000D02*
X178225000Y-65672000D01*
X178975000Y-64672000D02*
X178725000Y-65672000D01*
X178975000Y-66022000D02*
X178975000Y-70322000D01*
X178975000Y-70322000D02*
X178225000Y-70322000D01*
X179475000Y-64672000D02*
X182475000Y-64672000D01*
X179475000Y-66022000D02*
X180225000Y-66022000D01*
X179475000Y-70322000D02*
X179475000Y-66022000D01*
X179725000Y-65672000D02*
X179475000Y-64672000D01*
X180225000Y-65672000D02*
X179725000Y-65672000D01*
X180225000Y-66022000D02*
X180225000Y-65672000D01*
X180225000Y-70322000D02*
X179475000Y-70322000D01*
X181725000Y-65672000D02*
X181725000Y-66022000D01*
X181725000Y-66022000D02*
X182475000Y-66022000D01*
X182225000Y-65672000D02*
X181725000Y-65672000D01*
X182475000Y-64672000D02*
X182225000Y-65672000D01*
X182475000Y-66022000D02*
X182475000Y-70322000D01*
X182475000Y-70322000D02*
X181725000Y-70322000D01*
X183535000Y-63712000D02*
X167915000Y-63712000D01*
X183535000Y-71182000D02*
X183535000Y-63712000D01*
X169725000Y-70322000D02*
G75*
G02*
X171224647Y-70321844I750000J-1700000D01*
G01*
X173225000Y-70322000D02*
G75*
G02*
X174724647Y-70321844I750000J-1700000D01*
G01*
X176725000Y-70322000D02*
G75*
G02*
X178224647Y-70321844I750000J-1700000D01*
G01*
X180225000Y-70322000D02*
G75*
G02*
X181724647Y-70321844I750000J-1700000D01*
G01*
%TO.C,R3*%
X175487064Y-96293000D02*
X175032936Y-96293000D01*
X175487064Y-97763000D02*
X175032936Y-97763000D01*
%TO.C,D5*%
X220880000Y-71794000D02*
X220880000Y-74079000D01*
X222350000Y-71794000D02*
X220880000Y-71794000D01*
X222350000Y-74079000D02*
X222350000Y-71794000D01*
%TO.C,R10*%
X163094936Y-110771000D02*
X163549064Y-110771000D01*
X163094936Y-112241000D02*
X163549064Y-112241000D01*
%TO.C,U7*%
X145434000Y-94796300D02*
X145434000Y-98556300D01*
X145434000Y-98556300D02*
X146694000Y-98556300D01*
X152254000Y-94796300D02*
X152254000Y-98556300D01*
X152254000Y-98556300D02*
X150994000Y-98556300D01*
X152484000Y-93756300D02*
X152154000Y-93516300D01*
X152484000Y-93276300D01*
X152484000Y-93756300D01*
G36*
X152484000Y-93756300D02*
G01*
X152154000Y-93516300D01*
X152484000Y-93276300D01*
X152484000Y-93756300D01*
G37*
%TO.C,C22*%
X150426748Y-105817300D02*
X150949252Y-105817300D01*
X150426748Y-107287300D02*
X150949252Y-107287300D01*
%TO.C,D12*%
X207292400Y-72479000D02*
X207292400Y-74764000D01*
X207292400Y-74764000D02*
X208762400Y-74764000D01*
X208762400Y-74764000D02*
X208762400Y-72479000D01*
%TO.C,B2*%
X209542748Y-110771000D02*
X210065252Y-110771000D01*
X209542748Y-112241000D02*
X210065252Y-112241000D01*
%TO.C,C21*%
X150426748Y-103785300D02*
X150949252Y-103785300D01*
X150426748Y-105255300D02*
X150949252Y-105255300D01*
%TO.C,RN4*%
X197456000Y-89400000D02*
X197456000Y-88400000D01*
X200816000Y-89400000D02*
X200816000Y-88400000D01*
%TO.C,J7*%
X153514000Y-81610000D02*
X155514000Y-81610000D01*
X153514000Y-82860000D02*
X153514000Y-81610000D01*
X153904000Y-82000000D02*
X153904000Y-89470000D01*
X153904000Y-89470000D02*
X169524000Y-89470000D01*
X154964000Y-82960000D02*
X157964000Y-82960000D01*
X154964000Y-84310000D02*
X155714000Y-84310000D01*
X154964000Y-88610000D02*
X154964000Y-84310000D01*
X155214000Y-83960000D02*
X154964000Y-82960000D01*
X155714000Y-83960000D02*
X155214000Y-83960000D01*
X155714000Y-84310000D02*
X155714000Y-83960000D01*
X155714000Y-88610000D02*
X154964000Y-88610000D01*
X157214000Y-83960000D02*
X157214000Y-84310000D01*
X157214000Y-84310000D02*
X157964000Y-84310000D01*
X157714000Y-83960000D02*
X157214000Y-83960000D01*
X157964000Y-82960000D02*
X157714000Y-83960000D01*
X157964000Y-84310000D02*
X157964000Y-88610000D01*
X157964000Y-88610000D02*
X157214000Y-88610000D01*
X158464000Y-82960000D02*
X161464000Y-82960000D01*
X158464000Y-84310000D02*
X159214000Y-84310000D01*
X158464000Y-88610000D02*
X158464000Y-84310000D01*
X158714000Y-83960000D02*
X158464000Y-82960000D01*
X159214000Y-83960000D02*
X158714000Y-83960000D01*
X159214000Y-84310000D02*
X159214000Y-83960000D01*
X159214000Y-88610000D02*
X158464000Y-88610000D01*
X160714000Y-83960000D02*
X160714000Y-84310000D01*
X160714000Y-84310000D02*
X161464000Y-84310000D01*
X161214000Y-83960000D02*
X160714000Y-83960000D01*
X161464000Y-82960000D02*
X161214000Y-83960000D01*
X161464000Y-84310000D02*
X161464000Y-88610000D01*
X161464000Y-88610000D02*
X160714000Y-88610000D01*
X161964000Y-82960000D02*
X164964000Y-82960000D01*
X161964000Y-84310000D02*
X162714000Y-84310000D01*
X161964000Y-88610000D02*
X161964000Y-84310000D01*
X162214000Y-83960000D02*
X161964000Y-82960000D01*
X162714000Y-83960000D02*
X162214000Y-83960000D01*
X162714000Y-84310000D02*
X162714000Y-83960000D01*
X162714000Y-88610000D02*
X161964000Y-88610000D01*
X164214000Y-83960000D02*
X164214000Y-84310000D01*
X164214000Y-84310000D02*
X164964000Y-84310000D01*
X164714000Y-83960000D02*
X164214000Y-83960000D01*
X164964000Y-82960000D02*
X164714000Y-83960000D01*
X164964000Y-84310000D02*
X164964000Y-88610000D01*
X164964000Y-88610000D02*
X164214000Y-88610000D01*
X165464000Y-82960000D02*
X168464000Y-82960000D01*
X165464000Y-84310000D02*
X166214000Y-84310000D01*
X165464000Y-88610000D02*
X165464000Y-84310000D01*
X165714000Y-83960000D02*
X165464000Y-82960000D01*
X166214000Y-83960000D02*
X165714000Y-83960000D01*
X166214000Y-84310000D02*
X166214000Y-83960000D01*
X166214000Y-88610000D02*
X165464000Y-88610000D01*
X167714000Y-83960000D02*
X167714000Y-84310000D01*
X167714000Y-84310000D02*
X168464000Y-84310000D01*
X168214000Y-83960000D02*
X167714000Y-83960000D01*
X168464000Y-82960000D02*
X168214000Y-83960000D01*
X168464000Y-84310000D02*
X168464000Y-88610000D01*
X168464000Y-88610000D02*
X167714000Y-88610000D01*
X169524000Y-82000000D02*
X153904000Y-82000000D01*
X169524000Y-89470000D02*
X169524000Y-82000000D01*
X155714000Y-88610000D02*
G75*
G02*
X157213647Y-88609844I750000J-1700000D01*
G01*
X159214000Y-88610000D02*
G75*
G02*
X160713647Y-88609844I750000J-1700000D01*
G01*
X162714000Y-88610000D02*
G75*
G02*
X164213647Y-88609844I750000J-1700000D01*
G01*
X166214000Y-88610000D02*
G75*
G02*
X167713647Y-88609844I750000J-1700000D01*
G01*
%TO.C,C11*%
X183415000Y-117355252D02*
X183415000Y-116832748D01*
X184885000Y-117355252D02*
X184885000Y-116832748D01*
%TO.C,D11*%
X208816400Y-71794000D02*
X208816400Y-74079000D01*
X210286400Y-71794000D02*
X208816400Y-71794000D01*
X210286400Y-74079000D02*
X210286400Y-71794000D01*
%TO.C,J10*%
X183146000Y-63322000D02*
X185146000Y-63322000D01*
X183146000Y-64572000D02*
X183146000Y-63322000D01*
X183536000Y-63712000D02*
X183536000Y-71182000D01*
X183536000Y-71182000D02*
X199156000Y-71182000D01*
X184596000Y-64672000D02*
X187596000Y-64672000D01*
X184596000Y-66022000D02*
X185346000Y-66022000D01*
X184596000Y-70322000D02*
X184596000Y-66022000D01*
X184846000Y-65672000D02*
X184596000Y-64672000D01*
X185346000Y-65672000D02*
X184846000Y-65672000D01*
X185346000Y-66022000D02*
X185346000Y-65672000D01*
X185346000Y-70322000D02*
X184596000Y-70322000D01*
X186846000Y-65672000D02*
X186846000Y-66022000D01*
X186846000Y-66022000D02*
X187596000Y-66022000D01*
X187346000Y-65672000D02*
X186846000Y-65672000D01*
X187596000Y-64672000D02*
X187346000Y-65672000D01*
X187596000Y-66022000D02*
X187596000Y-70322000D01*
X187596000Y-70322000D02*
X186846000Y-70322000D01*
X188096000Y-64672000D02*
X191096000Y-64672000D01*
X188096000Y-66022000D02*
X188846000Y-66022000D01*
X188096000Y-70322000D02*
X188096000Y-66022000D01*
X188346000Y-65672000D02*
X188096000Y-64672000D01*
X188846000Y-65672000D02*
X188346000Y-65672000D01*
X188846000Y-66022000D02*
X188846000Y-65672000D01*
X188846000Y-70322000D02*
X188096000Y-70322000D01*
X190346000Y-65672000D02*
X190346000Y-66022000D01*
X190346000Y-66022000D02*
X191096000Y-66022000D01*
X190846000Y-65672000D02*
X190346000Y-65672000D01*
X191096000Y-64672000D02*
X190846000Y-65672000D01*
X191096000Y-66022000D02*
X191096000Y-70322000D01*
X191096000Y-70322000D02*
X190346000Y-70322000D01*
X191596000Y-64672000D02*
X194596000Y-64672000D01*
X191596000Y-66022000D02*
X192346000Y-66022000D01*
X191596000Y-70322000D02*
X191596000Y-66022000D01*
X191846000Y-65672000D02*
X191596000Y-64672000D01*
X192346000Y-65672000D02*
X191846000Y-65672000D01*
X192346000Y-66022000D02*
X192346000Y-65672000D01*
X192346000Y-70322000D02*
X191596000Y-70322000D01*
X193846000Y-65672000D02*
X193846000Y-66022000D01*
X193846000Y-66022000D02*
X194596000Y-66022000D01*
X194346000Y-65672000D02*
X193846000Y-65672000D01*
X194596000Y-64672000D02*
X194346000Y-65672000D01*
X194596000Y-66022000D02*
X194596000Y-70322000D01*
X194596000Y-70322000D02*
X193846000Y-70322000D01*
X195096000Y-64672000D02*
X198096000Y-64672000D01*
X195096000Y-66022000D02*
X195846000Y-66022000D01*
X195096000Y-70322000D02*
X195096000Y-66022000D01*
X195346000Y-65672000D02*
X195096000Y-64672000D01*
X195846000Y-65672000D02*
X195346000Y-65672000D01*
X195846000Y-66022000D02*
X195846000Y-65672000D01*
X195846000Y-70322000D02*
X195096000Y-70322000D01*
X197346000Y-65672000D02*
X197346000Y-66022000D01*
X197346000Y-66022000D02*
X198096000Y-66022000D01*
X197846000Y-65672000D02*
X197346000Y-65672000D01*
X198096000Y-64672000D02*
X197846000Y-65672000D01*
X198096000Y-66022000D02*
X198096000Y-70322000D01*
X198096000Y-70322000D02*
X197346000Y-70322000D01*
X199156000Y-63712000D02*
X183536000Y-63712000D01*
X199156000Y-71182000D02*
X199156000Y-63712000D01*
X185346000Y-70322000D02*
G75*
G02*
X186845647Y-70321844I750000J-1700000D01*
G01*
X188846000Y-70322000D02*
G75*
G02*
X190345647Y-70321844I750000J-1700000D01*
G01*
X192346000Y-70322000D02*
G75*
G02*
X193845647Y-70321844I750000J-1700000D01*
G01*
X195846000Y-70322000D02*
G75*
G02*
X197345647Y-70321844I750000J-1700000D01*
G01*
%TO.C,RN1*%
X207997000Y-92591000D02*
X207997000Y-93591000D01*
X211357000Y-92591000D02*
X211357000Y-93591000D01*
%TO.C,D2*%
X226468000Y-72479000D02*
X226468000Y-74764000D01*
X226468000Y-74764000D02*
X227938000Y-74764000D01*
X227938000Y-74764000D02*
X227938000Y-72479000D01*
%TO.C,OUT1*%
X233972000Y-98145000D02*
X221532000Y-98145000D01*
X233972000Y-82195000D02*
X233972000Y-98145000D01*
X221532000Y-82195000D02*
X233972000Y-82195000D01*
X218332000Y-98145000D02*
X212052000Y-98145000D01*
X215642000Y-98345000D02*
X217642000Y-98345000D01*
X212052000Y-98145000D02*
X212052000Y-82195000D01*
X212052000Y-82195000D02*
X218332000Y-82195000D01*
%TO.C,D6*%
X219356000Y-72479000D02*
X219356000Y-74764000D01*
X219356000Y-74764000D02*
X220826000Y-74764000D01*
X220826000Y-74764000D02*
X220826000Y-72479000D01*
%TO.C,D18*%
X144685000Y-101528300D02*
X144685000Y-103448300D01*
X144685000Y-103448300D02*
X147370000Y-103448300D01*
X147370000Y-101528300D02*
X144685000Y-101528300D01*
%TO.C,U4*%
X161136000Y-79870500D02*
X160806000Y-80110500D01*
X160806000Y-79630500D01*
X161136000Y-79870500D01*
G36*
X161136000Y-79870500D02*
G01*
X160806000Y-80110500D01*
X160806000Y-79630500D01*
X161136000Y-79870500D01*
G37*
X171376000Y-79093000D02*
X171096000Y-79093000D01*
X171376000Y-76708000D02*
X171376000Y-79093000D01*
X171376000Y-76708000D02*
X171376000Y-74323000D01*
X171376000Y-74323000D02*
X171096000Y-74323000D01*
X160856000Y-79093000D02*
X161136000Y-79093000D01*
X160856000Y-76708000D02*
X160856000Y-79093000D01*
X160856000Y-76708000D02*
X160856000Y-74323000D01*
X160856000Y-74323000D02*
X161136000Y-74323000D01*
%TO.C,R6*%
X189257000Y-117321064D02*
X189257000Y-116866936D01*
X190727000Y-117321064D02*
X190727000Y-116866936D01*
%TO.C,D10*%
X210848400Y-72479000D02*
X210848400Y-74764000D01*
X210848400Y-74764000D02*
X212318400Y-74764000D01*
X212318400Y-74764000D02*
X212318400Y-72479000D01*
%TO.C,C2*%
X209523748Y-108601000D02*
X210046252Y-108601000D01*
X209523748Y-110071000D02*
X210046252Y-110071000D01*
%TO.C,RN10*%
X165776000Y-102724000D02*
X165776000Y-101724000D01*
X169136000Y-102724000D02*
X169136000Y-101724000D01*
%TO.C,B4*%
X203207252Y-110517000D02*
X202684748Y-110517000D01*
X203207252Y-111987000D02*
X202684748Y-111987000D01*
%TO.C,D13*%
X205260400Y-71794000D02*
X205260400Y-74079000D01*
X206730400Y-71794000D02*
X205260400Y-71794000D01*
X206730400Y-74079000D02*
X206730400Y-71794000D01*
%TO.C,R4*%
X175487064Y-92229000D02*
X175032936Y-92229000D01*
X175487064Y-93699000D02*
X175032936Y-93699000D01*
%TO.C,RN5*%
X219878000Y-76959000D02*
X219878000Y-77959000D01*
X223238000Y-76959000D02*
X223238000Y-77959000D01*
%TO.C,C17*%
X163583252Y-116867000D02*
X163060748Y-116867000D01*
X163583252Y-118337000D02*
X163060748Y-118337000D01*
%TO.C,D3*%
X224436000Y-71794000D02*
X224436000Y-74079000D01*
X225906000Y-71794000D02*
X224436000Y-71794000D01*
X225906000Y-74079000D02*
X225906000Y-71794000D01*
%TO.C,C8*%
X175521252Y-106707000D02*
X174998748Y-106707000D01*
X175521252Y-108177000D02*
X174998748Y-108177000D01*
%TO.C,RN6*%
X192230000Y-89400000D02*
X192230000Y-88400000D01*
X195590000Y-89400000D02*
X195590000Y-88400000D01*
%TO.C,C20*%
X150426748Y-101753300D02*
X150949252Y-101753300D01*
X150426748Y-103223300D02*
X150949252Y-103223300D01*
%TO.C,RN9*%
X173982000Y-75028000D02*
X172982000Y-75028000D01*
X173982000Y-78388000D02*
X172982000Y-78388000D01*
%TO.C,J6*%
X151904000Y-63322000D02*
X153904000Y-63322000D01*
X151904000Y-64572000D02*
X151904000Y-63322000D01*
X152294000Y-63712000D02*
X152294000Y-71182000D01*
X152294000Y-71182000D02*
X167914000Y-71182000D01*
X153354000Y-64672000D02*
X156354000Y-64672000D01*
X153354000Y-66022000D02*
X154104000Y-66022000D01*
X153354000Y-70322000D02*
X153354000Y-66022000D01*
X153604000Y-65672000D02*
X153354000Y-64672000D01*
X154104000Y-65672000D02*
X153604000Y-65672000D01*
X154104000Y-66022000D02*
X154104000Y-65672000D01*
X154104000Y-70322000D02*
X153354000Y-70322000D01*
X155604000Y-65672000D02*
X155604000Y-66022000D01*
X155604000Y-66022000D02*
X156354000Y-66022000D01*
X156104000Y-65672000D02*
X155604000Y-65672000D01*
X156354000Y-64672000D02*
X156104000Y-65672000D01*
X156354000Y-66022000D02*
X156354000Y-70322000D01*
X156354000Y-70322000D02*
X155604000Y-70322000D01*
X156854000Y-64672000D02*
X159854000Y-64672000D01*
X156854000Y-66022000D02*
X157604000Y-66022000D01*
X156854000Y-70322000D02*
X156854000Y-66022000D01*
X157104000Y-65672000D02*
X156854000Y-64672000D01*
X157604000Y-65672000D02*
X157104000Y-65672000D01*
X157604000Y-66022000D02*
X157604000Y-65672000D01*
X157604000Y-70322000D02*
X156854000Y-70322000D01*
X159104000Y-65672000D02*
X159104000Y-66022000D01*
X159104000Y-66022000D02*
X159854000Y-66022000D01*
X159604000Y-65672000D02*
X159104000Y-65672000D01*
X159854000Y-64672000D02*
X159604000Y-65672000D01*
X159854000Y-66022000D02*
X159854000Y-70322000D01*
X159854000Y-70322000D02*
X159104000Y-70322000D01*
X160354000Y-64672000D02*
X163354000Y-64672000D01*
X160354000Y-66022000D02*
X161104000Y-66022000D01*
X160354000Y-70322000D02*
X160354000Y-66022000D01*
X160604000Y-65672000D02*
X160354000Y-64672000D01*
X161104000Y-65672000D02*
X160604000Y-65672000D01*
X161104000Y-66022000D02*
X161104000Y-65672000D01*
X161104000Y-70322000D02*
X160354000Y-70322000D01*
X162604000Y-65672000D02*
X162604000Y-66022000D01*
X162604000Y-66022000D02*
X163354000Y-66022000D01*
X163104000Y-65672000D02*
X162604000Y-65672000D01*
X163354000Y-64672000D02*
X163104000Y-65672000D01*
X163354000Y-66022000D02*
X163354000Y-70322000D01*
X163354000Y-70322000D02*
X162604000Y-70322000D01*
X163854000Y-64672000D02*
X166854000Y-64672000D01*
X163854000Y-66022000D02*
X164604000Y-66022000D01*
X163854000Y-70322000D02*
X163854000Y-66022000D01*
X164104000Y-65672000D02*
X163854000Y-64672000D01*
X164604000Y-65672000D02*
X164104000Y-65672000D01*
X164604000Y-66022000D02*
X164604000Y-65672000D01*
X164604000Y-70322000D02*
X163854000Y-70322000D01*
X166104000Y-65672000D02*
X166104000Y-66022000D01*
X166104000Y-66022000D02*
X166854000Y-66022000D01*
X166604000Y-65672000D02*
X166104000Y-65672000D01*
X166854000Y-64672000D02*
X166604000Y-65672000D01*
X166854000Y-66022000D02*
X166854000Y-70322000D01*
X166854000Y-70322000D02*
X166104000Y-70322000D01*
X167914000Y-63712000D02*
X152294000Y-63712000D01*
X167914000Y-71182000D02*
X167914000Y-63712000D01*
X154104000Y-70322000D02*
G75*
G02*
X155603647Y-70321844I750000J-1700000D01*
G01*
X157604000Y-70322000D02*
G75*
G02*
X159103647Y-70321844I750000J-1700000D01*
G01*
X161104000Y-70322000D02*
G75*
G02*
X162603647Y-70321844I750000J-1700000D01*
G01*
X164604000Y-70322000D02*
G75*
G02*
X166103647Y-70321844I750000J-1700000D01*
G01*
%TD*%
M02*
