M48
; DRILL file {KiCad 8.0.5} date 2024-10-29T23:36:51+0100
; FORMAT={3:3/ absolute / metric / suppress leading zeros}
; #@! TF.CreationDate,2024-10-29T23:36:51+01:00
; #@! TF.GenerationSoftware,Kicad,Pcbnew,8.0.5
; #@! TF.FileFunction,MixedPlating,1,2
FMAT,2
METRIC,TZ
; #@! TA.AperFunction,Plated,PTH,ViaDrill
T1C0.400
; #@! TA.AperFunction,Plated,PTH,ComponentDrill
T2C0.800
; #@! TA.AperFunction,Plated,PTH,ComponentDrill
T3C0.890
; #@! TA.AperFunction,Plated,PTH,ComponentDrill
T4C0.900
; #@! TA.AperFunction,Plated,PTH,ComponentDrill
T5C1.000
; #@! TA.AperFunction,Plated,PTH,ComponentDrill
T6C1.200
; #@! TA.AperFunction,Plated,PTH,ComponentDrill
T7C1.600
; #@! TA.AperFunction,NonPlated,NPTH,ComponentDrill
T8C3.200
; #@! TA.AperFunction,NonPlated,NPTH,ComponentDrill
T9C3.250
%
G90
G05
T1
X146812Y-81026
X149606Y-110363
X152400Y-67564
X155702Y-92456
X159876Y-111657
X163068Y-99695
X164162Y-81426
X165190Y-99927
X167481Y-99593
X167767Y-67437
X168317Y-82296
X169164Y-117094
X169545Y-86233
X171399Y-85926
X171577Y-103759
X171577Y-103759
X171958Y-113030
X172372Y-94612
X178181Y-117475
X178357Y-100382
X178435Y-113411
X179024Y-104930
X179055Y-111988
X179060Y-108740
X179189Y-103560
X179705Y-76708
X179952Y-108199
X179959Y-71628
X180340Y-93599
X180607Y-102362
X181242Y-105843
X181342Y-103251
X181401Y-112094
X181602Y-110223
X182047Y-114728
X182626Y-90805
X183134Y-113157
X183188Y-101137
X183844Y-99639
X185674Y-103505
X185801Y-94234
X186207Y-113906
X186224Y-119253
X187172Y-115465
X188049Y-96304
X188165Y-118339
X188341Y-116713
X188392Y-105918
X188421Y-113855
X189371Y-98655
X189611Y-91889
X190642Y-98898
X190958Y-89712
X191458Y-113488
X191710Y-94254
X191757Y-88959
X191852Y-114621
X192913Y-82042
X193040Y-77597
X193167Y-85979
X193392Y-110882
X193548Y-91440
X194818Y-70866
X195199Y-86990
X195413Y-91303
X195834Y-102870
X196469Y-106934
X196596Y-92710
X197014Y-89996
X197231Y-97155
X197231Y-97155
X197231Y-112141
X197237Y-80206
X197354Y-108241
X197485Y-104140
X197500Y-91335
X197993Y-76454
X198374Y-82677
X198408Y-102631
X198432Y-86702
X198882Y-106807
X199009Y-70993
X199043Y-107817
X199263Y-99441
X199308Y-104160
X199499Y-86817
X199771Y-84963
X199771Y-116525
X199898Y-78994
X200222Y-96464
X200660Y-108331
X200787Y-110744
X201874Y-82927
X203708Y-117094
X205121Y-103956
X205468Y-84553
X205502Y-81272
X205588Y-91245
X205617Y-86462
X206039Y-82341
X206248Y-110109
X206502Y-97536
X206925Y-106724
X207151Y-84730
X207244Y-96399
X207338Y-105040
X207645Y-82677
X208286Y-80106
X208534Y-86868
X210440Y-95093
X211455Y-86995
X211681Y-81189
X212217Y-78105
X212725Y-82931
X214757Y-75057
X214884Y-67945
X215519Y-99695
X215519Y-117196
X217551Y-102489
X217805Y-77724
X218668Y-79111
X220218Y-90170
X224282Y-87884
X224409Y-106807
X224917Y-110617
X226568Y-78740
X229362Y-91186
X230378Y-67437
T2
X189176Y-94996
X194056Y-94996
T3
X226314Y-102997
X226314Y-113106
X226370Y-83845
X226370Y-93955
X227838Y-105537
X227838Y-115646
X227894Y-86385
X227894Y-96495
T4
X214046Y-104877
X214046Y-107417
X214046Y-109957
X214046Y-112497
X214102Y-85725
X214102Y-88265
X214102Y-90805
X214102Y-93345
X216586Y-106147
X216586Y-108687
X216586Y-111227
X216586Y-113767
X216642Y-86995
X216642Y-89535
X216642Y-92075
X216642Y-94615
T5
X146416Y-74295
X147467Y-86630
X148956Y-74295
X149967Y-86630
X151496Y-74295
T6
X146223Y-68072
X149723Y-68072
X154854Y-68072
X156464Y-86360
X158354Y-68072
X159964Y-86360
X161854Y-68072
X163464Y-86360
X165354Y-68072
X166964Y-86360
X170475Y-68072
X172974Y-86360
X173975Y-68072
X176474Y-86360
X177475Y-68072
X179974Y-86360
X180975Y-68072
X183474Y-86360
X186096Y-68072
X189596Y-68072
X193096Y-68072
X196596Y-68072
X201717Y-68072
X205217Y-68072
X208717Y-68072
X212217Y-68072
X217338Y-68072
X220838Y-68072
X224338Y-68072
X227838Y-68072
T7
X219888Y-101448
X219888Y-117196
X219944Y-82296
X219944Y-98044
T8
X155702Y-115062
X156464Y-77470
X207264Y-117348
X215392Y-78740
T9
X222936Y-103607
X222936Y-115037
X222992Y-84455
X222992Y-95885
M30
